<?xml version="1.0" standalone="no"?>
<!DOCTYPE svg PUBLIC "-//W3C//DTD SVG 1.1//EN" "http://www.w3.org/Graphics/SVG/1.1/DTD/svg11.dtd" >
<svg>
<metadata>
Created by FontForge 20090622 at Thu Jan 16 12:45:27 2020
 By deploy user
Copyright (c) 2012 by Doan BC doanbc1502@gmail.com. All rights reserved.
</metadata>
<defs>
<font id="VNF-Bodoni" horiz-adv-x="909" >
  <font-face 
    font-family="VNF-Bodoni"
    font-weight="400"
    font-stretch="normal"
    units-per-em="2048"
    panose-1="2 11 5 0 4 0 0 2 0 4"
    ascent="1638"
    descent="-410"
    x-height="811"
    cap-height="1368"
    bbox="-347 -512 2048 2230"
    underline-thickness="50"
    underline-position="-50"
    unicode-range="U+000D-U+FB02"
  />
<missing-glyph horiz-adv-x="1024" 
d="M0 1434h1024v-1434h-1024v1434zM860 1331h-696l348 -522zM922 195v1044l-349 -522zM860 102l-348 523l-348 -523h696zM102 195l349 522l-349 522v-1044z" />
    <glyph glyph-name=".notdef" horiz-adv-x="1024" 
d="M0 1434h1024v-1434h-1024v1434zM860 1331h-696l348 -522zM922 195v1044l-349 -522zM860 102l-348 523l-348 -523h696zM102 195l349 522l-349 522v-1044z" />
    <glyph glyph-name=".null" horiz-adv-x="1024" 
 />
    <glyph glyph-name=".null" horiz-adv-x="1024" 
 />
    <glyph glyph-name="nonmarkingreturn" unicode="&#xd;" horiz-adv-x="1024" 
 />
    <glyph glyph-name="space" horiz-adv-x="512" 
 />
    <glyph glyph-name="A" unicode="A" horiz-adv-x="1366" 
d="M786 555l-168 555h-4l-180 -555h352zM47 0v47h162l444 1339h80l422 -1339h143v-47h-516v47h166l-141 451h-391l-146 -451h176v-47h-399z" />
    <glyph glyph-name="B" unicode="B" horiz-adv-x="1251" 
d="M84 0v47h158v1274h-158v47h530q101 0 176 -15.5t129 -41.5t88.5 -59.5t54.5 -70t28 -73t8 -68.5q0 -76 -31 -132t-81 -94.5t-112 -61t-124 -29.5v-4q103 -12 177 -49t122 -86t71 -104t23 -103q0 -39 -8.5 -82t-30.5 -85t-60 -80t-97 -67t-141.5 -46t-193.5 -17h-528z
M440 47h172q89 0 146.5 16.5t90.5 55.5t45.5 104t12.5 162t-23.5 157.5t-70 94.5t-115.5 45.5t-161 11.5h-97v-647zM440 741h176q77 0 127.5 16t80 52t41.5 93t12 138q0 72 -14.5 124.5t-47 87.5t-85.5 52t-130 17h-160v-580z" />
    <glyph glyph-name="C" unicode="C" horiz-adv-x="1251" 
d="M1096 1004h-47q-16 73 -45 136.5t-73 110.5t-105 74t-142 27q-49 0 -92 -15.5t-78 -39.5t-61 -53.5t-41 -57.5q-20 -38 -34 -85.5t-23.5 -99.5t-14.5 -105.5t-8 -102.5t-3.5 -90.5t-0.5 -69.5q0 -132 12 -243t50 -192t110.5 -126t193.5 -45q75 0 135.5 28.5t107.5 76.5
t80.5 110.5t53.5 130.5h49v-373h-55l-57 84q-73 -62 -154 -88.5t-168 -26.5q-142 0 -252.5 57.5t-186 156.5t-114.5 230.5t-39 278.5q0 101 24.5 192.5t67 170t100.5 142.5t124.5 108.5t139 69t144.5 24.5q46 0 85 -7t75 -21t70 -34.5t71 -46.5l70 62h31v-348z" />
    <glyph glyph-name="D" unicode="D" horiz-adv-x="1366" 
d="M242 1321h-158v47h549q145 0 263 -47.5t201.5 -135t129 -211.5t45.5 -278q0 -89 -16 -167t-44.5 -146t-67.5 -126t-85 -107q-49 -51 -107.5 -81t-117 -45t-112 -19.5t-93.5 -4.5h-545v47h158v1274zM440 47h201q89 1 150 22t101.5 52.5t64.5 69t40 71.5q15 35 25 85.5
t15.5 111.5t7.5 130.5t2 143.5q0 73 -4 144.5t-19 137t-44.5 121.5t-79.5 97t-125 64.5t-181 23.5h-154v-1274z" />
    <glyph glyph-name="E" unicode="E" horiz-adv-x="1251" 
d="M61 0v47h181v1274h-181v47h1039v-334h-45q-13 91 -43 147.5t-74.5 87.5t-102.5 41.5t-128 10.5h-267v-590q78 0 130.5 3.5t87 24.5t53.5 65.5t30 125.5h45v-518h-45q-5 82 -24 131t-55 74.5t-91 33.5t-131 9v-633h248q101 0 171 10t117.5 44.5t76.5 101t49 180.5h53
l-27 -383h-1067z" />
    <glyph glyph-name="F" unicode="F" horiz-adv-x="1139" 
d="M76 0v47h166v1274h-166v47h999l17 -362h-37q-24 93 -46.5 153.5t-59 96.5t-95 50.5t-154.5 14.5h-260v-596q69 1 119 5.5t84.5 25t54 63t27.5 119.5h47v-504h-45q-5 78 -24 125.5t-53.5 73t-86 33.5t-123.5 8v-627h176v-47h-540z" />
    <glyph glyph-name="G" unicode="G" horiz-adv-x="1366" 
d="M1114 1354h33v-350h-47q-15 76 -50 139.5t-88 110t-123 72.5t-155 26q-49 0 -92 -15t-78 -38.5t-61 -53t-41 -57.5q-20 -38 -34 -85.5t-23.5 -100t-14.5 -106.5t-8 -103t-3.5 -90.5t-0.5 -69.5q0 -132 12 -245t50 -195.5t110.5 -129.5t193.5 -47q70 0 119.5 15t82 42.5
t50.5 66t27 85t10 100t0 111.5h-199v49h555v-49h-125q-4 -57 -15.5 -113.5t-35.5 -108.5t-62.5 -96.5t-96 -77.5t-136 -52t-182.5 -19q-142 0 -252.5 57.5t-186 156.5t-114.5 230.5t-39 278.5q0 101 24.5 193t67 170.5t100.5 142t124.5 108.5t139 69t144.5 24
q109 0 195.5 -31.5t152.5 -91.5z" />
    <glyph glyph-name="H" unicode="H" horiz-adv-x="1479" 
d="M1034 735v586h-160v47h519v-47h-160v-1274h160v-47h-519v47h160v629h-590v-629h160v-47h-518v47h160v1274h-160v47h518v-47h-160v-586h590z" />
    <glyph glyph-name="I" unicode="I" horiz-adv-x="682" 
d="M616 0h-550v47h176v1274h-176v47h550v-47h-176v-1274h176v-47z" />
    <glyph glyph-name="J" unicode="J" horiz-adv-x="797" 
d="M735 1368v-47h-172v-1178q0 -75 -29 -136.5t-77 -105t-110.5 -67.5t-129.5 -24q-34 0 -71 11t-68 33t-51.5 55.5t-20.5 78.5q0 55 28.5 89t82.5 34q45 0 75.5 -29t30.5 -76q0 -23 -6 -39t-13.5 -27.5l-13.5 -20.5t-6 -17q0 -10 7 -16.5t17.5 -10t21.5 -5t20 -1.5
q54 0 84.5 38t30.5 95v1319h-183v47h553z" />
    <glyph glyph-name="K" unicode="K" horiz-adv-x="1366" 
d="M834 1321v47h407v-47h-151l-474 -508l623 -766h96v-47h-520v47h164l-518 668q-5 8 0 16t16 19l541 571h-184zM598 0h-514v47h158v1274h-158v47h514v-47h-158v-1274h158v-47z" />
    <glyph glyph-name="L" unicode="L" horiz-adv-x="1139" 
d="M74 0v47h168v1274h-168v47h555v-47h-189v-1274h367q63 0 110 34t80 85t53 109.5t29 107.5h39l-22 -383h-1022z" />
    <glyph glyph-name="M" unicode="M" horiz-adv-x="1593" 
d="M88 1321v47h410l288 -1008h5l301 1008h407v-47h-156v-1274h156v-47h-512v47h158v1249h-4l-398 -1296h-53l-383 1296h-4v-1249h154v-47h-369v47h154v1274h-154z" />
    <glyph glyph-name="N" unicode="N" horiz-adv-x="1366" 
d="M238 1321h-160v47h399l582 -991h4v944h-160v47h379v-47h-158v-1352h-53l-768 1311h-4v-1233h158v-47h-379v47h160v1274z" />
    <glyph glyph-name="O" unicode="O" horiz-adv-x="1366" 
d="M682 -31q-88 0 -166 28t-143 77.5t-117 117.5t-88 147.5t-55 167.5t-19 179t19 179t55 167t88 146.5t117 116.5t143 76.5t166 27.5t166 -27.5t143 -76.5t117 -116.5t88 -146.5t55 -167t19 -179q0 -90 -19 -178.5t-55 -168t-88 -147.5t-117 -117.5t-143 -77.5t-166 -28z
M682 16q106 0 174.5 45t108.5 130.5t55.5 210t15.5 282.5q0 159 -15.5 283t-55.5 209.5t-108.5 130.5t-174.5 45t-174.5 -45t-108.5 -130.5t-55.5 -209.5t-15.5 -283q0 -158 15.5 -282.5t55.5 -210t108.5 -130.5t174.5 -45z" />
    <glyph glyph-name="P" unicode="P" horiz-adv-x="1139" 
d="M66 1368h544q142 0 237.5 -31.5t153.5 -83t82.5 -117t24.5 -132.5q0 -63 -31 -131.5t-100 -125.5t-180.5 -94t-272.5 -37h-98v-569h182v-47h-557v47h176v1274h-161v47zM426 664h70q125 0 202.5 22.5t120 66t57.5 108.5t15 151q0 107 -25 169t-75.5 93t-127 39t-180.5 8
h-57v-657z" />
    <glyph glyph-name="Q" unicode="Q" horiz-adv-x="1366" 
d="M1155 -453h-59q-122 0 -220 17.5t-167 64t-106.5 127t-37.5 205.5v23q-107 24 -193.5 92t-148.5 163t-95.5 211t-33.5 236q0 91 19 179t55 167t88 146.5t117 116.5t143 76.5t166 27.5t166 -27.5t143 -76.5t117 -116.5t88 -146.5t55 -167t19 -179q0 -80 -15 -158
t-43.5 -150.5t-69.5 -136.5t-93.5 -115.5t-115.5 -88t-134 -53.5v-103q0 -74 16 -128.5t56.5 -90.5t109.5 -54t174 -18v-43zM682 14q106 0 174.5 45.5t108.5 131.5t55.5 210.5t15.5 282.5q0 159 -15.5 283t-55.5 209.5t-108.5 130.5t-174.5 45t-174.5 -45t-108.5 -130.5
t-55.5 -209.5t-15.5 -283q0 -158 15.5 -282.5t55.5 -210.5t108.5 -131.5t174.5 -45.5z" />
    <glyph glyph-name="R" unicode="R" horiz-adv-x="1366" 
d="M84 0v47h158v1274h-158v47h604q98 0 170 -16t122 -41.5t81.5 -57.5t49 -65.5t24 -64.5t6.5 -54q0 -67 -18.5 -117t-50 -85.5t-73.5 -59.5t-89.5 -39t-98 -23t-98.5 -12v-4q88 -22 160.5 -52.5t123 -82.5t75.5 -132.5t18 -201.5q-3 -37 -1.5 -71.5t7.5 -63t17 -48.5
t28 -28q15 -10 35.5 -13t44.5 -1t50 8.5t52 15.5v-51q-105 -36 -182 -39q-55 -1 -98 12.5t-74.5 37t-51.5 55t-30 67.5q-4 14 -8 49.5l-9 81.5t-10 97.5t-10 97.5q-2 23 -6.5 51t-15 55.5t-29 53t-49.5 45t-77 31.5t-110 12h-123v-668h162v-47h-518zM440 762h111q84 0 152 7
t116 37t73.5 90t25.5 165q0 75 -16.5 125t-51.5 80t-88.5 42.5t-126.5 12.5h-195v-559z" />
    <glyph glyph-name="S" unicode="S" horiz-adv-x="1024" 
d="M109 -6h-29v352h39q21 -70 57 -130t86.5 -104.5t113.5 -70t138 -25.5q66 0 128 21t110 60t77 93.5t29 122.5q0 45 -7 79.5t-27 62t-56.5 51t-95.5 47.5l-55.5 20l-81 28.5l-92 31.5l-88.5 31l-70 26.5t-37 16.5q-45 27 -76.5 63.5t-51.5 77.5t-29 85t-9 87q0 63 19.5 119
t64.5 114q23 30 53.5 56.5t69.5 46.5t87.5 31.5t106.5 11.5q36 0 76.5 -10t78 -24t68.5 -29.5t46 -26.5l77 59h29v-319h-41q-17 64 -48 119t-75 96t-100.5 64.5t-124.5 23.5q-52 0 -104 -17.5t-93.5 -50t-67.5 -79t-26 -103.5q0 -64 33.5 -104t88 -67t124 -46l142.5 -40.5
t142.5 -51t124 -76.5t88 -118t33.5 -175q0 -105 -31.5 -189.5t-90 -143.5t-140.5 -90.5t-182 -31.5q-87 0 -168.5 26t-144.5 89z" />
    <glyph glyph-name="T" unicode="T" horiz-adv-x="1139" 
d="M299 0v47h170v1274h-139q-73 0 -116.5 -26t-69 -72t-39.5 -110t-29 -140h-53l22 395h1055l14 -395h-53q-9 73 -27.5 136.5t-53 110.5t-88.5 74t-134 27h-90v-1274h170v-47h-539z" />
    <glyph glyph-name="U" unicode="U" horiz-adv-x="1366" 
d="M592 1368v-47h-160v-1016q0 -12 4 -36.5t15 -54t30.5 -61t51.5 -57.5t77 -42.5t107 -16.5q115 0 183.5 37t104.5 101t47 149.5t11 183.5v813h-158v47h371v-47h-158v-877q0 -241 -109 -358t-341 -117q-99 0 -179.5 26.5t-137.5 75t-87.5 118t-30.5 155.5v977h-157v47h516z
" />
    <glyph glyph-name="V" unicode="V" horiz-adv-x="1366" 
d="M51 1368h518v-47h-159l344 -1022h4l329 1022h-186v47h389v-47h-145l-434 -1352h-52l-458 1352h-150v47z" />
    <glyph glyph-name="W" unicode="W" horiz-adv-x="1821" 
d="M868 748l-194 573h-312l328 -1051h4zM858 1321l121 -379h4l139 379h-264zM43 1321v47h1237v-47h-104l-158 -432l207 -623h4l340 1055h-160v47h369v-47h-154l-436 -1352h-62l-227 693h-4l-248 -693h-57l-422 1352h-125z" />
    <glyph glyph-name="X" unicode="X" horiz-adv-x="1366" 
d="M465 0h-422v47h172l360 600l-389 674h-143v47h528v-47h-151l289 -481l290 481h-168v47h406v-47h-164l-325 -541l428 -733h137v-47h-531v47h164l-332 551l-327 -551h178v-47z" />
    <glyph glyph-name="Y" unicode="Y" horiz-adv-x="1366" 
d="M1090 1321h-203v47h422v-47h-164l-357 -686v-588h183v-47h-561v47h180v588l-395 686h-152v47h553v-47h-180l346 -614z" />
    <glyph glyph-name="Z" unicode="Z" horiz-adv-x="1139" 
d="M256 47h379q88 0 149.5 16t103 55t67 104t42.5 163h56l-23 -385h-997v84l790 1237h-379q-75 0 -122 -13t-78.5 -45.5t-54 -87.5t-48.5 -139h-47l21 332h934v-65z" />
    <glyph glyph-name="Agrave" unicode="&#xc0;" horiz-adv-x="1366" 
d="M786 555l-168 555h-4l-180 -555h352zM47 0v47h162l444 1339h80l422 -1339h143v-47h-516v47h166l-141 451h-391l-146 -451h176v-47h-399zM764 1434l-272 165q-45 28 -75 51.5t-30 57.5q0 31 20.5 50.5t51.5 19.5q23 0 39.5 -16l31.5 -31l306 -297h-72z" />
    <glyph glyph-name="Aacute" unicode="&#xc1;" horiz-adv-x="1366" 
d="M786 555l-168 555h-4l-180 -555h352zM47 0v47h162l444 1339h80l422 -1339h143v-47h-516v47h166l-141 451h-391l-146 -451h176v-47h-399zM838 1731l31.5 31t39.5 16q31 0 51.5 -19.5t20.5 -50.5q0 -17 -8 -31t-22 -26.5t-33 -25l-41 -26.5l-273 -165h-72z" />
    <glyph glyph-name="Acircumflex" unicode="&#xc2;" horiz-adv-x="1366" 
d="M786 555l-168 555h-4l-180 -555h352zM47 0v47h162l444 1339h80l422 -1339h143v-47h-516v47h166l-141 451h-391l-146 -451h176v-47h-399zM743 1774l248 -340h-65l-240 215l-240 -215h-69l252 340h114z" />
    <glyph glyph-name="uni1EA6" unicode="&#x1ea6;" horiz-adv-x="1366" 
d="M786 555l-168 555h-4l-180 -555h352zM47 0v47h162l444 1339h80l422 -1339h143v-47h-516v47h166l-141 451h-391l-146 -451h176v-47h-399zM743 1774l248 -340h-65l-240 215l-240 -215h-69l252 340h114zM1139 1609l-272 165q-45 28 -75 51.5t-30 57.5q0 31 20.5 50.5
t51.5 19.5q23 0 39.5 -16l31.5 -31l306 -297h-72z" />
    <glyph glyph-name="uni1EA4" unicode="&#x1ea4;" horiz-adv-x="1366" 
d="M786 555l-168 555h-4l-180 -555h352zM47 0v47h162l444 1339h80l422 -1339h143v-47h-516v47h166l-141 451h-391l-146 -451h176v-47h-399zM743 1774l248 -340h-65l-240 215l-240 -215h-69l252 340h114zM1221 1906l31.5 31t39.5 16q31 0 51.5 -19.5t20.5 -50.5q0 -17 -8 -31
t-22 -26.5t-33 -25l-41 -26.5l-273 -165h-72z" />
    <glyph glyph-name="uni1EAA" unicode="&#x1eaa;" horiz-adv-x="1366" 
d="M786 555l-168 555h-4l-180 -555h352zM47 0v47h162l444 1339h80l422 -1339h143v-47h-516v47h166l-141 451h-391l-146 -451h176v-47h-399zM743 1774l248 -340h-65l-240 215l-240 -215h-69l252 340h114zM1034 2038q-9 -40 -27 -77.5t-45 -67t-63.5 -47t-81.5 -17.5
q-43 0 -80 14t-71 33l-66.5 32t-64.5 15q-42 0 -72.5 -28t-38.5 -66h-55q7 42 25 78.5t45.5 63.5t64.5 42.5t82 15.5q34 0 68.5 -15t68.5 -32q35 -18 68.5 -32.5t64.5 -14.5q26 0 44.5 8t32 22t23.5 32.5t19 40.5h59z" />
    <glyph glyph-name="uni1EA8" unicode="&#x1ea8;" horiz-adv-x="1366" 
d="M786 555l-168 555h-4l-180 -555h352zM47 0v47h162l444 1339h80l422 -1339h143v-47h-516v47h166l-141 451h-391l-146 -451h176v-47h-399zM743 1774l248 -340h-65l-240 215l-240 -215h-69l252 340h114zM909 1614q-24 47 -20.5 76.5t22.5 49t48.5 32l59 25t53.5 28t32 40.5
q8 27 4.5 59t-20 59t-46.5 45.5t-75 18.5q-25 0 -49 -8t-42.5 -19t-29.5 -24.5t-11 -23.5q1 -18 7 -25t15 -8.5t20.5 -0.5t23.5 -1.5t23 -10.5t20 -28q3 -28 -6 -45.5t-23 -26.5t-32 -10.5t-33 2.5q-35 8 -58 37t-23 70q0 40 18.5 70t46.5 50.5t61 31t63 10.5q45 0 85 -16.5
t66.5 -46t36.5 -69.5t-3 -87q-7 -24 -17 -40t-26 -28t-40 -22.5t-60 -23.5q-29 -11 -44 -28.5t-16 -37.5t12 -39.5t40 -34.5h-83z" />
    <glyph glyph-name="uni1EAC" unicode="&#x1eac;" horiz-adv-x="1366" 
d="M786 555l-168 555h-4l-180 -555h352zM47 0v47h162l444 1339h80l422 -1339h143v-47h-516v47h166l-141 451h-391l-146 -451h176v-47h-399zM743 1774l248 -340h-65l-240 215l-240 -215h-69l252 340h114zM682 -437q-41 0 -68 27t-27 67t26.5 69t68.5 29q20 0 37.5 -8
t30.5 -21.5t20.5 -31.5t7.5 -37q0 -20 -8 -37t-21 -30t-30.5 -20t-36.5 -7z" />
    <glyph glyph-name="Atilde" unicode="&#xc3;" horiz-adv-x="1366" 
d="M786 555l-168 555h-4l-180 -555h352zM47 0v47h162l444 1339h80l422 -1339h143v-47h-516v47h166l-141 451h-391l-146 -451h176v-47h-399zM1040 1692q-9 -40 -27 -77.5t-45 -67t-63.5 -47t-81.5 -17.5q-43 0 -80 14t-71 33l-66.5 32t-64.5 15q-42 0 -72.5 -28t-38.5 -66
h-55q7 42 25 78.5t45.5 63.5t64.5 42.5t82 15.5q34 0 68.5 -15t68.5 -32q35 -18 68.5 -32.5t64.5 -14.5q26 0 44.5 8t32 22t23.5 32.5t19 40.5h59z" />
    <glyph glyph-name="Adieresis" unicode="&#xc4;" horiz-adv-x="1366" 
d="M786 555l-168 555h-4l-180 -555h352zM47 0v47h162l444 1339h80l422 -1339h143v-47h-516v47h166l-141 451h-391l-146 -451h176v-47h-399zM494 1470q-41 0 -68 27t-27 68q0 40 26.5 69t68.5 29q20 0 37.5 -8t30.5 -21.5t20.5 -31.5t7.5 -37q0 -20 -8 -37.5t-21 -30.5
t-30.5 -20t-36.5 -7zM893 1470q-40 0 -67 27t-27 68q0 40 26 69t68 29q20 0 37.5 -8t30.5 -21.5t20.5 -31.5t7.5 -37q0 -20 -8 -37.5t-21 -30.5t-30.5 -20t-36.5 -7z" />
    <glyph glyph-name="Abreve" unicode="&#x102;" horiz-adv-x="1366" 
d="M786 555l-168 555h-4l-180 -555h352zM47 0v47h162l444 1339h80l422 -1339h143v-47h-516v47h166l-141 451h-391l-146 -451h176v-47h-399zM455 1751q5 -49 24.5 -87t50 -64.5t70 -40t84.5 -13.5t84.5 13.5t70 40t50 64.5t24.5 87h56q-2 -75 -22.5 -134t-57 -100t-89 -63
t-116.5 -22q-65 0 -117 22t-88.5 63t-57.5 100t-22 134h56z" />
    <glyph glyph-name="uni1EB0" unicode="&#x1eb0;" horiz-adv-x="1366" 
d="M786 555l-168 555h-4l-180 -555h352zM47 0v47h162l444 1339h80l422 -1339h143v-47h-516v47h166l-141 451h-391l-146 -451h176v-47h-399zM455 1751q5 -49 24.5 -87t50 -64.5t70 -40t84.5 -13.5t84.5 13.5t70 40t50 64.5t24.5 87h56q-2 -75 -22.5 -134t-57 -100t-89 -63
t-116.5 -22q-65 0 -117 22t-88.5 63t-57.5 100t-22 134h56zM731 1711l-272 165q-45 28 -75 51.5t-30 57.5q0 31 20.5 50.5t51.5 19.5q23 0 39.5 -16l31.5 -31l306 -297h-72z" />
    <glyph glyph-name="uni1EAE" unicode="&#x1eae;" horiz-adv-x="1366" 
d="M786 555l-168 555h-4l-180 -555h352zM47 0v47h162l444 1339h80l422 -1339h143v-47h-516v47h166l-141 451h-391l-146 -451h176v-47h-399zM455 1751q5 -49 24.5 -87t50 -64.5t70 -40t84.5 -13.5t84.5 13.5t70 40t50 64.5t24.5 87h56q-2 -75 -22.5 -134t-57 -100t-89 -63
t-116.5 -22q-65 0 -117 22t-88.5 63t-57.5 100t-22 134h56zM829 2008l31.5 31t39.5 16q31 0 51.5 -19.5t20.5 -50.5q0 -17 -8 -31t-22 -26.5t-33 -25l-41 -26.5l-273 -165h-72z" />
    <glyph glyph-name="uni1EB4" unicode="&#x1eb4;" horiz-adv-x="1366" 
d="M786 555l-168 555h-4l-180 -555h352zM47 0v47h162l444 1339h80l422 -1339h143v-47h-516v47h166l-141 451h-391l-146 -451h176v-47h-399zM455 1751q5 -49 24.5 -87t50 -64.5t70 -40t84.5 -13.5t84.5 13.5t70 40t50 64.5t24.5 87h56q-2 -75 -22.5 -134t-57 -100t-89 -63
t-116.5 -22q-65 0 -117 22t-88.5 63t-57.5 100t-22 134h56zM1025 1998q-9 -40 -27 -77.5t-45 -67t-63.5 -47t-81.5 -17.5q-43 0 -80 14t-71 33l-66.5 32t-64.5 15q-42 0 -72.5 -28t-38.5 -66h-55q7 42 25 78.5t45.5 63.5t64.5 42.5t82 15.5q34 0 68.5 -15t68.5 -32
q35 -18 68.5 -32.5t64.5 -14.5q26 0 44.5 8t32 22t23.5 32.5t19 40.5h59z" />
    <glyph glyph-name="uni1EB2" unicode="&#x1eb2;" horiz-adv-x="1366" 
d="M786 555l-168 555h-4l-180 -555h352zM47 0v47h162l444 1339h80l422 -1339h143v-47h-516v47h166l-141 451h-391l-146 -451h176v-47h-399zM455 1751q5 -49 24.5 -87t50 -64.5t70 -40t84.5 -13.5t84.5 13.5t70 40t50 64.5t24.5 87h56q-2 -75 -22.5 -134t-57 -100t-89 -63
t-116.5 -22q-65 0 -117 22t-88.5 63t-57.5 100t-22 134h56zM667 1757q-24 47 -20.5 76.5t22.5 49t48.5 32l59 25t53.5 28t32 40.5q8 27 4.5 59t-20 59t-46.5 45.5t-75 18.5q-25 0 -49 -8t-42.5 -19t-29.5 -24.5t-11 -23.5q1 -18 7 -25t15 -8.5t20.5 -0.5t23.5 -1.5t23 -10.5
t20 -28q3 -28 -6 -45.5t-23 -26.5t-32 -10.5t-33 2.5q-35 8 -58 37t-23 70q0 40 18.5 70t46.5 50.5t61 31t63 10.5q45 0 85 -16.5t66.5 -46t36.5 -69.5t-3 -87q-7 -24 -17 -40t-26 -28t-40 -22.5t-60 -23.5q-29 -11 -44 -28.5t-16 -37.5t12 -39.5t40 -34.5h-83z" />
    <glyph glyph-name="uni1EB6" unicode="&#x1eb6;" horiz-adv-x="1366" 
d="M786 555l-168 555h-4l-180 -555h352zM47 0v47h162l444 1339h80l422 -1339h143v-47h-516v47h166l-141 451h-391l-146 -451h176v-47h-399zM455 1751q5 -49 24.5 -87t50 -64.5t70 -40t84.5 -13.5t84.5 13.5t70 40t50 64.5t24.5 87h56q-2 -75 -22.5 -134t-57 -100t-89 -63
t-116.5 -22q-65 0 -117 22t-88.5 63t-57.5 100t-22 134h56zM597 -437q-41 0 -68 27t-27 67t26.5 69t68.5 29q20 0 37.5 -8t30.5 -21.5t20.5 -31.5t7.5 -37q0 -20 -8 -37t-21 -30t-30.5 -20t-36.5 -7z" />
    <glyph glyph-name="Aring" unicode="&#xc5;" horiz-adv-x="1366" 
d="M786 555l-168 555h-4l-180 -555h352zM47 0v47h162l444 1339h80l422 -1339h143v-47h-516v47h166l-141 451h-391l-146 -451h176v-47h-399zM684 1753q-29 0 -54 -10.5t-43.5 -29.5t-29 -44t-10.5 -53q0 -29 10.5 -54t29 -43.5t43.5 -29t54 -10.5q28 0 53 10.5t44 29
t29.5 43.5t10.5 54q0 28 -10.5 53t-29.5 44t-44 29.5t-53 10.5zM684 1417q-42 0 -78.5 15.5t-63.5 42.5t-42 63t-15 78q0 41 15.5 77.5t42.5 63.5t63 42.5t78 15.5q41 0 77 -16t63 -43t43 -63.5t16 -76.5q0 -42 -16 -78t-43 -63t-63 -42.5t-77 -15.5z" />
    <glyph glyph-name="uni1EA2" unicode="&#x1ea2;" horiz-adv-x="1366" 
d="M786 555l-168 555h-4l-180 -555h352zM47 0v47h162l444 1339h80l422 -1339h143v-47h-516v47h166l-141 451h-391l-146 -451h176v-47h-399zM602 1431q-24 47 -20.5 76.5t22.5 49t48.5 32l59 25t53.5 28t32 40.5q8 27 4.5 59t-20 59t-46.5 45.5t-75 18.5q-25 0 -49 -8
t-42.5 -19t-29.5 -24.5t-11 -23.5q1 -18 7 -25t15 -8.5t20.5 -0.5t23.5 -1.5t23 -10.5t20 -28q3 -28 -6 -45.5t-23 -26.5t-32 -10.5t-33 2.5q-35 8 -58 37t-23 70q0 40 18.5 70t46.5 50.5t61 31t63 10.5q45 0 85 -16.5t66.5 -46t36.5 -69.5t-3 -87q-7 -24 -17 -40t-26 -28
t-40 -22.5t-60 -23.5q-29 -11 -44 -28.5t-16 -37.5t12 -39.5t40 -34.5h-83z" />
    <glyph glyph-name="uni1EA0" unicode="&#x1ea0;" horiz-adv-x="1366" 
d="M786 555l-168 555h-4l-180 -555h352zM47 0v47h162l444 1339h80l422 -1339h143v-47h-516v47h166l-141 451h-391l-146 -451h176v-47h-399zM533 -437q-41 0 -68 27t-27 67t26.5 69t68.5 29q20 0 37.5 -8t30.5 -21.5t20.5 -31.5t7.5 -37q0 -20 -8 -37t-21 -30t-30.5 -20
t-36.5 -7z" />
    <glyph glyph-name="AE" unicode="&#xc6;" horiz-adv-x="1821" 
d="M317 0h-350v47h137l480 969q15 31 29 71t14 74q0 51 -19.5 80.5t-50.5 46t-70 23t-79 10.5v47h1261v-334h-45q-14 91 -44 147.5t-75 87.5t-103 41.5t-128 10.5h-244v-590q78 0 130 3.5t85 24.5t50 65.5t24 125.5h45v-518h-45q-1 82 -17.5 131t-51.5 74.5t-89.5 33.5
t-130.5 9v-633h225q102 0 172 10t117.5 44.5t76 101t48.5 180.5h55l-28 -383h-1051v47h186v438h-452l-215 -438h153v-47zM831 543v774h-38l-383 -774h421z" />
    <glyph glyph-name="AEacute" unicode="&#x1fc;" horiz-adv-x="2028" 
d="M317 0h-350v47h137l480 969q15 31 29 71t14 74q0 51 -19.5 80.5t-50.5 46t-70 23t-79 10.5v47h1261v-334h-45q-14 91 -44 147.5t-75 87.5t-103 41.5t-128 10.5h-244v-590q78 0 130 3.5t85 24.5t50 65.5t24 125.5h45v-518h-45q-1 82 -17.5 131t-51.5 74.5t-89.5 33.5
t-130.5 9v-633h225q102 0 172 10t117.5 44.5t76 101t48.5 180.5h55l-28 -383h-1051v47h186v438h-452l-215 -438h153v-47zM831 543v774h-38l-383 -774h421zM1327 1583l32.5 31t39.5 16q31 0 51.5 -19.5t20.5 -50.5q0 -17 -8 -30.5t-22 -26.5t-33.5 -25l-41.5 -26l-272 -166
h-72z" />
    <glyph glyph-name="uni01E2" unicode="&#x1e2;" horiz-adv-x="2028" 
d="M317 0h-350v47h137l480 969q15 31 29 71t14 74q0 51 -19.5 80.5t-50.5 46t-70 23t-79 10.5v47h1261v-334h-45q-14 91 -44 147.5t-75 87.5t-103 41.5t-128 10.5h-244v-590q78 0 130 3.5t85 24.5t50 65.5t24 125.5h45v-518h-45q-1 82 -17.5 131t-51.5 74.5t-89.5 33.5
t-130.5 9v-633h225q102 0 172 10t117.5 44.5t76 101t48.5 180.5h55l-28 -383h-1051v47h186v438h-452l-215 -438h153v-47zM831 543v774h-38l-383 -774h421zM891 1470h545v-102h-545v102z" />
    <glyph glyph-name="Ccedilla" unicode="&#xc7;" horiz-adv-x="1251" 
d="M1096 1004h-47q-16 73 -45 136.5t-73 110.5t-105 74t-142 27q-49 0 -92 -15.5t-78 -39.5t-61 -53.5t-41 -57.5q-20 -38 -34 -85.5t-23.5 -99.5t-14.5 -105.5t-8 -102.5t-3.5 -90.5t-0.5 -69.5q0 -132 12 -243t50 -192t110.5 -126t193.5 -45q75 0 135.5 28.5t107.5 76.5
t80.5 110.5t53.5 130.5h49v-373h-55l-57 84q-73 -62 -154 -88.5t-168 -26.5h-24t-21 2l-49 -106q18 5 38.5 8.5t39.5 3.5q18 0 44 -7.5t50 -24t40.5 -43.5t16.5 -66q0 -51 -23 -84t-59 -52.5t-80 -27.5t-86 -8q-38 0 -85 7.5t-82 22.5l28 62l59 -16.5t60 -8.5q21 0 43 4.5
t40 14.5t30 26.5t12 40.5q0 22 -9 37t-22 24.5t-28.5 14t-28.5 4.5q-14 -2 -19.5 -2t-9.5 -0.5t-10.5 -2t-22.5 -5.5l-36 10l81 185q-115 21 -204.5 85t-150.5 159t-92.5 214.5t-31.5 251.5q0 101 24.5 192.5t67 170t100.5 142.5t124.5 108.5t139 69t144.5 24.5q46 0 85 -7
t75 -21t70 -34.5t71 -46.5l70 62h31v-348z" />
    <glyph glyph-name="Dcroat" unicode="&#x110;" horiz-adv-x="1366" 
d="M242 676h-203v59h203v586h-158v47h549q144 0 262 -47.5t202 -135t129.5 -211.5t45.5 -278q0 -89 -15.5 -167.5t-44 -146.5t-67.5 -127t-86 -108q-49 -51 -107.5 -80t-117 -44t-112 -19t-93.5 -4h-545v47h158v629zM440 735h287v-59h-287v-629h201q89 0 150 20.5t101 52
t64 69t39 71.5q16 36 26 87t16 112t8 130.5t2 143.5q0 73 -4 144.5t-19.5 137t-45 121.5t-79.5 97t-125 64.5t-180 23.5h-154v-586z" />
    <glyph glyph-name="Egrave" unicode="&#xc8;" horiz-adv-x="1251" 
d="M61 0v47h181v1274h-181v47h1039v-334h-45q-13 91 -43 147.5t-74.5 87.5t-102.5 41.5t-128 10.5h-267v-590q78 0 130.5 3.5t87 24.5t53.5 65.5t30 125.5h45v-518h-45q-5 82 -24 131t-55 74.5t-91 33.5t-131 9v-633h248q101 0 171 10t117.5 44.5t76.5 101t49 180.5h53
l-27 -383h-1067zM707 1434l-273 165l-41 26.5t-33 25t-22 26.5t-8 31q0 31 20 50.5t51 19.5q23 0 40 -16l32 -31l305 -297h-71z" />
    <glyph glyph-name="Eacute" unicode="&#xc9;" horiz-adv-x="1251" 
d="M61 0v47h181v1274h-181v47h1039v-334h-45q-13 91 -43 147.5t-74.5 87.5t-102.5 41.5t-128 10.5h-267v-590q78 0 130.5 3.5t87 24.5t53.5 65.5t30 125.5h45v-518h-45q-5 82 -24 131t-55 74.5t-91 33.5t-131 9v-633h248q101 0 171 10t117.5 44.5t76.5 101t49 180.5h53
l-27 -383h-1067zM780 1731l32.5 31t39.5 16q31 0 51.5 -19.5t20.5 -50.5q0 -34 -30 -57.5t-75 -51.5l-272 -165h-72z" />
    <glyph glyph-name="uni1EC0" unicode="&#x1ec0;" horiz-adv-x="1251" 
d="M61 0v47h181v1274h-181v47h1039v-334h-45q-13 91 -43 147.5t-74.5 87.5t-102.5 41.5t-128 10.5h-267v-590q78 0 130.5 3.5t87 24.5t53.5 65.5t30 125.5h45v-518h-45q-5 82 -24 131t-55 74.5t-91 33.5t-131 9v-633h248q101 0 171 10t117.5 44.5t76.5 101t49 180.5h53
l-27 -383h-1067zM686 1774l248 -340h-66l-239 215l-240 -215h-70l252 340h115zM1139 1609l-272 165q-45 28 -75 51.5t-30 57.5q0 31 20.5 50.5t51.5 19.5q23 0 39.5 -16l31.5 -31l306 -297h-72z" />
    <glyph glyph-name="uni1EC4" unicode="&#x1ec4;" horiz-adv-x="1251" 
d="M61 0v47h181v1274h-181v47h1039v-334h-45q-13 91 -43 147.5t-74.5 87.5t-102.5 41.5t-128 10.5h-267v-590q78 0 130.5 3.5t87 24.5t53.5 65.5t30 125.5h45v-518h-45q-5 82 -24 131t-55 74.5t-91 33.5t-131 9v-633h248q101 0 171 10t117.5 44.5t76.5 101t49 180.5h53
l-27 -383h-1067zM686 1774l248 -340h-66l-239 215l-240 -215h-70l252 340h115zM997 2038q-9 -40 -27 -77.5t-45 -67t-63.5 -47t-81.5 -17.5q-43 0 -80 14t-71 33l-66.5 32t-64.5 15q-42 0 -72.5 -28t-38.5 -66h-55q7 42 25 78.5t45.5 63.5t64.5 42.5t82 15.5q34 0 68.5 -15
t68.5 -32q35 -18 68.5 -32.5t64.5 -14.5q26 0 44.5 8t32 22t23.5 32.5t19 40.5h59z" />
    <glyph glyph-name="uni1EC2" unicode="&#x1ec2;" horiz-adv-x="1251" 
d="M61 0v47h181v1274h-181v47h1039v-334h-45q-13 91 -43 147.5t-74.5 87.5t-102.5 41.5t-128 10.5h-267v-590q78 0 130.5 3.5t87 24.5t53.5 65.5t30 125.5h45v-518h-45q-5 82 -24 131t-55 74.5t-91 33.5t-131 9v-633h248q101 0 171 10t117.5 44.5t76.5 101t49 180.5h53
l-27 -383h-1067zM686 1774l248 -340h-66l-239 215l-240 -215h-70l252 340h115zM909 1614q-24 47 -20.5 76.5t22.5 49t48.5 32l59 25t53.5 28t32 40.5q8 27 4.5 59t-20 59t-46.5 45.5t-75 18.5q-25 0 -49 -8t-42.5 -19t-29.5 -24.5t-11 -23.5q1 -18 7 -25t15 -8.5t20.5 -0.5
t23.5 -1.5t23 -10.5t20 -28q3 -28 -6 -45.5t-23 -26.5t-32 -10.5t-33 2.5q-35 8 -58 37t-23 70q0 40 18.5 70t46.5 50.5t61 31t63 10.5q45 0 85 -16.5t66.5 -46t36.5 -69.5t-3 -87q-7 -24 -17 -40t-26 -28t-40 -22.5t-60 -23.5q-29 -11 -44 -28.5t-16 -37.5t12 -39.5
t40 -34.5h-83z" />
    <glyph glyph-name="uni1EC6" unicode="&#x1ec6;" horiz-adv-x="1251" 
d="M628 -437q-41 0 -68 27t-27 67t26.5 69t68.5 29q20 0 37.5 -8t30.5 -21.5t20.5 -31.5t7.5 -37q0 -20 -8 -37t-21 -30t-30.5 -20t-36.5 -7zM61 0v47h181v1274h-181v47h1039v-334h-45q-13 91 -43 147.5t-74.5 87.5t-102.5 41.5t-128 10.5h-267v-590q78 0 130.5 3.5t87 24.5
t53.5 65.5t30 125.5h45v-518h-45q-5 82 -24 131t-55 74.5t-91 33.5t-131 9v-633h248q101 0 171 10t117.5 44.5t76.5 101t49 180.5h53l-27 -383h-1067zM686 1774l248 -340h-66l-239 215l-240 -215h-70l252 340h115z" />
    <glyph glyph-name="uni1EBC" unicode="&#x1ebc;" horiz-adv-x="1251" 
d="M61 0v47h181v1274h-181v47h1039v-334h-45q-13 91 -43 147.5t-74.5 87.5t-102.5 41.5t-128 10.5h-267v-590q78 0 130.5 3.5t87 24.5t53.5 65.5t30 125.5h45v-518h-45q-5 82 -24 131t-55 74.5t-91 33.5t-131 9v-633h248q101 0 171 10t117.5 44.5t76.5 101t49 180.5h53
l-27 -383h-1067zM1010 1692q-9 -40 -27 -77.5t-45 -67t-63.5 -47t-81.5 -17.5q-43 0 -80 14t-71 33l-66.5 32t-64.5 15q-42 0 -72.5 -28t-38.5 -66h-55q7 42 25 78.5t45.5 63.5t64.5 42.5t82 15.5q34 0 68.5 -15t68.5 -32q35 -18 68.5 -32.5t64.5 -14.5q26 0 44.5 8t32 22
t23.5 32.5t19 40.5h59z" />
    <glyph glyph-name="Edieresis" unicode="&#xcb;" horiz-adv-x="1251" 
d="M61 0v47h181v1274h-181v47h1039v-334h-45q-13 91 -43 147.5t-74.5 87.5t-102.5 41.5t-128 10.5h-267v-590q78 0 130.5 3.5t87 24.5t53.5 65.5t30 125.5h45v-518h-45q-5 82 -24 131t-55 74.5t-91 33.5t-131 9v-633h248q101 0 171 10t117.5 44.5t76.5 101t49 180.5h53
l-27 -383h-1067zM426 1470q-40 0 -67 27t-27 68q0 40 26 69t68 29q20 0 37.5 -8t30.5 -21.5t20.5 -31.5t7.5 -37q0 -20 -8 -37.5t-21 -30.5t-30.5 -20t-36.5 -7zM825 1470q-40 0 -67 27t-27 68q0 40 26 69t68 29q20 0 38 -8t31 -21.5t20.5 -31.5t7.5 -37q0 -20 -8 -37.5
t-21 -30.5t-31 -20t-37 -7z" />
    <glyph glyph-name="uni1EBA" unicode="&#x1eba;" horiz-adv-x="1251" 
d="M61 0v47h181v1274h-181v47h1039v-334h-45q-13 91 -43 147.5t-74.5 87.5t-102.5 41.5t-128 10.5h-267v-590q78 0 130.5 3.5t87 24.5t53.5 65.5t30 125.5h45v-518h-45q-5 82 -24 131t-55 74.5t-91 33.5t-131 9v-633h248q101 0 171 10t117.5 44.5t76.5 101t49 180.5h53
l-27 -383h-1067zM598 1431q-24 47 -20.5 76.5t22.5 49t48.5 32l59 25t53.5 28t32 40.5q8 27 4.5 59t-20 59t-46.5 45.5t-75 18.5q-25 0 -49 -8t-42.5 -19t-29.5 -24.5t-11 -23.5q1 -18 7 -25t15 -8.5t20.5 -0.5t23.5 -1.5t23 -10.5t20 -28q3 -28 -6 -45.5t-23 -26.5
t-32 -10.5t-33 2.5q-35 8 -58 37t-23 70q0 40 18.5 70t46.5 50.5t61 31t63 10.5q45 0 85 -16.5t66.5 -46t36.5 -69.5t-3 -87q-7 -24 -17 -40t-26 -28t-40 -22.5t-60 -23.5q-29 -11 -44 -28.5t-16 -37.5t12 -39.5t40 -34.5h-83z" />
    <glyph glyph-name="uni1EB8" unicode="&#x1eb8;" horiz-adv-x="1251" 
d="M61 0v47h181v1274h-181v47h1039v-334h-45q-13 91 -43 147.5t-74.5 87.5t-102.5 41.5t-128 10.5h-267v-590q78 0 130.5 3.5t87 24.5t53.5 65.5t30 125.5h45v-518h-45q-5 82 -24 131t-55 74.5t-91 33.5t-131 9v-633h248q101 0 171 10t117.5 44.5t76.5 101t49 180.5h53
l-27 -383h-1067zM654 -437q-41 0 -68 27t-27 67t26.5 69t68.5 29q20 0 37.5 -8t30.5 -21.5t20.5 -31.5t7.5 -37q0 -20 -8 -37t-21 -30t-30.5 -20t-36.5 -7z" />
    <glyph glyph-name="Igrave" unicode="&#xcc;" horiz-adv-x="682" 
d="M637 0h-550v47h176v1274h-176v47h550v-47h-176v-1274h176v-47zM443 1434l-272 165q-45 28 -75 51.5t-30 57.5q0 31 20.5 50.5t51.5 19.5q23 0 39.5 -16l31.5 -31l306 -297h-72z" />
    <glyph glyph-name="Iacute" unicode="&#xcd;" horiz-adv-x="682" 
d="M616 0h-550v47h176v1274h-176v47h550v-47h-176v-1274h176v-47zM496 1731l31.5 31t39.5 16q31 0 51.5 -19.5t20.5 -50.5q0 -17 -8 -31t-22 -26.5t-33 -25l-41 -26.5l-273 -165h-72z" />
    <glyph glyph-name="Icircumflex" unicode="&#xce;" horiz-adv-x="682" 
d="M647 0h-550v47h176v1274h-176v47h550v-47h-176v-1274h176v-47zM432 1774l248 -340h-65l-240 215l-240 -215h-69l252 340h114z" />
    <glyph glyph-name="Itilde" unicode="&#x128;" horiz-adv-x="682" 
d="M616 0h-550v47h176v1274h-176v47h550v-47h-176v-1274h176v-47zM680 1692q-9 -40 -27 -77.5t-45 -67t-63.5 -47t-81.5 -17.5q-43 0 -80 14t-71 33l-66.5 32t-64.5 15q-42 0 -72.5 -28t-38.5 -66h-55q7 42 25 78.5t45.5 63.5t64.5 42.5t82 15.5q34 0 68.5 -15t68.5 -32
q35 -18 68.5 -32.5t64.5 -14.5q26 0 44.5 8t32 22t23.5 32.5t19 40.5h59z" />
    <glyph glyph-name="Idieresis" unicode="&#xcf;" horiz-adv-x="682" 
d="M635 0h-550v47h176v1274h-176v47h550v-47h-176v-1274h176v-47zM160 1470q-40 0 -67 27t-27 68q0 40 26 69t68 29q20 0 38 -8t31 -21.5t20.5 -31.5t7.5 -37q0 -20 -8 -37.5t-21 -30.5t-31 -20t-37 -7zM560 1470q-41 0 -68 27t-27 68q0 40 26.5 69t68.5 29q20 0 37.5 -8
t30.5 -21.5t20.5 -31.5t7.5 -37q0 -20 -8 -37.5t-21 -30.5t-30.5 -20t-36.5 -7z" />
    <glyph glyph-name="uni1EC8" unicode="&#x1ec8;" horiz-adv-x="682" 
d="M616 0h-550v47h176v1274h-176v47h550v-47h-176v-1274h176v-47zM261 1431q-24 47 -20.5 76.5t22.5 49t48.5 32l59 25t53.5 28t32 40.5q8 27 4.5 59t-20 59t-46.5 45.5t-75 18.5q-25 0 -49 -8t-42.5 -19t-29.5 -24.5t-11 -23.5q1 -18 7 -25t15 -8.5t20.5 -0.5t23.5 -1.5
t23 -10.5t20 -28q3 -28 -6 -45.5t-23 -26.5t-32 -10.5t-33 2.5q-35 8 -58 37t-23 70q0 40 18.5 70t46.5 50.5t61 31t63 10.5q45 0 85 -16.5t66.5 -46t36.5 -69.5t-3 -87q-7 -24 -17 -40t-26 -28t-40 -22.5t-60 -23.5q-29 -11 -44 -28.5t-16 -37.5t12 -39.5t40 -34.5h-83z
" />
    <glyph glyph-name="uni1ECA" unicode="&#x1eca;" horiz-adv-x="682" 
d="M616 0h-550v47h176v1274h-176v47h550v-47h-176v-1274h176v-47zM347 -437q-41 0 -68 27t-27 67t26.5 69t68.5 29q20 0 37.5 -8t30.5 -21.5t20.5 -31.5t7.5 -37q0 -20 -8 -37t-21 -30t-30.5 -20t-36.5 -7z" />
    <glyph glyph-name="IJ" unicode="&#x132;" horiz-adv-x="682" 
d="M616 0h-550v47h176v1274h-176v47h550v-47h-176v-1274h176v-47zM1263 1368v-47h-172v-1178q0 -75 -29 -136.5t-77 -105t-110.5 -67.5t-129.5 -24q-34 0 -71 11t-68 33t-51.5 55.5t-20.5 78.5q0 55 28.5 89t82.5 34q45 0 75.5 -29t30.5 -76q0 -23 -6 -39t-13.5 -27.5
l-13.5 -20.5t-6 -17q0 -10 7 -16.5t17.5 -10t21.5 -5t20 -1.5q54 0 84.5 38t30.5 95v1319h-183v47h553z" />
    <glyph glyph-name="Ntilde" unicode="&#xd1;" horiz-adv-x="1366" 
d="M238 1321h-160v47h399l582 -991h4v944h-160v47h379v-47h-158v-1352h-53l-768 1311h-4v-1233h158v-47h-379v47h160v1274zM1020 1692q-9 -40 -27.5 -77.5t-45.5 -67t-63 -47t-81 -17.5q-44 0 -81 14t-71 33l-66.5 32t-64.5 15q-42 0 -72 -28t-38 -66h-56q8 42 26 78.5
t45.5 63.5t64 42.5t81.5 15.5q34 0 69 -15t69 -32q35 -18 68.5 -32.5t64.5 -14.5q26 0 44 8t31.5 22t24 32.5t19.5 40.5h59z" />
    <glyph glyph-name="Ograve" unicode="&#xd2;" horiz-adv-x="1366" 
d="M682 -31q-88 0 -166 28t-143 77.5t-117 117.5t-88 147.5t-55 167.5t-19 179t19 179t55 167t88 146.5t117 116.5t143 76.5t166 27.5t166 -27.5t143 -76.5t117 -116.5t88 -146.5t55 -167t19 -179q0 -90 -19 -178.5t-55 -168t-88 -147.5t-117 -117.5t-143 -77.5t-166 -28z
M682 16q106 0 174.5 45t108.5 130.5t55.5 210t15.5 282.5q0 159 -15.5 283t-55.5 209.5t-108.5 130.5t-174.5 45t-174.5 -45t-108.5 -130.5t-55.5 -209.5t-15.5 -283q0 -158 15.5 -282.5t55.5 -210t108.5 -130.5t174.5 -45zM764 1434l-272 165q-45 28 -75 51.5t-30 57.5
q0 31 20.5 50.5t51.5 19.5q23 0 39.5 -16l31.5 -31l306 -297h-72z" />
    <glyph glyph-name="Oacute" unicode="&#xd3;" horiz-adv-x="1366" 
d="M682 -31q-88 0 -166 28t-143 77.5t-117 117.5t-88 147.5t-55 167.5t-19 179t19 179t55 167t88 146.5t117 116.5t143 76.5t166 27.5t166 -27.5t143 -76.5t117 -116.5t88 -146.5t55 -167t19 -179q0 -90 -19 -178.5t-55 -168t-88 -147.5t-117 -117.5t-143 -77.5t-166 -28z
M682 16q106 0 174.5 45t108.5 130.5t55.5 210t15.5 282.5q0 159 -15.5 283t-55.5 209.5t-108.5 130.5t-174.5 45t-174.5 -45t-108.5 -130.5t-55.5 -209.5t-15.5 -283q0 -158 15.5 -282.5t55.5 -210t108.5 -130.5t174.5 -45zM838 1731l31.5 31t39.5 16q31 0 51.5 -19.5
t20.5 -50.5q0 -17 -8 -31t-22 -26.5t-33 -25l-41 -26.5l-273 -165h-72z" />
    <glyph glyph-name="Ocircumflex" unicode="&#xd4;" horiz-adv-x="1366" 
d="M682 -31q-88 0 -166 28t-143 77.5t-117 117.5t-88 147.5t-55 167.5t-19 179t19 179t55 167t88 146.5t117 116.5t143 76.5t166 27.5t166 -27.5t143 -76.5t117 -116.5t88 -146.5t55 -167t19 -179q0 -90 -19 -178.5t-55 -168t-88 -147.5t-117 -117.5t-143 -77.5t-166 -28z
M682 16q106 0 174.5 45t108.5 130.5t55.5 210t15.5 282.5q0 159 -15.5 283t-55.5 209.5t-108.5 130.5t-174.5 45t-174.5 -45t-108.5 -130.5t-55.5 -209.5t-15.5 -283q0 -158 15.5 -282.5t55.5 -210t108.5 -130.5t174.5 -45zM743 1774l248 -340h-65l-240 215l-240 -215h-69
l252 340h114z" />
    <glyph glyph-name="uni1ED2" unicode="&#x1ed2;" horiz-adv-x="1366" 
d="M682 -31q-88 0 -166 28t-143 77.5t-117 117.5t-88 147.5t-55 167.5t-19 179t19 179t55 167t88 146.5t117 116.5t143 76.5t166 27.5t166 -27.5t143 -76.5t117 -116.5t88 -146.5t55 -167t19 -179q0 -90 -19 -178.5t-55 -168t-88 -147.5t-117 -117.5t-143 -77.5t-166 -28z
M682 16q106 0 174.5 45t108.5 130.5t55.5 210t15.5 282.5q0 159 -15.5 283t-55.5 209.5t-108.5 130.5t-174.5 45t-174.5 -45t-108.5 -130.5t-55.5 -209.5t-15.5 -283q0 -158 15.5 -282.5t55.5 -210t108.5 -130.5t174.5 -45zM743 1774l248 -340h-65l-240 215l-240 -215h-69
l252 340h114zM1139 1609l-272 165q-45 28 -75 51.5t-30 57.5q0 31 20.5 50.5t51.5 19.5q23 0 39.5 -16l31.5 -31l306 -297h-72z" />
    <glyph glyph-name="uni1ED0" unicode="&#x1ed0;" horiz-adv-x="1366" 
d="M682 -31q-88 0 -166 28t-143 77.5t-117 117.5t-88 147.5t-55 167.5t-19 179t19 179t55 167t88 146.5t117 116.5t143 76.5t166 27.5t166 -27.5t143 -76.5t117 -116.5t88 -146.5t55 -167t19 -179q0 -90 -19 -178.5t-55 -168t-88 -147.5t-117 -117.5t-143 -77.5t-166 -28z
M682 16q106 0 174.5 45t108.5 130.5t55.5 210t15.5 282.5q0 159 -15.5 283t-55.5 209.5t-108.5 130.5t-174.5 45t-174.5 -45t-108.5 -130.5t-55.5 -209.5t-15.5 -283q0 -158 15.5 -282.5t55.5 -210t108.5 -130.5t174.5 -45zM743 1774l248 -340h-65l-240 215l-240 -215h-69
l252 340h114zM1221 1906l31.5 31t39.5 16q31 0 51.5 -19.5t20.5 -50.5q0 -17 -8 -31t-22 -26.5t-33 -25l-41 -26.5l-273 -165h-72z" />
    <glyph glyph-name="uni1ED6" unicode="&#x1ed6;" horiz-adv-x="1366" 
d="M682 -31q-88 0 -166 28t-143 77.5t-117 117.5t-88 147.5t-55 167.5t-19 179t19 179t55 167t88 146.5t117 116.5t143 76.5t166 27.5t166 -27.5t143 -76.5t117 -116.5t88 -146.5t55 -167t19 -179q0 -90 -19 -178.5t-55 -168t-88 -147.5t-117 -117.5t-143 -77.5t-166 -28z
M682 16q106 0 174.5 45t108.5 130.5t55.5 210t15.5 282.5q0 159 -15.5 283t-55.5 209.5t-108.5 130.5t-174.5 45t-174.5 -45t-108.5 -130.5t-55.5 -209.5t-15.5 -283q0 -158 15.5 -282.5t55.5 -210t108.5 -130.5t174.5 -45zM743 1774l248 -340h-65l-240 215l-240 -215h-69
l252 340h114zM1034 2038q-9 -40 -27 -77.5t-45 -67t-63.5 -47t-81.5 -17.5q-43 0 -80 14t-71 33l-66.5 32t-64.5 15q-42 0 -72.5 -28t-38.5 -66h-55q7 42 25 78.5t45.5 63.5t64.5 42.5t82 15.5q34 0 68.5 -15t68.5 -32q35 -18 68.5 -32.5t64.5 -14.5q26 0 44.5 8t32 22
t23.5 32.5t19 40.5h59z" />
    <glyph glyph-name="uni1ED4" unicode="&#x1ed4;" horiz-adv-x="1366" 
d="M682 -31q-88 0 -166 28t-143 77.5t-117 117.5t-88 147.5t-55 167.5t-19 179t19 179t55 167t88 146.5t117 116.5t143 76.5t166 27.5t166 -27.5t143 -76.5t117 -116.5t88 -146.5t55 -167t19 -179q0 -90 -19 -178.5t-55 -168t-88 -147.5t-117 -117.5t-143 -77.5t-166 -28z
M682 16q106 0 174.5 45t108.5 130.5t55.5 210t15.5 282.5q0 159 -15.5 283t-55.5 209.5t-108.5 130.5t-174.5 45t-174.5 -45t-108.5 -130.5t-55.5 -209.5t-15.5 -283q0 -158 15.5 -282.5t55.5 -210t108.5 -130.5t174.5 -45zM743 1774l248 -340h-65l-240 215l-240 -215h-69
l252 340h114zM909 1614q-24 47 -20.5 76.5t22.5 49t48.5 32l59 25t53.5 28t32 40.5q8 27 4.5 59t-20 59t-46.5 45.5t-75 18.5q-25 0 -49 -8t-42.5 -19t-29.5 -24.5t-11 -23.5q1 -18 7 -25t15 -8.5t20.5 -0.5t23.5 -1.5t23 -10.5t20 -28q3 -28 -6 -45.5t-23 -26.5t-32 -10.5
t-33 2.5q-35 8 -58 37t-23 70q0 40 18.5 70t46.5 50.5t61 31t63 10.5q45 0 85 -16.5t66.5 -46t36.5 -69.5t-3 -87q-7 -24 -17 -40t-26 -28t-40 -22.5t-60 -23.5q-29 -11 -44 -28.5t-16 -37.5t12 -39.5t40 -34.5h-83z" />
    <glyph glyph-name="uni1ED8" unicode="&#x1ed8;" horiz-adv-x="1366" 
d="M682 -31q-88 0 -166 28t-143 77.5t-117 117.5t-88 147.5t-55 167.5t-19 179t19 179t55 167t88 146.5t117 116.5t143 76.5t166 27.5t166 -27.5t143 -76.5t117 -116.5t88 -146.5t55 -167t19 -179q0 -90 -19 -178.5t-55 -168t-88 -147.5t-117 -117.5t-143 -77.5t-166 -28z
M682 16q106 0 174.5 45t108.5 130.5t55.5 210t15.5 282.5q0 159 -15.5 283t-55.5 209.5t-108.5 130.5t-174.5 45t-174.5 -45t-108.5 -130.5t-55.5 -209.5t-15.5 -283q0 -158 15.5 -282.5t55.5 -210t108.5 -130.5t174.5 -45zM743 1774l248 -340h-65l-240 215l-240 -215h-69
l252 340h114zM686 -437q-41 0 -68 27t-27 67t26.5 69t68.5 29q20 0 37.5 -8t30.5 -21.5t20.5 -31.5t7.5 -37q0 -20 -8 -37t-21 -30t-30.5 -20t-36.5 -7z" />
    <glyph glyph-name="Otilde" unicode="&#xd5;" horiz-adv-x="1366" 
d="M682 -31q-88 0 -166 28t-143 77.5t-117 117.5t-88 147.5t-55 167.5t-19 179t19 179t55 167t88 146.5t117 116.5t143 76.5t166 27.5t166 -27.5t143 -76.5t117 -116.5t88 -146.5t55 -167t19 -179q0 -90 -19 -178.5t-55 -168t-88 -147.5t-117 -117.5t-143 -77.5t-166 -28z
M682 16q106 0 174.5 45t108.5 130.5t55.5 210t15.5 282.5q0 159 -15.5 283t-55.5 209.5t-108.5 130.5t-174.5 45t-174.5 -45t-108.5 -130.5t-55.5 -209.5t-15.5 -283q0 -158 15.5 -282.5t55.5 -210t108.5 -130.5t174.5 -45zM1020 1692q-9 -40 -27.5 -77.5t-45.5 -67t-63 -47
t-81 -17.5q-44 0 -81 14t-71 33l-66.5 32t-64.5 15q-42 0 -72 -28t-38 -66h-56q8 42 26 78.5t45.5 63.5t64 42.5t81.5 15.5q34 0 69 -15t69 -32q35 -18 68.5 -32.5t64.5 -14.5q26 0 44 8t31.5 22t24 32.5t19.5 40.5h59z" />
    <glyph glyph-name="Odieresis" unicode="&#xd6;" horiz-adv-x="1366" 
d="M682 -31q-88 0 -166 28t-143 77.5t-117 117.5t-88 147.5t-55 167.5t-19 179t19 179t55 167t88 146.5t117 116.5t143 76.5t166 27.5t166 -27.5t143 -76.5t117 -116.5t88 -146.5t55 -167t19 -179q0 -90 -19 -178.5t-55 -168t-88 -147.5t-117 -117.5t-143 -77.5t-166 -28z
M682 16q106 0 174.5 45t108.5 130.5t55.5 210t15.5 282.5q0 159 -15.5 283t-55.5 209.5t-108.5 130.5t-174.5 45t-174.5 -45t-108.5 -130.5t-55.5 -209.5t-15.5 -283q0 -158 15.5 -282.5t55.5 -210t108.5 -130.5t174.5 -45zM483 1470q-40 0 -67 27t-27 68q0 40 26 69t68 29
q20 0 38 -8t31 -21.5t20.5 -31.5t7.5 -37q0 -20 -8 -37.5t-21 -30.5t-31 -20t-37 -7zM883 1470q-41 0 -68 27t-27 68q0 40 26.5 69t68.5 29q20 0 37.5 -8t30.5 -21.5t20.5 -31.5t7.5 -37q0 -20 -8 -37.5t-21 -30.5t-30.5 -20t-36.5 -7z" />
    <glyph glyph-name="uni1ECE" unicode="&#x1ece;" horiz-adv-x="1366" 
d="M682 -31q-88 0 -166 28t-143 77.5t-117 117.5t-88 147.5t-55 167.5t-19 179t19 179t55 167t88 146.5t117 116.5t143 76.5t166 27.5t166 -27.5t143 -76.5t117 -116.5t88 -146.5t55 -167t19 -179q0 -90 -19 -178.5t-55 -168t-88 -147.5t-117 -117.5t-143 -77.5t-166 -28z
M682 16q106 0 174.5 45t108.5 130.5t55.5 210t15.5 282.5q0 159 -15.5 283t-55.5 209.5t-108.5 130.5t-174.5 45t-174.5 -45t-108.5 -130.5t-55.5 -209.5t-15.5 -283q0 -158 15.5 -282.5t55.5 -210t108.5 -130.5t174.5 -45zM642 1431q-24 47 -20.5 76.5t22.5 49t48.5 32
l59 25t53.5 28t32 40.5q8 27 4.5 59t-20 59t-46.5 45.5t-75 18.5q-25 0 -49 -8t-42.5 -19t-29.5 -24.5t-11 -23.5q1 -18 7 -25t15 -8.5t20.5 -0.5t23.5 -1.5t23 -10.5t20 -28q3 -28 -6 -45.5t-23 -26.5t-32 -10.5t-33 2.5q-35 8 -58 37t-23 70q0 40 18.5 70t46.5 50.5t61 31
t63 10.5q45 0 85 -16.5t66.5 -46t36.5 -69.5t-3 -87q-7 -24 -17 -40t-26 -28t-40 -22.5t-60 -23.5q-29 -11 -44 -28.5t-16 -37.5t12 -39.5t40 -34.5h-83z" />
    <glyph glyph-name="uni1ECC" unicode="&#x1ecc;" horiz-adv-x="1366" 
d="M682 -31q-88 0 -166 28t-143 77.5t-117 117.5t-88 147.5t-55 167.5t-19 179t19 179t55 167t88 146.5t117 116.5t143 76.5t166 27.5t166 -27.5t143 -76.5t117 -116.5t88 -146.5t55 -167t19 -179q0 -90 -19 -178.5t-55 -168t-88 -147.5t-117 -117.5t-143 -77.5t-166 -28z
M682 16q106 0 174.5 45t108.5 130.5t55.5 210t15.5 282.5q0 159 -15.5 283t-55.5 209.5t-108.5 130.5t-174.5 45t-174.5 -45t-108.5 -130.5t-55.5 -209.5t-15.5 -283q0 -158 15.5 -282.5t55.5 -210t108.5 -130.5t174.5 -45zM690 -437q-41 0 -68 27t-27 67t26.5 69t68.5 29
q20 0 37.5 -8t30.5 -21.5t20.5 -31.5t7.5 -37q0 -20 -8 -37t-21 -30t-30.5 -20t-36.5 -7z" />
    <glyph glyph-name="Ohorn" unicode="&#x1a0;" horiz-adv-x="1380" 
d="M682 -31q-88 0 -166 28t-143 77.5t-117 117.5t-88 147.5t-55 167.5t-19 179t19 179t55 167t88 146.5t117 116.5t143 76.5t166 27.5q125 0 228.5 -54t179.5 -145q46 17 81 33.5t59.5 34.5t40 37.5t23.5 42.5q7 18 9 28.5t1.5 16t-4 7.5t-6.5 3q-5 2 -12.5 -3.5t-20 -11.5
t-31 -7.5t-44.5 8.5q-17 6 -31 18t-22 29t-8.5 38t8.5 46q8 22 24.5 37.5t37.5 23t44.5 7.5t44.5 -9q62 -25 86 -81.5t-8 -139.5q-15 -37 -41 -66.5t-59 -53t-71 -41.5t-77 -30q74 -99 115 -223.5t41 -257.5q0 -90 -19 -178.5t-55 -168t-88 -147.5t-117 -117.5t-143 -77.5
t-166 -28zM682 16q106 0 174.5 45t108.5 130.5t55.5 210t15.5 282.5q0 159 -15.5 283t-55.5 209.5t-108.5 130.5t-174.5 45t-174.5 -45t-108.5 -130.5t-55.5 -209.5t-15.5 -283q0 -158 15.5 -282.5t55.5 -210t108.5 -130.5t174.5 -45z" />
    <glyph glyph-name="uni1EDC" unicode="&#x1edc;" horiz-adv-x="1380" 
d="M682 -31q-88 0 -166 28t-143 77.5t-117 117.5t-88 147.5t-55 167.5t-19 179t19 179t55 167t88 146.5t117 116.5t143 76.5t166 27.5q125 0 228.5 -54t179.5 -145q46 17 81 33.5t59.5 34.5t40 37.5t23.5 42.5q7 18 9 28.5t1.5 16t-4 7.5t-6.5 3q-5 2 -12.5 -3.5t-20 -11.5
t-31 -7.5t-44.5 8.5q-17 6 -31 18t-22 29t-8.5 38t8.5 46q8 22 24.5 37.5t37.5 23t44.5 7.5t44.5 -9q62 -25 86 -81.5t-8 -139.5q-15 -37 -41 -66.5t-59 -53t-71 -41.5t-77 -30q74 -99 115 -223.5t41 -257.5q0 -90 -19 -178.5t-55 -168t-88 -147.5t-117 -117.5t-143 -77.5
t-166 -28zM682 16q106 0 174.5 45t108.5 130.5t55.5 210t15.5 282.5q0 159 -15.5 283t-55.5 209.5t-108.5 130.5t-174.5 45t-174.5 -45t-108.5 -130.5t-55.5 -209.5t-15.5 -283q0 -158 15.5 -282.5t55.5 -210t108.5 -130.5t174.5 -45zM800 1434l-272 165q-45 28 -75 51.5
t-30 57.5q0 31 20.5 50.5t51.5 19.5q23 0 39.5 -16l31.5 -31l306 -297h-72z" />
    <glyph glyph-name="uni1EDA" unicode="&#x1eda;" horiz-adv-x="1380" 
d="M682 -31q-88 0 -166 28t-143 77.5t-117 117.5t-88 147.5t-55 167.5t-19 179t19 179t55 167t88 146.5t117 116.5t143 76.5t166 27.5q125 0 228.5 -54t179.5 -145q46 17 81 33.5t59.5 34.5t40 37.5t23.5 42.5q7 18 9 28.5t1.5 16t-4 7.5t-6.5 3q-5 2 -12.5 -3.5t-20 -11.5
t-31 -7.5t-44.5 8.5q-17 6 -31 18t-22 29t-8.5 38t8.5 46q8 22 24.5 37.5t37.5 23t44.5 7.5t44.5 -9q62 -25 86 -81.5t-8 -139.5q-15 -37 -41 -66.5t-59 -53t-71 -41.5t-77 -30q74 -99 115 -223.5t41 -257.5q0 -90 -19 -178.5t-55 -168t-88 -147.5t-117 -117.5t-143 -77.5
t-166 -28zM682 16q106 0 174.5 45t108.5 130.5t55.5 210t15.5 282.5q0 159 -15.5 283t-55.5 209.5t-108.5 130.5t-174.5 45t-174.5 -45t-108.5 -130.5t-55.5 -209.5t-15.5 -283q0 -158 15.5 -282.5t55.5 -210t108.5 -130.5t174.5 -45zM875 1731l31.5 31t39.5 16
q31 0 51.5 -19.5t20.5 -50.5q0 -17 -8 -31t-22 -26.5t-33 -25l-41 -26.5l-273 -165h-72z" />
    <glyph glyph-name="uni1EE0" unicode="&#x1ee0;" horiz-adv-x="1380" 
d="M682 -31q-88 0 -166 28t-143 77.5t-117 117.5t-88 147.5t-55 167.5t-19 179t19 179t55 167t88 146.5t117 116.5t143 76.5t166 27.5q125 0 228.5 -54t179.5 -145q46 17 81 33.5t59.5 34.5t40 37.5t23.5 42.5q7 18 9 28.5t1.5 16t-4 7.5t-6.5 3q-5 2 -12.5 -3.5t-20 -11.5
t-31 -7.5t-44.5 8.5q-17 6 -31 18t-22 29t-8.5 38t8.5 46q8 22 24.5 37.5t37.5 23t44.5 7.5t44.5 -9q62 -25 86 -81.5t-8 -139.5q-15 -37 -41 -66.5t-59 -53t-71 -41.5t-77 -30q74 -99 115 -223.5t41 -257.5q0 -90 -19 -178.5t-55 -168t-88 -147.5t-117 -117.5t-143 -77.5
t-166 -28zM682 16q106 0 174.5 45t108.5 130.5t55.5 210t15.5 282.5q0 159 -15.5 283t-55.5 209.5t-108.5 130.5t-174.5 45t-174.5 -45t-108.5 -130.5t-55.5 -209.5t-15.5 -283q0 -158 15.5 -282.5t55.5 -210t108.5 -130.5t174.5 -45zM1067 1692q-9 -40 -27 -77.5t-45 -67
t-63.5 -47t-81.5 -17.5q-43 0 -80 14t-71 33l-66.5 32t-64.5 15q-42 0 -72.5 -28t-38.5 -66h-55q7 42 25 78.5t45.5 63.5t64.5 42.5t82 15.5q34 0 68.5 -15t68.5 -32q35 -18 68.5 -32.5t64.5 -14.5q26 0 44.5 8t32 22t23.5 32.5t19 40.5h59z" />
    <glyph glyph-name="uni1EDE" unicode="&#x1ede;" horiz-adv-x="1380" 
d="M682 -31q-88 0 -166 28t-143 77.5t-117 117.5t-88 147.5t-55 167.5t-19 179t19 179t55 167t88 146.5t117 116.5t143 76.5t166 27.5q125 0 228.5 -54t179.5 -145q46 17 81 33.5t59.5 34.5t40 37.5t23.5 42.5q7 18 9 28.5t1.5 16t-4 7.5t-6.5 3q-5 2 -12.5 -3.5t-20 -11.5
t-31 -7.5t-44.5 8.5q-17 6 -31 18t-22 29t-8.5 38t8.5 46q8 22 24.5 37.5t37.5 23t44.5 7.5t44.5 -9q62 -25 86 -81.5t-8 -139.5q-15 -37 -41 -66.5t-59 -53t-71 -41.5t-77 -30q74 -99 115 -223.5t41 -257.5q0 -90 -19 -178.5t-55 -168t-88 -147.5t-117 -117.5t-143 -77.5
t-166 -28zM682 16q106 0 174.5 45t108.5 130.5t55.5 210t15.5 282.5q0 159 -15.5 283t-55.5 209.5t-108.5 130.5t-174.5 45t-174.5 -45t-108.5 -130.5t-55.5 -209.5t-15.5 -283q0 -158 15.5 -282.5t55.5 -210t108.5 -130.5t174.5 -45zM686 1431q-24 47 -20.5 76.5t22.5 49
t48.5 32l59 25t53.5 28t32 40.5q8 27 4.5 59t-20 59t-46.5 45.5t-75 18.5q-25 0 -49 -8t-42.5 -19t-29.5 -24.5t-11 -23.5q1 -18 7 -25t15 -8.5t20.5 -0.5t23.5 -1.5t23 -10.5t20 -28q3 -28 -6 -45.5t-23 -26.5t-32 -10.5t-33 2.5q-35 8 -58 37t-23 70q0 40 18.5 70
t46.5 50.5t61 31t63 10.5q45 0 85 -16.5t66.5 -46t36.5 -69.5t-3 -87q-7 -24 -17 -40t-26 -28t-40 -22.5t-60 -23.5q-29 -11 -44 -28.5t-16 -37.5t12 -39.5t40 -34.5h-83z" />
    <glyph glyph-name="uni1EE2" unicode="&#x1ee2;" horiz-adv-x="1380" 
d="M682 -31q-88 0 -166 28t-143 77.5t-117 117.5t-88 147.5t-55 167.5t-19 179t19 179t55 167t88 146.5t117 116.5t143 76.5t166 27.5q125 0 228.5 -54t179.5 -145q46 17 81 33.5t59.5 34.5t40 37.5t23.5 42.5q7 18 9 28.5t1.5 16t-4 7.5t-6.5 3q-5 2 -12.5 -3.5t-20 -11.5
t-31 -7.5t-44.5 8.5q-17 6 -31 18t-22 29t-8.5 38t8.5 46q8 22 24.5 37.5t37.5 23t44.5 7.5t44.5 -9q62 -25 86 -81.5t-8 -139.5q-15 -37 -41 -66.5t-59 -53t-71 -41.5t-77 -30q74 -99 115 -223.5t41 -257.5q0 -90 -19 -178.5t-55 -168t-88 -147.5t-117 -117.5t-143 -77.5
t-166 -28zM682 16q106 0 174.5 45t108.5 130.5t55.5 210t15.5 282.5q0 159 -15.5 283t-55.5 209.5t-108.5 130.5t-174.5 45t-174.5 -45t-108.5 -130.5t-55.5 -209.5t-15.5 -283q0 -158 15.5 -282.5t55.5 -210t108.5 -130.5t174.5 -45zM654 -437q-41 0 -68 27t-27 67t26.5 69
t68.5 29q20 0 37.5 -8t30.5 -21.5t20.5 -31.5t7.5 -37q0 -20 -8 -37t-21 -30t-30.5 -20t-36.5 -7z" />
    <glyph glyph-name="Oslash" unicode="&#xd8;" horiz-adv-x="1366" 
d="M414 166q40 -74 105.5 -112t162.5 -38q106 0 174.5 45t108.5 130.5t55.5 210t15.5 282.5q0 133 -10.5 242t-38.5 190zM950 1204q-40 72 -105.5 110t-162.5 38q-106 0 -174.5 -45t-108.5 -130.5t-55.5 -209.5t-15.5 -283q0 -134 10.5 -241.5t38.5 -188.5zM1217 1501
l-158 -264q50 -51 89 -114.5t66 -134t41.5 -147.5t14.5 -155q0 -90 -19 -178.5t-55 -168t-88 -147.5t-117 -117.5t-143 -77.5t-166 -28q-90 0 -169.5 29.5t-147.5 85.5l-129 -215h-91l160 266q-49 50 -88 113t-66.5 134t-42 148.5t-14.5 155.5q0 91 19 179t55 167t88 146.5
t117 116.5t143 76.5t166 27.5q93 0 172 -30t145 -81l127 213h91z" />
    <glyph glyph-name="OE" unicode="&#x152;" horiz-adv-x="1933" 
d="M1737 1034q-14 97 -46 154.5t-78 86.5t-103.5 37.5t-123.5 8.5h-264v-590q78 0 130.5 3.5t86.5 24.5t53.5 65.5t30.5 125.5h45v-518h-45q-5 82 -24.5 131t-55.5 74.5t-90.5 33.5t-130.5 9v-633h246q102 0 172 10t117 44.5t76 101t49 180.5h55l-29 -383h-1181
q-76 0 -145 23t-128 65.5t-107 103t-82 135t-52.5 161t-18.5 182.5q0 128 26 230t70 179.5t101 132.5t118 89.5t123 50.5t115 16h1139v-334h-49zM928 897q0 96 -10 174t-40.5 133.5t-86.5 86t-148 30.5q-30 0 -64 -7t-66.5 -21t-61.5 -36t-48 -53q-4 -5 -16 -29.5t-25 -78.5
t-23.5 -142t-10.5 -221q0 -174 9.5 -303t42 -214t95 -127t168.5 -42q91 0 147 30.5t87 86t41 132.5t10 171v430z" />
    <glyph glyph-name="Ugrave" unicode="&#xd9;" horiz-adv-x="1366" 
d="M592 1368v-47h-160v-1016q0 -12 4 -36.5t15 -54t30.5 -61t51.5 -57.5t77 -42.5t107 -16.5q115 0 183.5 37t104.5 101t47 149.5t11 183.5v813h-158v47h371v-47h-158v-877q0 -241 -109 -358t-341 -117q-99 0 -179.5 26.5t-137.5 75t-87.5 118t-30.5 155.5v977h-157v47h516z
M764 1434l-272 165q-45 28 -75 51.5t-30 57.5q0 31 20.5 50.5t51.5 19.5q23 0 39.5 -16l31.5 -31l306 -297h-72z" />
    <glyph glyph-name="Uacute" unicode="&#xda;" horiz-adv-x="1366" 
d="M592 1368v-47h-160v-1016q0 -12 4 -36.5t15 -54t30.5 -61t51.5 -57.5t77 -42.5t107 -16.5q115 0 183.5 37t104.5 101t47 149.5t11 183.5v813h-158v47h371v-47h-158v-877q0 -241 -109 -358t-341 -117q-99 0 -179.5 26.5t-137.5 75t-87.5 118t-30.5 155.5v977h-157v47h516z
M879 1731l31.5 31t39.5 16q31 0 51.5 -19.5t20.5 -50.5q0 -17 -8 -31t-22 -26.5t-33 -25l-41 -26.5l-273 -165h-72z" />
    <glyph glyph-name="Ucircumflex" unicode="&#xdb;" horiz-adv-x="1366" 
d="M592 1368v-47h-160v-1016q0 -12 4 -36.5t15 -54t30.5 -61t51.5 -57.5t77 -42.5t107 -16.5q115 0 183.5 37t104.5 101t47 149.5t11 183.5v813h-158v47h371v-47h-158v-877q0 -241 -109 -358t-341 -117q-99 0 -179.5 26.5t-137.5 75t-87.5 118t-30.5 155.5v977h-157v47h516z
M743 1774l248 -340h-65l-240 215l-240 -215h-69l252 340h114z" />
    <glyph glyph-name="Utilde" unicode="&#x168;" horiz-adv-x="1366" 
d="M592 1368v-47h-160v-1016q0 -12 4 -36.5t15 -54t30.5 -61t51.5 -57.5t77 -42.5t107 -16.5q115 0 183.5 37t104.5 101t47 149.5t11 183.5v813h-158v47h371v-47h-158v-877q0 -241 -109 -358t-341 -117q-99 0 -179.5 26.5t-137.5 75t-87.5 118t-30.5 155.5v977h-157v47h516z
M1055 1692q-9 -40 -27 -77.5t-45 -67t-63.5 -47t-81.5 -17.5q-43 0 -80 14t-71 33l-66.5 32t-64.5 15q-42 0 -72.5 -28t-38.5 -66h-55q7 42 25 78.5t45.5 63.5t64.5 42.5t82 15.5q34 0 68.5 -15t68.5 -32q35 -18 68.5 -32.5t64.5 -14.5q26 0 44.5 8t32 22t23.5 32.5t19 40.5
h59z" />
    <glyph glyph-name="Udieresis" unicode="&#xdc;" horiz-adv-x="1366" 
d="M592 1368v-47h-160v-1016q0 -12 4 -36.5t15 -54t30.5 -61t51.5 -57.5t77 -42.5t107 -16.5q115 0 183.5 37t104.5 101t47 149.5t11 183.5v813h-158v47h371v-47h-158v-877q0 -241 -109 -358t-341 -117q-99 0 -179.5 26.5t-137.5 75t-87.5 118t-30.5 155.5v977h-157v47h516z
M483 1470q-40 0 -67 27t-27 68q0 40 26 69t68 29q20 0 38 -8t31 -21.5t20.5 -31.5t7.5 -37q0 -20 -8 -37.5t-21 -30.5t-31 -20t-37 -7zM883 1470q-41 0 -68 27t-27 68q0 40 26.5 69t68.5 29q20 0 37.5 -8t30.5 -21.5t20.5 -31.5t7.5 -37q0 -20 -8 -37.5t-21 -30.5t-30.5 -20
t-36.5 -7z" />
    <glyph glyph-name="uni1EE6" unicode="&#x1ee6;" horiz-adv-x="1366" 
d="M592 1368v-47h-160v-1016q0 -12 4 -36.5t15 -54t30.5 -61t51.5 -57.5t77 -42.5t107 -16.5q115 0 183.5 37t104.5 101t47 149.5t11 183.5v813h-158v47h371v-47h-158v-877q0 -241 -109 -358t-341 -117q-99 0 -179.5 26.5t-137.5 75t-87.5 118t-30.5 155.5v977h-157v47h516z
M643 1431q-23 47 -20 76.5t22 49t48.5 32l59 25t53.5 28t32 40.5q8 27 4.5 59t-20 59t-46.5 45.5t-75 18.5q-25 0 -49 -8t-42.5 -19t-29.5 -24.5t-11 -23.5q1 -18 7 -25t15 -8.5t20.5 -0.5t23.5 -1.5t23 -10.5t20 -28q3 -28 -6 -45.5t-23 -26.5t-32 -10.5t-33 2.5
q-35 8 -58 37t-23 70q0 40 18.5 70t46.5 50.5t61 31t63 10.5q45 0 85 -16.5t66.5 -46t36.5 -69.5t-3 -87q-7 -24 -17 -40t-26 -28t-40 -22.5t-60 -23.5q-29 -11 -44 -28.5t-16 -37.5t12 -39.5t40 -34.5h-83z" />
    <glyph glyph-name="uni1EE4" unicode="&#x1ee4;" horiz-adv-x="1366" 
d="M592 1368v-47h-160v-1016q0 -12 4 -36.5t15 -54t30.5 -61t51.5 -57.5t77 -42.5t107 -16.5q115 0 183.5 37t104.5 101t47 149.5t11 183.5v813h-158v47h371v-47h-158v-877q0 -241 -109 -358t-341 -117q-99 0 -179.5 26.5t-137.5 75t-87.5 118t-30.5 155.5v977h-157v47h516z
M717 -437q-41 0 -68 27t-27 67t26.5 69t68.5 29q20 0 37.5 -8t30.5 -21.5t20.5 -31.5t7.5 -37q0 -20 -8 -37t-21 -30t-30.5 -20t-36.5 -7z" />
    <glyph glyph-name="Uhorn" unicode="&#x1af;" horiz-adv-x="1401" 
d="M592 1368v-47h-160v-1016q0 -12 4 -36.5t15 -54t30.5 -61t51.5 -57.5t77 -42.5t107 -16.5q115 0 183.5 37t104.5 101t47 149.5t11 183.5v813h-158v47h213v-166q89 34 134.5 68t62.5 78q7 18 9 28.5t1 16t-4 7.5t-6 3q-5 2 -12.5 -3.5t-20.5 -11.5t-31.5 -7.5t-44.5 8.5
q-17 6 -31 18t-22 29t-8.5 38t8.5 46q9 22 25.5 37.5t37.5 23t44 7.5t45 -9q61 -25 85 -81.5t-8 -139.5q-15 -39 -43.5 -70t-64 -55t-76 -41.5t-80.5 -28.5v-719q0 -241 -109 -358t-341 -117q-99 0 -179.5 26.5t-137.5 75t-87.5 118t-30.5 155.5v977h-157v47h516z" />
    <glyph glyph-name="uni1EEA" unicode="&#x1eea;" horiz-adv-x="1401" 
d="M592 1368v-47h-160v-1016q0 -12 4 -36.5t15 -54t30.5 -61t51.5 -57.5t77 -42.5t107 -16.5q115 0 183.5 37t104.5 101t47 149.5t11 183.5v813h-158v47h213v-166q89 34 134.5 68t62.5 78q7 18 9 28.5t1 16t-4 7.5t-6 3q-5 2 -12.5 -3.5t-20.5 -11.5t-31.5 -7.5t-44.5 8.5
q-17 6 -31 18t-22 29t-8.5 38t8.5 46q9 22 25.5 37.5t37.5 23t44 7.5t45 -9q61 -25 85 -81.5t-8 -139.5q-15 -39 -43.5 -70t-64 -55t-76 -41.5t-80.5 -28.5v-719q0 -241 -109 -358t-341 -117q-99 0 -179.5 26.5t-137.5 75t-87.5 118t-30.5 155.5v977h-157v47h516zM800 1434
l-272 165q-45 28 -75 51.5t-30 57.5q0 31 20.5 50.5t51.5 19.5q23 0 39.5 -16l31.5 -31l306 -297h-72z" />
    <glyph glyph-name="uni1EE8" unicode="&#x1ee8;" horiz-adv-x="1401" 
d="M592 1368v-47h-160v-1016q0 -12 4 -36.5t15 -54t30.5 -61t51.5 -57.5t77 -42.5t107 -16.5q115 0 183.5 37t104.5 101t47 149.5t11 183.5v813h-158v47h213v-166q89 34 134.5 68t62.5 78q7 18 9 28.5t1 16t-4 7.5t-6 3q-5 2 -12.5 -3.5t-20.5 -11.5t-31.5 -7.5t-44.5 8.5
q-17 6 -31 18t-22 29t-8.5 38t8.5 46q9 22 25.5 37.5t37.5 23t44 7.5t45 -9q61 -25 85 -81.5t-8 -139.5q-15 -39 -43.5 -70t-64 -55t-76 -41.5t-80.5 -28.5v-719q0 -241 -109 -358t-341 -117q-99 0 -179.5 26.5t-137.5 75t-87.5 118t-30.5 155.5v977h-157v47h516zM875 1731
l31.5 31t39.5 16q31 0 51.5 -19.5t20.5 -50.5q0 -17 -8 -31t-22 -26.5t-33 -25l-41 -26.5l-273 -165h-72z" />
    <glyph glyph-name="uni1EEE" unicode="&#x1eee;" horiz-adv-x="1401" 
d="M592 1368v-47h-160v-1016q0 -12 4 -36.5t15 -54t30.5 -61t51.5 -57.5t77 -42.5t107 -16.5q115 0 183.5 37t104.5 101t47 149.5t11 183.5v813h-158v47h213v-166q89 34 134.5 68t62.5 78q7 18 9 28.5t1 16t-4 7.5t-6 3q-5 2 -12.5 -3.5t-20.5 -11.5t-31.5 -7.5t-44.5 8.5
q-17 6 -31 18t-22 29t-8.5 38t8.5 46q9 22 25.5 37.5t37.5 23t44 7.5t45 -9q61 -25 85 -81.5t-8 -139.5q-15 -39 -43.5 -70t-64 -55t-76 -41.5t-80.5 -28.5v-719q0 -241 -109 -358t-341 -117q-99 0 -179.5 26.5t-137.5 75t-87.5 118t-30.5 155.5v977h-157v47h516zM1067 1692
q-9 -40 -27 -77.5t-45 -67t-63.5 -47t-81.5 -17.5q-43 0 -80 14t-71 33l-66.5 32t-64.5 15q-42 0 -72.5 -28t-38.5 -66h-55q7 42 25 78.5t45.5 63.5t64.5 42.5t82 15.5q34 0 68.5 -15t68.5 -32q35 -18 68.5 -32.5t64.5 -14.5q26 0 44.5 8t32 22t23.5 32.5t19 40.5h59z" />
    <glyph glyph-name="uni1EEC" unicode="&#x1eec;" horiz-adv-x="1401" 
d="M592 1368v-47h-160v-1016q0 -12 4 -36.5t15 -54t30.5 -61t51.5 -57.5t77 -42.5t107 -16.5q115 0 183.5 37t104.5 101t47 149.5t11 183.5v813h-158v47h213v-166q89 34 134.5 68t62.5 78q7 18 9 28.5t1 16t-4 7.5t-6 3q-5 2 -12.5 -3.5t-20.5 -11.5t-31.5 -7.5t-44.5 8.5
q-17 6 -31 18t-22 29t-8.5 38t8.5 46q9 22 25.5 37.5t37.5 23t44 7.5t45 -9q61 -25 85 -81.5t-8 -139.5q-15 -39 -43.5 -70t-64 -55t-76 -41.5t-80.5 -28.5v-719q0 -241 -109 -358t-341 -117q-99 0 -179.5 26.5t-137.5 75t-87.5 118t-30.5 155.5v977h-157v47h516zM643 1431
q-23 47 -20 76.5t22 49t48.5 32l59 25t53.5 28t32 40.5q8 27 4.5 59t-20 59t-46.5 45.5t-75 18.5q-25 0 -49 -8t-42.5 -19t-29.5 -24.5t-11 -23.5q1 -18 7 -25t15 -8.5t20.5 -0.5t23.5 -1.5t23 -10.5t20 -28q3 -28 -6 -45.5t-23 -26.5t-32 -10.5t-33 2.5q-35 8 -58 37
t-23 70q0 40 18.5 70t46.5 50.5t61 31t63 10.5q45 0 85 -16.5t66.5 -46t36.5 -69.5t-3 -87q-7 -24 -17 -40t-26 -28t-40 -22.5t-60 -23.5q-29 -11 -44 -28.5t-16 -37.5t12 -39.5t40 -34.5h-83z" />
    <glyph glyph-name="uni1EF0" unicode="&#x1ef0;" horiz-adv-x="1401" 
d="M592 1368v-47h-160v-1016q0 -12 4 -36.5t15 -54t30.5 -61t51.5 -57.5t77 -42.5t107 -16.5q115 0 183.5 37t104.5 101t47 149.5t11 183.5v813h-158v47h213v-166q89 34 134.5 68t62.5 78q7 18 9 28.5t1 16t-4 7.5t-6 3q-5 2 -12.5 -3.5t-20.5 -11.5t-31.5 -7.5t-44.5 8.5
q-17 6 -31 18t-22 29t-8.5 38t8.5 46q9 22 25.5 37.5t37.5 23t44 7.5t45 -9q61 -25 85 -81.5t-8 -139.5q-15 -39 -43.5 -70t-64 -55t-76 -41.5t-80.5 -28.5v-719q0 -241 -109 -358t-341 -117q-99 0 -179.5 26.5t-137.5 75t-87.5 118t-30.5 155.5v977h-157v47h516zM691 -437
q-41 0 -68 27t-27 67t26.5 69t68.5 29q20 0 37.5 -8t30.5 -21.5t20.5 -31.5t7.5 -37q0 -20 -8 -37t-21 -30t-30.5 -20t-36.5 -7z" />
    <glyph glyph-name="Ygrave" unicode="&#x1ef2;" horiz-adv-x="1366" 
d="M1090 1321h-203v47h422v-47h-164l-357 -686v-588h183v-47h-561v47h180v588l-395 686h-152v47h553v-47h-180l346 -614zM720 1434l-272 165q-45 28 -75 51.5t-30 57.5q0 31 20.5 50.5t51.5 19.5q23 0 39.5 -16l31.5 -31l306 -297h-72z" />
    <glyph glyph-name="Yacute" unicode="&#xdd;" horiz-adv-x="1366" 
d="M1090 1321h-203v47h422v-47h-164l-357 -686v-588h183v-47h-561v47h180v588l-395 686h-152v47h553v-47h-180l346 -614zM899 1731l32.5 31t39.5 16q31 0 51 -19.5t20 -50.5q0 -17 -8 -31t-22 -26.5t-33 -25l-41 -26.5l-272 -165h-72z" />
    <glyph glyph-name="uni1EF8" unicode="&#x1ef8;" horiz-adv-x="1366" 
d="M1090 1321h-203v47h422v-47h-164l-357 -686v-588h183v-47h-561v47h180v588l-395 686h-152v47h553v-47h-180l346 -614zM1063 1692q-9 -40 -27 -77.5t-45 -67t-63.5 -47t-81.5 -17.5q-43 0 -80 14t-71 33l-66.5 32t-64.5 15q-42 0 -72.5 -28t-38.5 -66h-55q7 42 25 78.5
t45.5 63.5t64.5 42.5t82 15.5q34 0 68.5 -15t68.5 -32q35 -18 68.5 -32.5t64.5 -14.5q26 0 44.5 8t32 22t23.5 32.5t19 40.5h59z" />
    <glyph glyph-name="Ydieresis" unicode="&#x178;" horiz-adv-x="1366" 
d="M1090 1321h-203v47h422v-47h-164l-357 -686v-588h183v-47h-561v47h180v588l-395 686h-152v47h553v-47h-180l346 -614zM514 1470q-40 0 -67 27t-27 68q0 40 26 69t68 29q20 0 37.5 -8t30.5 -21.5t20.5 -31.5t7.5 -37q0 -20 -8 -37.5t-21 -30.5t-30.5 -20t-36.5 -7z
M913 1470q-40 0 -67 27t-27 68q0 40 26 69t68 29q20 0 38 -8t31 -21.5t20.5 -31.5t7.5 -37q0 -20 -8 -37.5t-21 -30.5t-31 -20t-37 -7z" />
    <glyph glyph-name="uni1EF6" unicode="&#x1ef6;" horiz-adv-x="1366" 
d="M1090 1321h-203v47h422v-47h-164l-357 -686v-588h183v-47h-561v47h180v588l-395 686h-152v47h553v-47h-180l346 -614zM697 1431q-23 47 -20 76.5t22 49t48.5 32l59 25t53.5 28t32 40.5q8 27 4.5 59t-20 59t-46.5 45.5t-75 18.5q-25 0 -49 -8t-42.5 -19t-29.5 -24.5
t-11 -23.5q1 -18 7 -25t15 -8.5t20.5 -0.5t23.5 -1.5t23 -10.5t20 -28q3 -28 -6 -45.5t-23 -26.5t-32 -10.5t-33 2.5q-35 8 -58 37t-23 70q0 40 18.5 70t46.5 50.5t61 31t63 10.5q45 0 85 -16.5t66.5 -46t36.5 -69.5t-3 -87q-7 -24 -17 -40t-26 -28t-40 -22.5t-60 -23.5
q-29 -11 -44 -28.5t-16 -37.5t12 -39.5t40 -34.5h-83z" />
    <glyph glyph-name="uni1EF4" unicode="&#x1ef4;" horiz-adv-x="1366" 
d="M1090 1321h-203v47h422v-47h-164l-357 -686v-588h183v-47h-561v47h180v588l-395 686h-152v47h553v-47h-180l346 -614zM707 -437q-41 0 -68 27t-27 67t26.5 69t68.5 29q20 0 37.5 -8t30.5 -21.5t20.5 -31.5t7.5 -37q0 -20 -8 -37t-21 -30t-30.5 -20t-36.5 -7z" />
    <glyph glyph-name="Eth" unicode="&#xd0;" horiz-adv-x="1366" 
d="M242 676h-203v59h203v586h-158v47h549q144 0 262 -47.5t202 -135t129.5 -211.5t45.5 -278q0 -89 -15.5 -167.5t-44 -146.5t-67.5 -127t-86 -108q-49 -51 -107.5 -80t-117 -44t-112 -19t-93.5 -4h-545v47h158v629zM440 735h287v-59h-287v-629h201q89 0 150 20.5t101 52
t64 69t39 71.5q16 36 26 87t16 112t8 130.5t2 143.5q0 73 -4 144.5t-19.5 137t-45 121.5t-79.5 97t-125 64.5t-180 23.5h-154v-586z" />
    <glyph glyph-name="Thorn" unicode="&#xde;" horiz-adv-x="1139" 
d="M66 1368h518v-47h-158v-240h184q142 0 237.5 -31.5t153.5 -82.5t82.5 -116.5t24.5 -133.5q0 -42 -13.5 -87t-42.5 -88t-75 -81.5t-110.5 -67.5t-150 -46t-192.5 -17h-98v-283h182v-47h-557v47h176v1274h-161v47zM426 377h70q125 1 202.5 23.5t120 66t57.5 108.5t15 150
q0 108 -25 170t-75.5 93t-127 38.5t-180.5 7.5h-57v-657z" />
    <glyph glyph-name="a" unicode="a" 
d="M893 141q-2 -36 -16.5 -67t-37.5 -53.5t-54 -35t-66 -12.5q-57 0 -89.5 34t-43.5 91q-53 -65 -125.5 -95t-151.5 -30q-48 0 -91.5 10t-76.5 33.5t-52 62t-19 95.5q2 72 38.5 127t103 93t160.5 57.5t212 19.5v195q0 36 -13 60t-34 38.5t-47.5 20.5t-53.5 6
q-17 0 -48.5 -3.5t-63 -11.5t-55 -22.5t-23.5 -36.5q0 -6 9.5 -12.5t21 -16t21 -25t9.5 -40.5q0 -39 -23 -62.5t-61 -23.5q-42 0 -64 27.5t-22 70.5q0 28 17 62t55.5 64t101 50t154.5 20q104 0 160.5 -19.5t82.5 -49.5t30.5 -65t4.5 -66v-488q0 -46 5.5 -70t37.5 -24
q15 0 27 9.5t20.5 23.5t14.5 30t10 29h35zM584 428q-33 0 -73 -3t-80 -11t-77.5 -22.5t-66.5 -38t-46.5 -57.5t-17.5 -81q0 -75 43.5 -118.5t114.5 -43.5q49 0 84.5 14t73.5 46l14 14t14.5 22t11.5 35.5t5 53.5v190z" />
    <glyph glyph-name="b" unicode="b" horiz-adv-x="1024" 
d="M326 688h4q15 28 39 53.5t55 45.5t66 32t71 12q71 0 128 -19t101 -51t75.5 -74.5t51.5 -90t29.5 -97.5t9.5 -96q0 -95 -30.5 -174t-84 -136t-125 -88.5t-153.5 -31.5q-38 0 -73.5 12t-66.5 33t-57 48.5t-44 58.5h-5v-141q-68 5 -134 11.5t-134 4.5v49h117v1315h-117v47
h47q57 0 115.5 4t114.5 15v-742zM330 590q-2 -21 -4 -60t-3.5 -82t-2.5 -81.5t-1 -57.5q0 -64 14 -111t36 -79.5t49.5 -52.5t54.5 -31t51 -15t39 -4q51 0 86.5 18t58.5 48.5t35.5 70t18.5 83.5t7 89.5t1 86.5q0 38 -1.5 81t-8 85t-19.5 80.5t-36 68t-57.5 47t-84.5 17.5
q-51 0 -93 -23t-72.5 -55t-48.5 -66t-19 -57z" />
    <glyph glyph-name="c" unicode="c" 
d="M823 254q-18 -54 -43.5 -103.5t-65.5 -88t-96.5 -62.5t-136.5 -27q-79 0 -140.5 20.5t-107.5 53.5t-77.5 76t-51 88t-28 89t-8.5 79q0 91 22 160t58 119t81 83.5t90 53.5t87 28t71 8q50 0 106.5 -12t104.5 -38.5t79.5 -68t31.5 -100.5q0 -21 -6.5 -40.5t-18.5 -34.5
t-29 -24t-38 -9q-42 0 -69.5 25.5t-27.5 70.5q0 30 10.5 48t22.5 29.5t22.5 19t10.5 16.5q0 21 -21 35.5t-49.5 24t-57.5 14t-46 4.5q-74 0 -122 -26.5t-76 -79t-39 -129.5t-11 -177q0 -46 5 -86t12 -72t14 -54.5t12 -33.5q23 -51 71.5 -81.5t129.5 -35.5q44 -2 87 14
t80 47.5t67 76t48 100.5h43z" />
    <glyph glyph-name="d" unicode="d" horiz-adv-x="1024" 
d="M692 575q-2 8 -7.5 27t-16.5 43t-29 49.5t-44 47t-61.5 35.5t-82.5 14q-72 0 -111.5 -35t-58.5 -88t-23 -115t-4 -117q0 -118 8.5 -198.5t32 -129.5t63.5 -70.5t103 -21.5q20 0 40.5 5.5t39.5 14t35 18t26 18.5q29 26 49 49.5t32.5 58t18 85t5.5 130.5q0 17 -0.5 41.5
t-2 50.5t-4.5 49.5t-8 38.5zM971 47v-47q-68 0 -135 -2.5t-136 -13.5v137h-4q-43 -74 -111.5 -111t-156.5 -37q-78 0 -144 34.5t-114 94t-75 138t-27 166.5q0 86 25 163t74 135.5t119.5 92.5t162.5 34q24 0 57 -6.5t67 -24t66 -47.5t55 -77h4v688h-137v47h68q57 0 115 4
t114 15v-1383h113z" />
    <glyph glyph-name="e" unicode="e" 
d="M838 254q-15 -72 -48 -124.5t-80 -87.5t-106.5 -52t-126.5 -17q-78 0 -152 30t-131 82.5t-91.5 125t-34.5 158.5q0 90 28.5 173.5t81.5 147.5t127 102.5t166 38.5q78 0 145.5 -25.5t117 -73t77.5 -114.5t29 -151h-580v-84q0 -76 7.5 -143t33.5 -116.5t75.5 -78.5
t133.5 -29q44 0 89.5 18t85 50t68.5 75.5t40 94.5h45zM653 526v70q0 55 -15 92.5t-40.5 60t-60 32.5t-72.5 10q-46 0 -79.5 -18t-56 -41t-34 -44t-12.5 -26q-10 -28 -14.5 -62.5t-6.5 -73.5h391z" />
    <glyph glyph-name="f" unicode="f" horiz-adv-x="569" 
d="M496 811v-47h-166v-717h166v-47h-484v47h158v717h-158v47h158v100q0 132 25.5 226t71.5 154.5t108.5 89t136.5 28.5q30 0 60.5 -7.5t55.5 -23t40.5 -41t15.5 -61.5q0 -15 -7 -27.5t-18 -21.5t-24.5 -14t-26.5 -5q-42 0 -63 26.5t-21 68.5q0 8 2.5 13.5t6 10.5t6 11
t2.5 16q0 4 -5.5 6t-13.5 3.5t-16.5 2t-13.5 0.5q-75 0 -118.5 -84.5t-43.5 -239.5v-231h166z" />
    <glyph glyph-name="g" unicode="g" 
d="M416 129q105 0 171.5 -3t109 -12t68.5 -26t50 -45q31 -35 44 -77t13 -89q0 -95 -37.5 -160t-97 -105.5t-133.5 -58.5t-147 -18q-111 0 -186 21t-121.5 53t-66.5 69.5t-20 69.5q0 54 23 92t58 64.5t77.5 42.5t81.5 26v7q-39 5 -78.5 12.5t-72 25.5t-52.5 50t-20 88
q0 42 21 70t52 46t67 27t65 14v4q-69 34 -111.5 89t-42.5 143q0 48 17.5 98.5t54 91t92 66.5t131.5 26q178 0 256 -118q7 18 19 38t28.5 37t37 28t46.5 11q14 0 28 -3.5t25.5 -11.5t19 -21t7.5 -33q0 -31 -17 -54.5t-49 -23.5q-13 0 -23.5 9.5t-18.5 21l-15 21t-12 9.5
q-16 0 -30.5 -16.5t-14.5 -32.5q0 -8 4.5 -22t9.5 -31.5t9.5 -38t4.5 -41.5q0 -48 -12.5 -85.5t-31.5 -65.5t-43 -47.5t-46.5 -32t-42 -18.5t-30.5 -7q-76 -10 -147 -17.5t-125.5 -20t-87 -34t-32.5 -59.5q0 -17 15.5 -30t38.5 -13h219zM195 -244q0 -49 23 -82.5t58.5 -53.5
t78.5 -29t83 -9q87 0 147.5 14.5t101 37t63.5 50t34.5 53t14 45.5t2.5 28q0 45 -10 78.5t-41 56t-90 34t-156 11.5q-91 0 -150.5 -26.5t-95 -64t-49.5 -77.5t-14 -66zM442 791q-38 0 -66.5 -11t-47.5 -38.5t-28 -74.5t-9 -120q0 -35 4.5 -72.5t18.5 -69.5t40 -52.5t68 -20.5
q56 0 88 18.5t48 50.5t20 74t4 90q0 39 -4.5 79t-19.5 72.5t-42.5 53.5t-73.5 21z" />
    <glyph glyph-name="h" unicode="h" horiz-adv-x="1024" 
d="M162 1364h-113v47h43q57 0 115.5 4t114.5 15v-816h4q21 48 47.5 88t61 68.5t78 44.5t99.5 16q28 0 69.5 -5.5t80.5 -26t66.5 -61.5t27.5 -111v-580h111v-47h-377v47h106v553q0 56 -8.5 90t-25 52t-40.5 24t-55 6q-52 0 -97 -32t-78 -82t-51.5 -111t-18.5 -119v-381h110
v-47h-383v47h113v1317z" />
    <glyph glyph-name="i" unicode="i" horiz-adv-x="569" 
d="M66 0v47h137v717h-137v47h67q57 0 115.5 3t113.5 17v-784h121v-47h-417zM182 1253q0 20 8 38t22 31.5t31.5 21.5t37.5 8q18 0 36.5 -8t33.5 -21.5t24.5 -31.5t9.5 -38q0 -48 -29.5 -78t-74.5 -30q-23 0 -41 8.5t-31 23.5t-20 34.5t-7 41.5z" />
    <glyph glyph-name="j" unicode="j" horiz-adv-x="569" 
d="M389 4q0 -83 -20 -166.5t-60.5 -151t-102.5 -109.5t-145 -42q-23 0 -47 7t-43.5 21t-32 34.5t-12.5 48.5q0 21 8.5 34t22 21t30.5 11t33 3q20 0 31.5 -11t19.5 -24q8 -15 13 -34q3 -17 17 -32t32 -15q23 0 39 13.5t26.5 34.5t17 47.5t9.5 53t3.5 50t0.5 38.5v928h-137v47
h68q57 0 115 3t114 17v-827zM209 1253q0 20 8 38t21.5 31.5t31.5 21.5t37 8q18 0 37 -8t34 -21.5t24.5 -31.5t9.5 -38q0 -48 -30 -78t-75 -30t-71.5 31.5t-26.5 76.5z" />
    <glyph glyph-name="k" unicode="k" horiz-adv-x="1024" 
d="M557 764v47h336v-47h-125l-283 -246l389 -471h87v-47h-390v47h103l-342 416l346 295v6h-121zM63 0v47h107v1317h-107v47h37q57 0 115.5 4t114.5 15v-1383h123v-47h-390z" />
    <glyph glyph-name="l" unicode="l" horiz-adv-x="569" 
d="M41 0v47h158v1317h-158v47h88q57 0 115.5 4t113.5 15v-1383h158v-47h-475z" />
    <glyph glyph-name="m" unicode="m" horiz-adv-x="1479" 
d="M1432 47v-47h-377v47h114v582q0 72 -32.5 107.5t-81.5 35.5q-48 0 -89.5 -30t-73 -75t-49.5 -96.5t-18 -93.5v-430h109v-47h-377v47h109v582q0 72 -33 107.5t-82 35.5q-48 0 -89.5 -31t-72.5 -79.5t-49 -109t-18 -118.5v-387h114v-47h-377v47h103v717h-103v47h33
q57 0 115.5 3t114.5 17v-194h4q27 43 52.5 79t56.5 61.5t71 39.5t96 14q44 0 82 -12.5t67 -37t47 -60.5t23 -82h4q25 42 53.5 77.5t63 61t75.5 39.5t91 14q28 0 66.5 -7.5t72.5 -32.5t58 -72.5t24 -126.5v-545h103z" />
    <glyph glyph-name="n" unicode="n" horiz-adv-x="1024" 
d="M172 764h-113v47h43q29 0 58 0.5t57 3.5q29 2 58 6t57 10v-217h4q21 48 47.5 88t61 68.5t78.5 44.5t100 16q18 0 43 -2t52 -9t53.5 -20.5t47.5 -36t34 -56t13 -80.5v-580h111v-47h-377v47h107v553q0 56 -9 90t-25.5 52t-40.5 24t-54 6q-53 0 -98 -32t-78 -82t-51.5 -111
t-18.5 -119v-381h110v-47h-383v47h113v717z" />
    <glyph glyph-name="o" unicode="o" 
d="M455 831q81 0 152.5 -32t125.5 -89t85.5 -135.5t31.5 -171.5t-31.5 -171.5t-85.5 -136t-125.5 -90t-152.5 -32.5t-153 32.5t-126 90t-85.5 136t-31.5 171.5t31.5 171.5t85.5 135.5t126 89t153 32zM455 791q-52 0 -87.5 -17t-58.5 -46t-36 -67.5t-19 -81.5t-7 -88.5
t-1 -87.5q0 -43 1 -88.5t7 -89t19 -81.5t36 -67t58.5 -46t87.5 -17t87.5 17t58.5 46t36 67t19 81.5t7 89t1 88.5q0 42 -1 87.5t-7 88.5t-19 81.5t-36 67.5t-58.5 46t-87.5 17z" />
    <glyph glyph-name="p" unicode="p" horiz-adv-x="1024" 
d="M166 764h-121v47h43q29 0 58.5 0.5t58.5 3.5q31 2 60 6t57 10v-159l4 2q40 75 106 116t143 41q39 0 83 -10.5t86 -33t80.5 -58t68 -85t46.5 -114t17 -145.5q0 -75 -25 -149t-74 -132.5t-122 -94.5t-168 -36q-83 0 -141 36t-96 102h-4v-527h139v-47h-420v47h121v1180z
M334 553q-8 -51 -8 -97v-91q0 -51 2 -85t6.5 -59t12.5 -45t20 -43q13 -25 35 -47t48.5 -38t53.5 -25t49 -9q26 0 52 2t50.5 13t45 34t36 64.5t24.5 106t9 157.5q0 111 -11.5 185.5t-37 120.5t-65.5 65.5t-97 19.5q-15 0 -47.5 -8t-68 -32t-66.5 -69t-43 -120z" />
    <glyph glyph-name="q" unicode="q" horiz-adv-x="1024" 
d="M973 -416v-47h-414v47h135v525h-4q-40 -72 -107 -104t-151 -32q-77 0 -143.5 33.5t-115.5 90.5t-77 132.5t-28 159.5q0 123 38.5 207.5t95 136.5t120 75t114.5 23q42 0 82.5 -11t74.5 -32.5t61 -52.5t42 -71h4v167q26 -8 61 -11.5t70 -6.5q36 -2 67 -2h46h29v-47h-119
v-1180h119zM698 420q0 51 -2 91.5t-10 75t-25 64.5t-47 62q-32 34 -74.5 51.5t-88.5 17.5q-49 0 -82.5 -20t-55.5 -53t-34 -75.5t-17.5 -87.5t-6.5 -89t-1 -80q0 -57 5 -120t25 -115.5t60.5 -87t112.5 -34.5q11 0 33 3t49 12t54.5 27.5t50.5 49.5t37.5 76.5t14.5 110.5
q0 31 1 60.5t1 60.5z" />
    <glyph glyph-name="r" unicode="r" horiz-adv-x="682" 
d="M336 639h4q14 34 36 68.5t51.5 62t65.5 44.5t78 17q26 0 49 -7t40 -21t26.5 -35.5t9.5 -50.5q0 -19 -9 -33.5t-23 -24t-31 -14t-33 -4.5q-14 0 -28 7t-25.5 18.5t-19 26.5t-7.5 30q0 12 4 24.5t4 18.5q0 9 -6.5 10.5t-11.5 1.5q-1 0 -13 -6t-29.5 -20t-37.5 -37t-37 -58
q-21 -45 -36 -102t-15 -119v-389h158v-47h-457v47h139v717h-139v47h63q57 0 115.5 3t114.5 17v-192z" />
    <glyph glyph-name="s" unicode="s" horiz-adv-x="797" 
d="M627 811v-229h-45q-12 44 -31 81.5t-46.5 65t-64 43.5t-82.5 19q-63 1 -101 -18.5t-58 -45.5t-26.5 -51.5t-6.5 -34.5q0 -22 7.5 -40t40 -35t98.5 -36t184 -43q59 -12 99.5 -32t66 -48.5t36.5 -66.5t11 -86q0 -66 -23.5 -118t-63.5 -88.5t-94 -55.5t-114 -19
q-65 0 -128 25.5t-108 75.5l-45 -74h-45v270h47q15 -55 40.5 -102t62.5 -81t84 -53.5t104 -19.5q34 0 69.5 12.5t64.5 35.5t47 55.5t18 72.5q0 30 -20.5 52.5t-57.5 41t-89 34.5t-116 32q-51 12 -97 24.5t-81 35.5t-55.5 63t-20.5 107q0 32 12 75.5t42.5 82.5t84.5 66
t138 27q97 0 190 -75l37 55h35z" />
    <glyph glyph-name="t" unicode="t" horiz-adv-x="569" 
d="M37 811h121v252q40 0 78.5 1t76.5 7v-260h181v-47h-181v-627q0 -14 1 -30t8.5 -30t23.5 -23t45 -9q20 0 35.5 6.5t29 17t26 24t24.5 28.5l33 -23q-15 -29 -40 -52.5t-55 -39.5t-63 -24.5t-64 -8.5q-55 0 -87.5 14t-49 38.5t-21.5 57t-5 69.5v612h-117v47z" />
    <glyph glyph-name="u" unicode="u" horiz-adv-x="1024" 
d="M963 0h-43q-56 0 -112 -4t-112 -10v166h-4q-40 -85 -118.5 -133t-178.5 -48q-75 0 -122 17.5t-73.5 45.5t-36 63.5t-9.5 72.5v594h-111v47h41q57 0 115.5 3t113.5 17v-643q0 -47 11 -76.5t28.5 -46t40 -22.5t45.5 -6q55 0 100.5 21t78.5 57.5t51 85.5t18 104v459h-117v47
h47q57 0 115.5 3t114.5 17v-784h117v-47z" />
    <glyph glyph-name="v" unicode="v" 
d="M39 764v47h369v-47h-109l199 -588h4l207 588h-125v47h278v-47h-98l-283 -791h-69l-275 791h-98z" />
    <glyph glyph-name="w" unicode="w" horiz-adv-x="1251" 
d="M14 764v47h394v-47h-121l166 -545h4l184 592h68l192 -592h4l160 545h-141v47h305v-47h-113l-231 -791h-58l-204 607h-5l-186 -607h-65l-236 791h-117z" />
    <glyph glyph-name="x" unicode="x" 
d="M322 0h-297v47h122l234 336l-248 381h-108v47h383v-47h-111l168 -256l176 256h-115v47h293v-47h-117l-208 -297l278 -420h100v-47h-378v47h106l-190 293l-199 -293h111v-47z" />
    <glyph glyph-name="y" unicode="y" 
d="M766 764l-328 -901q-27 -74 -52.5 -134.5t-56 -103.5t-67.5 -66.5t-86 -23.5q-16 0 -33.5 7t-31.5 19.5t-23.5 29t-9.5 34.5q0 42 25 65t59 23q31 0 48 -11.5t27.5 -26t16.5 -26t14 -11.5q23 0 40.5 35t37.5 89l14 33.5t18.5 46.5l24 66l31.5 92l-313 764h-96v47h393v-47
h-131l227 -551l195 551h-131v47h290v-47h-102z" />
    <glyph glyph-name="z" unicode="z" horiz-adv-x="797" 
d="M102 545v266h615v-51l-475 -713h258q38 0 65.5 18.5t48 51.5t34.5 79t26 101h39v-297h-662v45l479 719h-182q-40 0 -71.5 -5.5t-56 -27.5t-42 -66t-28.5 -120h-48z" />
    <glyph glyph-name="agrave" unicode="&#xe0;" 
d="M893 141q-2 -36 -16.5 -67t-37.5 -53.5t-54 -35t-66 -12.5q-57 0 -89.5 34t-43.5 91q-53 -65 -125.5 -95t-151.5 -30q-48 0 -91.5 10t-76.5 33.5t-52 62t-19 95.5q2 72 38.5 127t103 93t160.5 57.5t212 19.5v195q0 36 -13 60t-34 38.5t-47.5 20.5t-53.5 6
q-17 0 -48.5 -3.5t-63 -11.5t-55 -22.5t-23.5 -36.5q0 -6 9.5 -12.5t21 -16t21 -25t9.5 -40.5q0 -39 -23 -62.5t-61 -23.5q-42 0 -64 27.5t-22 70.5q0 28 17 62t55.5 64t101 50t154.5 20q104 0 160.5 -19.5t82.5 -49.5t30.5 -65t4.5 -66v-488q0 -46 5.5 -70t37.5 -24
q15 0 27 9.5t20.5 23.5t14.5 30t10 29h35zM584 428q-33 0 -73 -3t-80 -11t-77.5 -22.5t-66.5 -38t-46.5 -57.5t-17.5 -81q0 -75 43.5 -118.5t114.5 -43.5q49 0 84.5 14t73.5 46l14 14t14.5 22t11.5 35.5t5 53.5v190zM535 897l-273 166l-41 26t-33 25t-22 26.5t-8 30.5
q0 31 20 50.5t51 19.5q23 0 40 -16l32 -31l305 -297h-71z" />
    <glyph glyph-name="aacute" unicode="&#xe1;" 
d="M893 141q-2 -36 -16.5 -67t-37.5 -53.5t-54 -35t-66 -12.5q-57 0 -89.5 34t-43.5 91q-53 -65 -125.5 -95t-151.5 -30q-48 0 -91.5 10t-76.5 33.5t-52 62t-19 95.5q2 72 38.5 127t103 93t160.5 57.5t212 19.5v195q0 36 -13 60t-34 38.5t-47.5 20.5t-53.5 6
q-17 0 -48.5 -3.5t-63 -11.5t-55 -22.5t-23.5 -36.5q0 -6 9.5 -12.5t21 -16t21 -25t9.5 -40.5q0 -39 -23 -62.5t-61 -23.5q-42 0 -64 27.5t-22 70.5q0 28 17 62t55.5 64t101 50t154.5 20q104 0 160.5 -19.5t82.5 -49.5t30.5 -65t4.5 -66v-488q0 -46 5.5 -70t37.5 -24
q15 0 27 9.5t20.5 23.5t14.5 30t10 29h35zM584 428q-33 0 -73 -3t-80 -11t-77.5 -22.5t-66.5 -38t-46.5 -57.5t-17.5 -81q0 -75 43.5 -118.5t114.5 -43.5q49 0 84.5 14t73.5 46l14 14t14.5 22t11.5 35.5t5 53.5v190zM608 1194l32.5 31t39.5 16q31 0 51.5 -19.5t20.5 -50.5
q0 -17 -8 -30.5t-22 -26.5t-33.5 -25l-41.5 -26l-272 -166h-72z" />
    <glyph glyph-name="acircumflex" unicode="&#xe2;" 
d="M893 141q-2 -36 -16.5 -67t-37.5 -53.5t-54 -35t-66 -12.5q-57 0 -89.5 34t-43.5 91q-53 -65 -125.5 -95t-151.5 -30q-48 0 -91.5 10t-76.5 33.5t-52 62t-19 95.5q2 72 38.5 127t103 93t160.5 57.5t212 19.5v195q0 36 -13 60t-34 38.5t-47.5 20.5t-53.5 6
q-17 0 -48.5 -3.5t-63 -11.5t-55 -22.5t-23.5 -36.5q0 -6 9.5 -12.5t21 -16t21 -25t9.5 -40.5q0 -39 -23 -62.5t-61 -23.5q-42 0 -64 27.5t-22 70.5q0 28 17 62t55.5 64t101 50t154.5 20q104 0 160.5 -19.5t82.5 -49.5t30.5 -65t4.5 -66v-488q0 -46 5.5 -70t37.5 -24
q15 0 27 9.5t20.5 23.5t14.5 30t10 29h35zM584 428q-33 0 -73 -3t-80 -11t-77.5 -22.5t-66.5 -38t-46.5 -57.5t-17.5 -81q0 -75 43.5 -118.5t114.5 -43.5q49 0 84.5 14t73.5 46l14 14t14.5 22t11.5 35.5t5 53.5v190zM514 1237l248 -340h-66l-239 215l-240 -215h-70l252 340
h115z" />
    <glyph glyph-name="uni1EA7" unicode="&#x1ea7;" 
d="M893 141q-2 -36 -16.5 -67t-37.5 -53.5t-54 -35t-66 -12.5q-57 0 -89.5 34t-43.5 91q-53 -65 -125.5 -95t-151.5 -30q-48 0 -91.5 10t-76.5 33.5t-52 62t-19 95.5q2 72 38.5 127t103 93t160.5 57.5t212 19.5v195q0 36 -13 60t-34 38.5t-47.5 20.5t-53.5 6
q-17 0 -48.5 -3.5t-63 -11.5t-55 -22.5t-23.5 -36.5q0 -6 9.5 -12.5t21 -16t21 -25t9.5 -40.5q0 -39 -23 -62.5t-61 -23.5q-42 0 -64 27.5t-22 70.5q0 28 17 62t55.5 64t101 50t154.5 20q104 0 160.5 -19.5t82.5 -49.5t30.5 -65t4.5 -66v-488q0 -46 5.5 -70t37.5 -24
q15 0 27 9.5t20.5 23.5t14.5 30t10 29h35zM584 428q-33 0 -73 -3t-80 -11t-77.5 -22.5t-66.5 -38t-46.5 -57.5t-17.5 -81q0 -75 43.5 -118.5t114.5 -43.5q49 0 84.5 14t73.5 46l14 14t14.5 22t11.5 35.5t5 53.5v190zM514 1237l248 -340h-66l-239 215l-240 -215h-70l252 340
h115zM858 1159l-273 166l-41 26t-33 25t-22 26.5t-8 30.5q0 31 20 50.5t51 19.5q23 0 40 -16l32 -31l305 -297h-71z" />
    <glyph glyph-name="uni1EA5" unicode="&#x1ea5;" 
d="M893 141q-2 -36 -16.5 -67t-37.5 -53.5t-54 -35t-66 -12.5q-57 0 -89.5 34t-43.5 91q-53 -65 -125.5 -95t-151.5 -30q-48 0 -91.5 10t-76.5 33.5t-52 62t-19 95.5q2 72 38.5 127t103 93t160.5 57.5t212 19.5v195q0 36 -13 60t-34 38.5t-47.5 20.5t-53.5 6
q-17 0 -48.5 -3.5t-63 -11.5t-55 -22.5t-23.5 -36.5q0 -6 9.5 -12.5t21 -16t21 -25t9.5 -40.5q0 -39 -23 -62.5t-61 -23.5q-42 0 -64 27.5t-22 70.5q0 28 17 62t55.5 64t101 50t154.5 20q104 0 160.5 -19.5t82.5 -49.5t30.5 -65t4.5 -66v-488q0 -46 5.5 -70t37.5 -24
q15 0 27 9.5t20.5 23.5t14.5 30t10 29h35zM584 428q-33 0 -73 -3t-80 -11t-77.5 -22.5t-66.5 -38t-46.5 -57.5t-17.5 -81q0 -75 43.5 -118.5t114.5 -43.5q49 0 84.5 14t73.5 46l14 14t14.5 22t11.5 35.5t5 53.5v190zM514 1237l248 -340h-66l-239 215l-240 -215h-70l252 340
h115zM933 1456l32.5 31t39.5 16q31 0 51.5 -19.5t20.5 -50.5q0 -17 -8 -30.5t-22 -26.5t-33.5 -25l-41.5 -26l-272 -166h-72z" />
    <glyph glyph-name="uni1EAB" unicode="&#x1eab;" 
d="M893 141q-2 -36 -16.5 -67t-37.5 -53.5t-54 -35t-66 -12.5q-57 0 -89.5 34t-43.5 91q-53 -65 -125.5 -95t-151.5 -30q-48 0 -91.5 10t-76.5 33.5t-52 62t-19 95.5q2 72 38.5 127t103 93t160.5 57.5t212 19.5v195q0 36 -13 60t-34 38.5t-47.5 20.5t-53.5 6
q-17 0 -48.5 -3.5t-63 -11.5t-55 -22.5t-23.5 -36.5q0 -6 9.5 -12.5t21 -16t21 -25t9.5 -40.5q0 -39 -23 -62.5t-61 -23.5q-42 0 -64 27.5t-22 70.5q0 28 17 62t55.5 64t101 50t154.5 20q104 0 160.5 -19.5t82.5 -49.5t30.5 -65t4.5 -66v-488q0 -46 5.5 -70t37.5 -24
q15 0 27 9.5t20.5 23.5t14.5 30t10 29h35zM584 428q-33 0 -73 -3t-80 -11t-77.5 -22.5t-66.5 -38t-46.5 -57.5t-17.5 -81q0 -75 43.5 -118.5t114.5 -43.5q49 0 84.5 14t73.5 46l14 14t14.5 22t11.5 35.5t5 53.5v190zM514 1237l248 -340h-66l-239 215l-240 -215h-70l252 340
h115zM774 1526q-9 -40 -27.5 -77.5t-45.5 -67t-63.5 -47t-81.5 -17.5q-43 0 -80 14.5t-71 32.5l-66.5 32t-64.5 15q-21 0 -39.5 -7.5t-33 -20.5t-24.5 -30t-14 -36h-55q7 42 25 79t45.5 64t64.5 42.5t82 15.5q34 0 68.5 -15t68.5 -32q35 -19 68.5 -33t64.5 -14q26 0 44.5 8
t32 21.5t23.5 32.5t19 40h60z" />
    <glyph glyph-name="uni1EA9" unicode="&#x1ea9;" 
d="M893 141q-2 -36 -16.5 -67t-37.5 -53.5t-54 -35t-66 -12.5q-57 0 -89.5 34t-43.5 91q-53 -65 -125.5 -95t-151.5 -30q-48 0 -91.5 10t-76.5 33.5t-52 62t-19 95.5q2 72 38.5 127t103 93t160.5 57.5t212 19.5v195q0 36 -13 60t-34 38.5t-47.5 20.5t-53.5 6
q-17 0 -48.5 -3.5t-63 -11.5t-55 -22.5t-23.5 -36.5q0 -6 9.5 -12.5t21 -16t21 -25t9.5 -40.5q0 -39 -23 -62.5t-61 -23.5q-42 0 -64 27.5t-22 70.5q0 28 17 62t55.5 64t101 50t154.5 20q104 0 160.5 -19.5t82.5 -49.5t30.5 -65t4.5 -66v-488q0 -46 5.5 -70t37.5 -24
q15 0 27 9.5t20.5 23.5t14.5 30t10 29h35zM584 428q-33 0 -73 -3t-80 -11t-77.5 -22.5t-66.5 -38t-46.5 -57.5t-17.5 -81q0 -75 43.5 -118.5t114.5 -43.5q49 0 84.5 14t73.5 46l14 14t14.5 22t11.5 35.5t5 53.5v190zM514 1237l248 -340h-66l-239 215l-240 -215h-70l252 340
h115zM611 1208q-24 47 -20.5 76.5t22.5 49t48.5 32l59 25t53.5 28t32 40.5q8 27 4.5 59t-20 59t-46.5 45.5t-75 18.5q-25 0 -49 -8t-42.5 -19t-29.5 -24.5t-11 -23.5q1 -18 7 -25t15 -8.5t20.5 -0.5t23.5 -1.5t23 -10.5t20 -28q3 -28 -6 -45.5t-23 -26.5t-32 -10.5t-33 2.5
q-35 8 -58 37t-23 70q0 40 18.5 70t46.5 50.5t61 31t63 10.5q45 0 85 -16.5t66.5 -46t36.5 -69.5t-3 -87q-7 -24 -17 -40t-26 -28t-40 -22.5t-60 -23.5q-29 -11 -44 -28.5t-16 -37.5t12 -39.5t40 -34.5h-83z" />
    <glyph glyph-name="uni1EAD" unicode="&#x1ead;" 
d="M893 141q-2 -36 -16.5 -67t-37.5 -53.5t-54 -35t-66 -12.5q-57 0 -89.5 34t-43.5 91q-53 -65 -125.5 -95t-151.5 -30q-48 0 -91.5 10t-76.5 33.5t-52 62t-19 95.5q2 72 38.5 127t103 93t160.5 57.5t212 19.5v195q0 36 -13 60t-34 38.5t-47.5 20.5t-53.5 6
q-17 0 -48.5 -3.5t-63 -11.5t-55 -22.5t-23.5 -36.5q0 -6 9.5 -12.5t21 -16t21 -25t9.5 -40.5q0 -39 -23 -62.5t-61 -23.5q-42 0 -64 27.5t-22 70.5q0 28 17 62t55.5 64t101 50t154.5 20q104 0 160.5 -19.5t82.5 -49.5t30.5 -65t4.5 -66v-488q0 -46 5.5 -70t37.5 -24
q15 0 27 9.5t20.5 23.5t14.5 30t10 29h35zM584 428q-33 0 -73 -3t-80 -11t-77.5 -22.5t-66.5 -38t-46.5 -57.5t-17.5 -81q0 -75 43.5 -118.5t114.5 -43.5q49 0 84.5 14t73.5 46l14 14t14.5 22t11.5 35.5t5 53.5v190zM514 1237l248 -340h-66l-239 215l-240 -215h-70l252 340
h115zM465 -437q-41 0 -68 27t-27 67t26.5 69t68.5 29q20 0 37.5 -8t30.5 -21.5t20.5 -31.5t7.5 -37q0 -20 -8 -37t-21 -30t-30.5 -20t-36.5 -7z" />
    <glyph glyph-name="atilde" unicode="&#xe3;" 
d="M893 141q-2 -36 -16.5 -67t-37.5 -53.5t-54 -35t-66 -12.5q-57 0 -89.5 34t-43.5 91q-53 -65 -125.5 -95t-151.5 -30q-48 0 -91.5 10t-76.5 33.5t-52 62t-19 95.5q2 72 38.5 127t103 93t160.5 57.5t212 19.5v195q0 36 -13 60t-34 38.5t-47.5 20.5t-53.5 6
q-17 0 -48.5 -3.5t-63 -11.5t-55 -22.5t-23.5 -36.5q0 -6 9.5 -12.5t21 -16t21 -25t9.5 -40.5q0 -39 -23 -62.5t-61 -23.5q-42 0 -64 27.5t-22 70.5q0 28 17 62t55.5 64t101 50t154.5 20q104 0 160.5 -19.5t82.5 -49.5t30.5 -65t4.5 -66v-488q0 -46 5.5 -70t37.5 -24
q15 0 27 9.5t20.5 23.5t14.5 30t10 29h35zM584 428q-33 0 -73 -3t-80 -11t-77.5 -22.5t-66.5 -38t-46.5 -57.5t-17.5 -81q0 -75 43.5 -118.5t114.5 -43.5q49 0 84.5 14t73.5 46l14 14t14.5 22t11.5 35.5t5 53.5v190zM791 1155q-9 -40 -27.5 -77.5t-45.5 -67t-63.5 -47
t-81.5 -17.5q-43 0 -80 14.5t-71 32.5l-66.5 32t-64.5 15q-21 0 -39.5 -7.5t-33 -20.5t-24.5 -30t-14 -36h-55q7 42 25 79t45.5 64t64.5 42.5t82 15.5q34 0 68.5 -15t68.5 -32q35 -19 68.5 -33t64.5 -14q26 0 44.5 8t32 21.5t23.5 32.5t19 40h60z" />
    <glyph glyph-name="adieresis" unicode="&#xe4;" 
d="M893 141q-2 -36 -16.5 -67t-37.5 -53.5t-54 -35t-66 -12.5q-57 0 -89.5 34t-43.5 91q-53 -65 -125.5 -95t-151.5 -30q-48 0 -91.5 10t-76.5 33.5t-52 62t-19 95.5q2 72 38.5 127t103 93t160.5 57.5t212 19.5v195q0 36 -13 60t-34 38.5t-47.5 20.5t-53.5 6
q-17 0 -48.5 -3.5t-63 -11.5t-55 -22.5t-23.5 -36.5q0 -6 9.5 -12.5t21 -16t21 -25t9.5 -40.5q0 -39 -23 -62.5t-61 -23.5q-42 0 -64 27.5t-22 70.5q0 28 17 62t55.5 64t101 50t154.5 20q104 0 160.5 -19.5t82.5 -49.5t30.5 -65t4.5 -66v-488q0 -46 5.5 -70t37.5 -24
q15 0 27 9.5t20.5 23.5t14.5 30t10 29h35zM584 428q-33 0 -73 -3t-80 -11t-77.5 -22.5t-66.5 -38t-46.5 -57.5t-17.5 -81q0 -75 43.5 -118.5t114.5 -43.5q49 0 84.5 14t73.5 46l14 14t14.5 22t11.5 35.5t5 53.5v190zM254 934q-40 0 -67 27t-27 67t26 69t68 29q20 0 37.5 -8
t30.5 -21.5t20.5 -31.5t7.5 -37q0 -20 -8 -37t-21 -30t-30.5 -20t-36.5 -7zM653 934q-40 0 -67 27t-27 67t26 69t68 29q20 0 38 -8t31 -21.5t20.5 -31.5t7.5 -37q0 -20 -8 -37t-21 -30t-31 -20t-37 -7z" />
    <glyph glyph-name="abreve" unicode="&#x103;" 
d="M893 141q-2 -36 -16.5 -67t-37.5 -53.5t-54 -35t-66 -12.5q-57 0 -89.5 34t-43.5 91q-53 -65 -125.5 -95t-151.5 -30q-48 0 -91.5 10t-76.5 33.5t-52 62t-19 95.5q2 72 38.5 127t103 93t160.5 57.5t212 19.5v195q0 36 -13 60t-34 38.5t-47.5 20.5t-53.5 6
q-17 0 -48.5 -3.5t-63 -11.5t-55 -22.5t-23.5 -36.5q0 -6 9.5 -12.5t21 -16t21 -25t9.5 -40.5q0 -39 -23 -62.5t-61 -23.5q-42 0 -64 27.5t-22 70.5q0 28 17 62t55.5 64t101 50t154.5 20q104 0 160.5 -19.5t82.5 -49.5t30.5 -65t4.5 -66v-488q0 -46 5.5 -70t37.5 -24
q15 0 27 9.5t20.5 23.5t14.5 30t10 29h35zM584 428q-33 0 -73 -3t-80 -11t-77.5 -22.5t-66.5 -38t-46.5 -57.5t-17.5 -81q0 -75 43.5 -118.5t114.5 -43.5q49 0 84.5 14t73.5 46l14 14t14.5 22t11.5 35.5t5 53.5v190zM223 1214q6 -49 25.5 -87t50 -64t70 -39.5t84.5 -13.5
t84.5 13.5t70 39.5t50 64t24.5 87h55q-2 -74 -22 -133.5t-57 -100.5t-89 -63t-116 -22q-65 0 -117 22t-88.5 63t-57.5 100.5t-22 133.5h55z" />
    <glyph glyph-name="uni1EB1" unicode="&#x1eb1;" 
d="M893 141q-2 -36 -16.5 -67t-37.5 -53.5t-54 -35t-66 -12.5q-57 0 -89.5 34t-43.5 91q-53 -65 -125.5 -95t-151.5 -30q-48 0 -91.5 10t-76.5 33.5t-52 62t-19 95.5q2 72 38.5 127t103 93t160.5 57.5t212 19.5v195q0 36 -13 60t-34 38.5t-47.5 20.5t-53.5 6
q-17 0 -48.5 -3.5t-63 -11.5t-55 -22.5t-23.5 -36.5q0 -6 9.5 -12.5t21 -16t21 -25t9.5 -40.5q0 -39 -23 -62.5t-61 -23.5q-42 0 -64 27.5t-22 70.5q0 28 17 62t55.5 64t101 50t154.5 20q104 0 160.5 -19.5t82.5 -49.5t30.5 -65t4.5 -66v-488q0 -46 5.5 -70t37.5 -24
q15 0 27 9.5t20.5 23.5t14.5 30t10 29h35zM584 428q-33 0 -73 -3t-80 -11t-77.5 -22.5t-66.5 -38t-46.5 -57.5t-17.5 -81q0 -75 43.5 -118.5t114.5 -43.5q49 0 84.5 14t73.5 46l14 14t14.5 22t11.5 35.5t5 53.5v190zM223 1214q6 -49 25.5 -87t50 -64t70 -39.5t84.5 -13.5
t84.5 13.5t70 39.5t50 64t24.5 87h55q-2 -74 -22 -133.5t-57 -100.5t-89 -63t-116 -22q-65 0 -117 22t-88.5 63t-57.5 100.5t-22 133.5h55zM506 1159l-273 166l-41 26t-33 25t-22 26.5t-8 30.5q0 31 20 50.5t51 19.5q23 0 40 -16l32 -31l305 -297h-71z" />
    <glyph glyph-name="uni1EAF" unicode="&#x1eaf;" 
d="M893 141q-2 -36 -16.5 -67t-37.5 -53.5t-54 -35t-66 -12.5q-57 0 -89.5 34t-43.5 91q-53 -65 -125.5 -95t-151.5 -30q-48 0 -91.5 10t-76.5 33.5t-52 62t-19 95.5q2 72 38.5 127t103 93t160.5 57.5t212 19.5v195q0 36 -13 60t-34 38.5t-47.5 20.5t-53.5 6
q-17 0 -48.5 -3.5t-63 -11.5t-55 -22.5t-23.5 -36.5q0 -6 9.5 -12.5t21 -16t21 -25t9.5 -40.5q0 -39 -23 -62.5t-61 -23.5q-42 0 -64 27.5t-22 70.5q0 28 17 62t55.5 64t101 50t154.5 20q104 0 160.5 -19.5t82.5 -49.5t30.5 -65t4.5 -66v-488q0 -46 5.5 -70t37.5 -24
q15 0 27 9.5t20.5 23.5t14.5 30t10 29h35zM584 428q-33 0 -73 -3t-80 -11t-77.5 -22.5t-66.5 -38t-46.5 -57.5t-17.5 -81q0 -75 43.5 -118.5t114.5 -43.5q49 0 84.5 14t73.5 46l14 14t14.5 22t11.5 35.5t5 53.5v190zM223 1214q6 -49 25.5 -87t50 -64t70 -39.5t84.5 -13.5
t84.5 13.5t70 39.5t50 64t24.5 87h55q-2 -74 -22 -133.5t-57 -100.5t-89 -63t-116 -22q-65 0 -117 22t-88.5 63t-57.5 100.5t-22 133.5h55zM625 1456l32.5 31t39.5 16q31 0 51.5 -19.5t20.5 -50.5q0 -17 -8 -30.5t-22 -26.5t-33.5 -25l-41.5 -26l-272 -166h-72z" />
    <glyph glyph-name="uni1EB5" unicode="&#x1eb5;" 
d="M893 141q-2 -36 -16.5 -67t-37.5 -53.5t-54 -35t-66 -12.5q-57 0 -89.5 34t-43.5 91q-53 -65 -125.5 -95t-151.5 -30q-48 0 -91.5 10t-76.5 33.5t-52 62t-19 95.5q2 72 38.5 127t103 93t160.5 57.5t212 19.5v195q0 36 -13 60t-34 38.5t-47.5 20.5t-53.5 6
q-17 0 -48.5 -3.5t-63 -11.5t-55 -22.5t-23.5 -36.5q0 -6 9.5 -12.5t21 -16t21 -25t9.5 -40.5q0 -39 -23 -62.5t-61 -23.5q-42 0 -64 27.5t-22 70.5q0 28 17 62t55.5 64t101 50t154.5 20q104 0 160.5 -19.5t82.5 -49.5t30.5 -65t4.5 -66v-488q0 -46 5.5 -70t37.5 -24
q15 0 27 9.5t20.5 23.5t14.5 30t10 29h35zM584 428q-33 0 -73 -3t-80 -11t-77.5 -22.5t-66.5 -38t-46.5 -57.5t-17.5 -81q0 -75 43.5 -118.5t114.5 -43.5q49 0 84.5 14t73.5 46l14 14t14.5 22t11.5 35.5t5 53.5v190zM223 1214q6 -49 25.5 -87t50 -64t70 -39.5t84.5 -13.5
t84.5 13.5t70 39.5t50 64t24.5 87h55q-2 -74 -22 -133.5t-57 -100.5t-89 -63t-116 -22q-65 0 -117 22t-88.5 63t-57.5 100.5t-22 133.5h55zM806 1517q-9 -40 -27.5 -77.5t-45.5 -67t-63.5 -47t-81.5 -17.5q-43 0 -80 14.5t-71 32.5l-66.5 32t-64.5 15q-21 0 -39.5 -7.5
t-33 -20.5t-24.5 -30t-14 -36h-55q7 42 25 79t45.5 64t64.5 42.5t82 15.5q34 0 68.5 -15t68.5 -32q35 -19 68.5 -33t64.5 -14q26 0 44.5 8t32 21.5t23.5 32.5t19 40h60z" />
    <glyph glyph-name="uni1EB3" unicode="&#x1eb3;" 
d="M893 141q-2 -36 -16.5 -67t-37.5 -53.5t-54 -35t-66 -12.5q-57 0 -89.5 34t-43.5 91q-53 -65 -125.5 -95t-151.5 -30q-48 0 -91.5 10t-76.5 33.5t-52 62t-19 95.5q2 72 38.5 127t103 93t160.5 57.5t212 19.5v195q0 36 -13 60t-34 38.5t-47.5 20.5t-53.5 6
q-17 0 -48.5 -3.5t-63 -11.5t-55 -22.5t-23.5 -36.5q0 -6 9.5 -12.5t21 -16t21 -25t9.5 -40.5q0 -39 -23 -62.5t-61 -23.5q-42 0 -64 27.5t-22 70.5q0 28 17 62t55.5 64t101 50t154.5 20q104 0 160.5 -19.5t82.5 -49.5t30.5 -65t4.5 -66v-488q0 -46 5.5 -70t37.5 -24
q15 0 27 9.5t20.5 23.5t14.5 30t10 29h35zM584 428q-33 0 -73 -3t-80 -11t-77.5 -22.5t-66.5 -38t-46.5 -57.5t-17.5 -81q0 -75 43.5 -118.5t114.5 -43.5q49 0 84.5 14t73.5 46l14 14t14.5 22t11.5 35.5t5 53.5v190zM223 1214q6 -49 25.5 -87t50 -64t70 -39.5t84.5 -13.5
t84.5 13.5t70 39.5t50 64t24.5 87h55q-2 -74 -22 -133.5t-57 -100.5t-89 -63t-116 -22q-65 0 -117 22t-88.5 63t-57.5 100.5t-22 133.5h55zM404 1208q-24 47 -20.5 76.5t22.5 49t48.5 32l59 25t53.5 28t32 40.5q8 27 4.5 59t-20 59t-46.5 45.5t-75 18.5q-25 0 -49 -8
t-42.5 -19t-29.5 -24.5t-11 -23.5q1 -18 7 -25t15 -8.5t20.5 -0.5t23.5 -1.5t23 -10.5t20 -28q3 -28 -6 -45.5t-23 -26.5t-32 -10.5t-33 2.5q-35 8 -58 37t-23 70q0 40 18.5 70t46.5 50.5t61 31t63 10.5q45 0 85 -16.5t66.5 -46t36.5 -69.5t-3 -87q-7 -24 -17 -40t-26 -28
t-40 -22.5t-60 -23.5q-29 -11 -44 -28.5t-16 -37.5t12 -39.5t40 -34.5h-83z" />
    <glyph glyph-name="uni1EB7" unicode="&#x1eb7;" 
d="M893 141q-2 -36 -16.5 -67t-37.5 -53.5t-54 -35t-66 -12.5q-57 0 -89.5 34t-43.5 91q-53 -65 -125.5 -95t-151.5 -30q-48 0 -91.5 10t-76.5 33.5t-52 62t-19 95.5q2 72 38.5 127t103 93t160.5 57.5t212 19.5v195q0 36 -13 60t-34 38.5t-47.5 20.5t-53.5 6
q-17 0 -48.5 -3.5t-63 -11.5t-55 -22.5t-23.5 -36.5q0 -6 9.5 -12.5t21 -16t21 -25t9.5 -40.5q0 -39 -23 -62.5t-61 -23.5q-42 0 -64 27.5t-22 70.5q0 28 17 62t55.5 64t101 50t154.5 20q104 0 160.5 -19.5t82.5 -49.5t30.5 -65t4.5 -66v-488q0 -46 5.5 -70t37.5 -24
q15 0 27 9.5t20.5 23.5t14.5 30t10 29h35zM584 428q-33 0 -73 -3t-80 -11t-77.5 -22.5t-66.5 -38t-46.5 -57.5t-17.5 -81q0 -75 43.5 -118.5t114.5 -43.5q49 0 84.5 14t73.5 46l14 14t14.5 22t11.5 35.5t5 53.5v190zM223 1214q6 -49 25.5 -87t50 -64t70 -39.5t84.5 -13.5
t84.5 13.5t70 39.5t50 64t24.5 87h55q-2 -74 -22 -133.5t-57 -100.5t-89 -63t-116 -22q-65 0 -117 22t-88.5 63t-57.5 100.5t-22 133.5h55zM523 -437q-41 0 -68 27t-27 67t26.5 69t68.5 29q20 0 37.5 -8t30.5 -21.5t20.5 -31.5t7.5 -37q0 -20 -8 -37t-21 -30t-30.5 -20
t-36.5 -7z" />
    <glyph glyph-name="aring" unicode="&#xe5;" 
d="M893 141q-2 -36 -16.5 -67t-37.5 -53.5t-54 -35t-66 -12.5q-57 0 -89.5 34t-43.5 91q-53 -65 -125.5 -95t-151.5 -30q-48 0 -91.5 10t-76.5 33.5t-52 62t-19 95.5q2 72 38.5 127t103 93t160.5 57.5t212 19.5v195q0 36 -13 60t-34 38.5t-47.5 20.5t-53.5 6
q-17 0 -48.5 -3.5t-63 -11.5t-55 -22.5t-23.5 -36.5q0 -6 9.5 -12.5t21 -16t21 -25t9.5 -40.5q0 -39 -23 -62.5t-61 -23.5q-42 0 -64 27.5t-22 70.5q0 28 17 62t55.5 64t101 50t154.5 20q104 0 160.5 -19.5t82.5 -49.5t30.5 -65t4.5 -66v-488q0 -46 5.5 -70t37.5 -24
q15 0 27 9.5t20.5 23.5t14.5 30t10 29h35zM584 428q-33 0 -73 -3t-80 -11t-77.5 -22.5t-66.5 -38t-46.5 -57.5t-17.5 -81q0 -75 43.5 -118.5t114.5 -43.5q49 0 84.5 14t73.5 46l14 14t14.5 22t11.5 35.5t5 53.5v190zM449 1237q-29 0 -54.5 -10.5t-44 -29.5t-29 -44
t-10.5 -53q0 -29 10.5 -54t29 -43.5t44 -29t54.5 -10.5q28 0 53 10.5t43.5 29t29.5 43.5t11 54q0 28 -11 53t-29.5 44t-43.5 29.5t-53 10.5zM449 901q-42 0 -78.5 15.5t-63.5 42.5t-42 63t-15 78q0 41 15.5 77t42.5 63t63 42.5t78 15.5q40 0 76 -16t63 -43t43 -63t16 -76
q0 -42 -16 -78t-43 -63t-63 -42.5t-76 -15.5z" />
    <glyph glyph-name="uni1EA3" unicode="&#x1ea3;" 
d="M893 141q-2 -36 -16.5 -67t-37.5 -53.5t-54 -35t-66 -12.5q-57 0 -89.5 34t-43.5 91q-53 -65 -125.5 -95t-151.5 -30q-48 0 -91.5 10t-76.5 33.5t-52 62t-19 95.5q2 72 38.5 127t103 93t160.5 57.5t212 19.5v195q0 36 -13 60t-34 38.5t-47.5 20.5t-53.5 6
q-17 0 -48.5 -3.5t-63 -11.5t-55 -22.5t-23.5 -36.5q0 -6 9.5 -12.5t21 -16t21 -25t9.5 -40.5q0 -39 -23 -62.5t-61 -23.5q-42 0 -64 27.5t-22 70.5q0 28 17 62t55.5 64t101 50t154.5 20q104 0 160.5 -19.5t82.5 -49.5t30.5 -65t4.5 -66v-488q0 -46 5.5 -70t37.5 -24
q15 0 27 9.5t20.5 23.5t14.5 30t10 29h35zM584 428q-33 0 -73 -3t-80 -11t-77.5 -22.5t-66.5 -38t-46.5 -57.5t-17.5 -81q0 -75 43.5 -118.5t114.5 -43.5q49 0 84.5 14t73.5 46l14 14t14.5 22t11.5 35.5t5 53.5v190zM409 901q-23 47 -20 76.5t22 49t48.5 32l59 25t53.5 28
t32 40.5q8 27 4.5 59t-20 59t-46.5 45.5t-75 18.5q-25 0 -49 -8t-42.5 -19t-29.5 -24.5t-11 -23.5q1 -18 7 -25t15 -8.5t20.5 -0.5t23.5 -1.5t23 -10.5t20 -28q3 -28 -6 -45.5t-23 -26.5t-32 -10.5t-33 2.5q-35 8 -58 37t-23 70q0 40 18.5 70t46.5 50.5t61 31t63 10.5
q45 0 85 -16.5t66.5 -46t36.5 -69.5t-3 -87q-7 -24 -17 -40t-26 -28t-40 -22.5t-60 -23.5q-29 -11 -44 -28.5t-16 -37.5t12 -39.5t40 -34.5h-83z" />
    <glyph glyph-name="uni1EA1" unicode="&#x1ea1;" 
d="M893 141q-2 -36 -16.5 -67t-37.5 -53.5t-54 -35t-66 -12.5q-57 0 -89.5 34t-43.5 91q-53 -65 -125.5 -95t-151.5 -30q-48 0 -91.5 10t-76.5 33.5t-52 62t-19 95.5q2 72 38.5 127t103 93t160.5 57.5t212 19.5v195q0 36 -13 60t-34 38.5t-47.5 20.5t-53.5 6
q-17 0 -48.5 -3.5t-63 -11.5t-55 -22.5t-23.5 -36.5q0 -6 9.5 -12.5t21 -16t21 -25t9.5 -40.5q0 -39 -23 -62.5t-61 -23.5q-42 0 -64 27.5t-22 70.5q0 28 17 62t55.5 64t101 50t154.5 20q104 0 160.5 -19.5t82.5 -49.5t30.5 -65t4.5 -66v-488q0 -46 5.5 -70t37.5 -24
q15 0 27 9.5t20.5 23.5t14.5 30t10 29h35zM584 428q-33 0 -73 -3t-80 -11t-77.5 -22.5t-66.5 -38t-46.5 -57.5t-17.5 -81q0 -75 43.5 -118.5t114.5 -43.5q49 0 84.5 14t73.5 46l14 14t14.5 22t11.5 35.5t5 53.5v190zM523 -437q-41 0 -68 27t-27 67t26.5 69t68.5 29
q20 0 37.5 -8t30.5 -21.5t20.5 -31.5t7.5 -37q0 -20 -8 -37t-21 -30t-30.5 -20t-36.5 -7z" />
    <glyph glyph-name="ae" unicode="&#xe6;" horiz-adv-x="1366" 
d="M575 428q-33 0 -72.5 -3t-79.5 -11t-77.5 -22.5t-66.5 -38t-46.5 -57.5t-17.5 -81q0 -75 43.5 -118.5t114.5 -43.5q49 0 84.5 14t72.5 46l14 14t15 22t11.5 35.5t4.5 53.5v190zM1116 526v70q0 55 -15 92.5t-40.5 60t-60 32.5t-72.5 10q-46 0 -78 -19t-52.5 -42
t-30.5 -43.5t-11 -24.5q-10 -28 -14.5 -62.5t-6.5 -73.5h381zM1300 254q-15 -72 -48 -124.5t-79.5 -87.5t-106 -52t-126.5 -17q-45 0 -92.5 13.5t-90 37t-76.5 55t-52 66.5q-31 -41 -71 -73t-83.5 -54t-88.5 -33.5t-85 -11.5q-48 0 -91.5 10t-76.5 33.5t-52.5 62t-19.5 95.5
q3 72 39.5 127t103 93t160.5 57.5t211 19.5v195q0 36 -13 60t-33.5 38.5t-47 20.5t-53.5 6q-17 0 -48.5 -3.5t-63 -11.5t-55 -22.5t-23.5 -36.5q0 -6 9.5 -12.5t21 -16t21 -25t9.5 -40.5q0 -39 -23 -62.5t-61 -23.5q-42 0 -64 27.5t-22 70.5q0 28 17 62t55.5 64t101 50
t154.5 20q26 1 58 -1t65 -11.5t63 -28t51 -49.5q32 25 60.5 43t56.5 28.5t58 15t65 3.5q78 0 145 -25.5t116.5 -73t78 -114.5t29.5 -151h-572v-84q0 -76 6.5 -143t31 -117.5t72.5 -79.5t132 -29q44 0 89.5 18.5t85 51t68 76t39.5 94.5h45z" />
    <glyph glyph-name="aeacute" unicode="&#x1fd;" horiz-adv-x="1815" 
d="M575 428q-33 0 -72.5 -3t-79.5 -11t-77.5 -22.5t-66.5 -38t-46.5 -57.5t-17.5 -81q0 -75 43.5 -118.5t114.5 -43.5q49 0 84.5 14t72.5 46l14 14t15 22t11.5 35.5t4.5 53.5v190zM1116 526v70q0 55 -15 92.5t-40.5 60t-60 32.5t-72.5 10q-46 0 -78 -19t-52.5 -42
t-30.5 -43.5t-11 -24.5q-10 -28 -14.5 -62.5t-6.5 -73.5h381zM1300 254q-15 -72 -48 -124.5t-79.5 -87.5t-106 -52t-126.5 -17q-45 0 -92.5 13.5t-90 37t-76.5 55t-52 66.5q-31 -41 -71 -73t-83.5 -54t-88.5 -33.5t-85 -11.5q-48 0 -91.5 10t-76.5 33.5t-52.5 62t-19.5 95.5
q3 72 39.5 127t103 93t160.5 57.5t211 19.5v195q0 36 -13 60t-33.5 38.5t-47 20.5t-53.5 6q-17 0 -48.5 -3.5t-63 -11.5t-55 -22.5t-23.5 -36.5q0 -6 9.5 -12.5t21 -16t21 -25t9.5 -40.5q0 -39 -23 -62.5t-61 -23.5q-42 0 -64 27.5t-22 70.5q0 28 17 62t55.5 64t101 50
t154.5 20q26 1 58 -1t65 -11.5t63 -28t51 -49.5q32 25 60.5 43t56.5 28.5t58 15t65 3.5q78 0 145 -25.5t116.5 -73t78 -114.5t29.5 -151h-572v-84q0 -76 6.5 -143t31 -117.5t72.5 -79.5t132 -29q44 0 89.5 18.5t85 51t68 76t39.5 94.5h45zM1180 1194l32.5 31t39.5 16
q31 0 51.5 -19.5t20.5 -50.5q0 -17 -8 -30.5t-22 -26.5t-33.5 -25l-41.5 -26l-272 -166h-72z" />
    <glyph glyph-name="uni01E3" unicode="&#x1e3;" horiz-adv-x="1815" 
d="M575 428q-33 0 -72.5 -3t-79.5 -11t-77.5 -22.5t-66.5 -38t-46.5 -57.5t-17.5 -81q0 -75 43.5 -118.5t114.5 -43.5q49 0 84.5 14t72.5 46l14 14t15 22t11.5 35.5t4.5 53.5v190zM1116 526v70q0 55 -15 92.5t-40.5 60t-60 32.5t-72.5 10q-46 0 -78 -19t-52.5 -42
t-30.5 -43.5t-11 -24.5q-10 -28 -14.5 -62.5t-6.5 -73.5h381zM1300 254q-15 -72 -48 -124.5t-79.5 -87.5t-106 -52t-126.5 -17q-45 0 -92.5 13.5t-90 37t-76.5 55t-52 66.5q-31 -41 -71 -73t-83.5 -54t-88.5 -33.5t-85 -11.5q-48 0 -91.5 10t-76.5 33.5t-52.5 62t-19.5 95.5
q3 72 39.5 127t103 93t160.5 57.5t211 19.5v195q0 36 -13 60t-33.5 38.5t-47 20.5t-53.5 6q-17 0 -48.5 -3.5t-63 -11.5t-55 -22.5t-23.5 -36.5q0 -6 9.5 -12.5t21 -16t21 -25t9.5 -40.5q0 -39 -23 -62.5t-61 -23.5q-42 0 -64 27.5t-22 70.5q0 28 17 62t55.5 64t101 50
t154.5 20q26 1 58 -1t65 -11.5t63 -28t51 -49.5q32 25 60.5 43t56.5 28.5t58 15t65 3.5q78 0 145 -25.5t116.5 -73t78 -114.5t29.5 -151h-572v-84q0 -76 6.5 -143t31 -117.5t72.5 -79.5t132 -29q44 0 89.5 18.5t85 51t68 76t39.5 94.5h45zM594 1081h545v-102h-545v102z" />
    <glyph glyph-name="ccedilla" unicode="&#xe7;" 
d="M823 254q-18 -54 -43.5 -103.5t-65.5 -88t-96.5 -62.5t-136.5 -27q-8 0 -12 2l-49 -110q18 5 38.5 8.5t39.5 3.5q18 0 44 -7.5t50 -24t40.5 -43.5t16.5 -66q0 -51 -23 -84t-59 -52.5t-80 -27.5t-86 -8q-38 0 -85 7.5t-83 22.5l29 62l59 -16.5t60 -8.5q21 0 43 4.5
t40 14.5t30 26.5t12 40.5q0 22 -9 37t-22 24.5t-28.5 14t-28.5 4.5q-14 -2 -19.5 -2t-9.5 -0.5t-10.5 -2t-22.5 -5.5l-37 10l82 185q-63 9 -112.5 33t-86.5 57.5t-62.5 73.5t-41.5 81t-23 80.5t-7 71.5q0 91 22 160t58 119t81 83.5t90 53.5t87 28t71 8q50 0 106.5 -12
t104.5 -38.5t79.5 -68t31.5 -100.5q0 -21 -6.5 -40.5t-18.5 -34.5t-29 -24t-38 -9q-42 0 -69.5 25.5t-27.5 70.5q0 30 10.5 48t22.5 29.5t22.5 19t10.5 16.5q0 21 -21 35.5t-49.5 24t-57.5 14t-46 4.5q-74 0 -122 -26.5t-76 -79t-39 -129.5t-11 -177q0 -46 5 -86t12 -72
t14 -54.5t12 -33.5q23 -51 71.5 -81.5t129.5 -35.5q44 -2 87 14t80 47.5t67 76t48 100.5h43z" />
    <glyph glyph-name="dcroat" unicode="&#x111;" horiz-adv-x="1024" 
d="M971 47v-47q-68 0 -135 -2.5t-136 -13.5v137h-4q-43 -74 -111.5 -111t-156.5 -37q-78 0 -144 34.5t-114 94t-75 138t-27 166.5q0 86 25 163t74 135.5t119.5 92.5t162.5 34q24 0 57 -6.5t67 -24t66 -47.5t55 -77h4v387h-247v63h247v238h-137v47h68q57 0 115 4t114 15v-304
h111v-63h-111v-1016h113zM692 575q-2 8 -7.5 27t-16.5 43t-29 49.5t-44 47t-61.5 35.5t-82.5 14q-72 0 -111.5 -35t-58.5 -88t-23 -115t-4 -117q0 -118 8.5 -198.5t32 -129.5t63.5 -70.5t103 -21.5q20 0 40.5 5.5t39.5 14t35 18t26 18.5q29 26 49 49.5t32.5 58t18 85
t5.5 130.5q0 17 -0.5 41.5t-2 50.5t-4.5 49.5t-8 38.5z" />
    <glyph glyph-name="egrave" unicode="&#xe8;" 
d="M838 254q-15 -72 -48 -124.5t-80 -87.5t-106.5 -52t-126.5 -17q-78 0 -152 30t-131 82.5t-91.5 125t-34.5 158.5q0 90 28.5 173.5t81.5 147.5t127 102.5t166 38.5q78 0 145.5 -25.5t117 -73t77.5 -114.5t29 -151h-580v-84q0 -76 7.5 -143t33.5 -116.5t75.5 -78.5
t133.5 -29q44 0 89.5 18t85 50t68.5 75.5t40 94.5h45zM653 526v70q0 55 -15 92.5t-40.5 60t-60 32.5t-72.5 10q-46 0 -79.5 -18t-56 -41t-34 -44t-12.5 -26q-10 -28 -14.5 -62.5t-6.5 -73.5h391zM535 897l-273 166l-41 26t-33 25t-22 26.5t-8 30.5q0 31 20 50.5t51 19.5
q23 0 40 -16l32 -31l305 -297h-71z" />
    <glyph glyph-name="eacute" unicode="&#xe9;" 
d="M838 254q-15 -72 -48 -124.5t-80 -87.5t-106.5 -52t-126.5 -17q-78 0 -152 30t-131 82.5t-91.5 125t-34.5 158.5q0 90 28.5 173.5t81.5 147.5t127 102.5t166 38.5q78 0 145.5 -25.5t117 -73t77.5 -114.5t29 -151h-580v-84q0 -76 7.5 -143t33.5 -116.5t75.5 -78.5
t133.5 -29q44 0 89.5 18t85 50t68.5 75.5t40 94.5h45zM653 526v70q0 55 -15 92.5t-40.5 60t-60 32.5t-72.5 10q-46 0 -79.5 -18t-56 -41t-34 -44t-12.5 -26q-10 -28 -14.5 -62.5t-6.5 -73.5h391zM608 1194l32.5 31t39.5 16q31 0 51.5 -19.5t20.5 -50.5q0 -17 -8 -30.5
t-22 -26.5t-33.5 -25l-41.5 -26l-272 -166h-72z" />
    <glyph glyph-name="ecircumflex" unicode="&#xea;" 
d="M838 254q-15 -72 -48 -124.5t-80 -87.5t-106.5 -52t-126.5 -17q-78 0 -152 30t-131 82.5t-91.5 125t-34.5 158.5q0 90 28.5 173.5t81.5 147.5t127 102.5t166 38.5q78 0 145.5 -25.5t117 -73t77.5 -114.5t29 -151h-580v-84q0 -76 7.5 -143t33.5 -116.5t75.5 -78.5
t133.5 -29q44 0 89.5 18t85 50t68.5 75.5t40 94.5h45zM653 526v70q0 55 -15 92.5t-40.5 60t-60 32.5t-72.5 10q-46 0 -79.5 -18t-56 -41t-34 -44t-12.5 -26q-10 -28 -14.5 -62.5t-6.5 -73.5h391zM545 1237l248 -340h-66l-240 215l-239 -215h-70l252 340h115z" />
    <glyph glyph-name="uni1EC1" unicode="&#x1ec1;" 
d="M838 254q-15 -72 -48 -124.5t-80 -87.5t-106.5 -52t-126.5 -17q-78 0 -152 30t-131 82.5t-91.5 125t-34.5 158.5q0 90 28.5 173.5t81.5 147.5t127 102.5t166 38.5q78 0 145.5 -25.5t117 -73t77.5 -114.5t29 -151h-580v-84q0 -76 7.5 -143t33.5 -116.5t75.5 -78.5
t133.5 -29q44 0 89.5 18t85 50t68.5 75.5t40 94.5h45zM653 526v70q0 55 -15 92.5t-40.5 60t-60 32.5t-72.5 10q-46 0 -79.5 -18t-56 -41t-34 -44t-12.5 -26q-10 -28 -14.5 -62.5t-6.5 -73.5h391zM545 1237l248 -340h-66l-240 215l-239 -215h-70l252 340h115zM858 1159
l-273 166l-41 26t-33 25t-22 26.5t-8 30.5q0 31 20 50.5t51 19.5q23 0 40 -16l32 -31l305 -297h-71z" />
    <glyph glyph-name="uni1EBF" unicode="&#x1ebf;" 
d="M838 254q-15 -72 -48 -124.5t-80 -87.5t-106.5 -52t-126.5 -17q-78 0 -152 30t-131 82.5t-91.5 125t-34.5 158.5q0 90 28.5 173.5t81.5 147.5t127 102.5t166 38.5q78 0 145.5 -25.5t117 -73t77.5 -114.5t29 -151h-580v-84q0 -76 7.5 -143t33.5 -116.5t75.5 -78.5
t133.5 -29q44 0 89.5 18t85 50t68.5 75.5t40 94.5h45zM653 526v70q0 55 -15 92.5t-40.5 60t-60 32.5t-72.5 10q-46 0 -79.5 -18t-56 -41t-34 -44t-12.5 -26q-10 -28 -14.5 -62.5t-6.5 -73.5h391zM545 1237l248 -340h-66l-240 215l-239 -215h-70l252 340h115zM933 1456
l32.5 31t39.5 16q31 0 51.5 -19.5t20.5 -50.5q0 -17 -8 -30.5t-22 -26.5t-33.5 -25l-41.5 -26l-272 -166h-72z" />
    <glyph glyph-name="uni1EC5" unicode="&#x1ec5;" 
d="M838 254q-15 -72 -48 -124.5t-80 -87.5t-106.5 -52t-126.5 -17q-78 0 -152 30t-131 82.5t-91.5 125t-34.5 158.5q0 90 28.5 173.5t81.5 147.5t127 102.5t166 38.5q78 0 145.5 -25.5t117 -73t77.5 -114.5t29 -151h-580v-84q0 -76 7.5 -143t33.5 -116.5t75.5 -78.5
t133.5 -29q44 0 89.5 18t85 50t68.5 75.5t40 94.5h45zM653 526v70q0 55 -15 92.5t-40.5 60t-60 32.5t-72.5 10q-46 0 -79.5 -18t-56 -41t-34 -44t-12.5 -26q-10 -28 -14.5 -62.5t-6.5 -73.5h391zM545 1237l248 -340h-66l-240 215l-239 -215h-70l252 340h115zM806 1526
q-9 -40 -27.5 -77.5t-45.5 -67t-63.5 -47t-81.5 -17.5q-43 0 -80 14.5t-71 32.5l-66.5 32t-64.5 15q-21 0 -39.5 -7.5t-33 -20.5t-24.5 -30t-14 -36h-55q7 42 25 79t45.5 64t64.5 42.5t82 15.5q34 0 68.5 -15t68.5 -32q35 -19 68.5 -33t64.5 -14q26 0 44.5 8t32 21.5
t23.5 32.5t19 40h60z" />
    <glyph glyph-name="uni1EC3" unicode="&#x1ec3;" 
d="M838 254q-15 -72 -48 -124.5t-80 -87.5t-106.5 -52t-126.5 -17q-78 0 -152 30t-131 82.5t-91.5 125t-34.5 158.5q0 90 28.5 173.5t81.5 147.5t127 102.5t166 38.5q78 0 145.5 -25.5t117 -73t77.5 -114.5t29 -151h-580v-84q0 -76 7.5 -143t33.5 -116.5t75.5 -78.5
t133.5 -29q44 0 89.5 18t85 50t68.5 75.5t40 94.5h45zM653 526v70q0 55 -15 92.5t-40.5 60t-60 32.5t-72.5 10q-46 0 -79.5 -18t-56 -41t-34 -44t-12.5 -26q-10 -28 -14.5 -62.5t-6.5 -73.5h391zM545 1237l248 -340h-66l-240 215l-239 -215h-70l252 340h115zM611 1208
q-24 47 -20.5 76.5t22.5 49t48.5 32l59 25t53.5 28t32 40.5q8 27 4.5 59t-20 59t-46.5 45.5t-75 18.5q-25 0 -49 -8t-42.5 -19t-29.5 -24.5t-11 -23.5q1 -18 7 -25t15 -8.5t20.5 -0.5t23.5 -1.5t23 -10.5t20 -28q3 -28 -6 -45.5t-23 -26.5t-32 -10.5t-33 2.5q-35 8 -58 37
t-23 70q0 40 18.5 70t46.5 50.5t61 31t63 10.5q45 0 85 -16.5t66.5 -46t36.5 -69.5t-3 -87q-7 -24 -17 -40t-26 -28t-40 -22.5t-60 -23.5q-29 -11 -44 -28.5t-16 -37.5t12 -39.5t40 -34.5h-83z" />
    <glyph glyph-name="uni1EC7" unicode="&#x1ec7;" 
d="M838 254q-15 -72 -48 -124.5t-80 -87.5t-106.5 -52t-126.5 -17q-78 0 -152 30t-131 82.5t-91.5 125t-34.5 158.5q0 90 28.5 173.5t81.5 147.5t127 102.5t166 38.5q78 0 145.5 -25.5t117 -73t77.5 -114.5t29 -151h-580v-84q0 -76 7.5 -143t33.5 -116.5t75.5 -78.5
t133.5 -29q44 0 89.5 18t85 50t68.5 75.5t40 94.5h45zM653 526v70q0 55 -15 92.5t-40.5 60t-60 32.5t-72.5 10q-46 0 -79.5 -18t-56 -41t-34 -44t-12.5 -26q-10 -28 -14.5 -62.5t-6.5 -73.5h391zM545 1237l248 -340h-66l-240 215l-239 -215h-70l252 340h115zM490 -437
q-41 0 -68 27t-27 67t26.5 69t68.5 29q20 0 37.5 -8t30.5 -21.5t20.5 -31.5t7.5 -37q0 -20 -8 -37t-21 -30t-30.5 -20t-36.5 -7z" />
    <glyph glyph-name="uni1EBD" unicode="&#x1ebd;" 
d="M838 254q-15 -72 -48 -124.5t-80 -87.5t-106.5 -52t-126.5 -17q-78 0 -152 30t-131 82.5t-91.5 125t-34.5 158.5q0 90 28.5 173.5t81.5 147.5t127 102.5t166 38.5q78 0 145.5 -25.5t117 -73t77.5 -114.5t29 -151h-580v-84q0 -76 7.5 -143t33.5 -116.5t75.5 -78.5
t133.5 -29q44 0 89.5 18t85 50t68.5 75.5t40 94.5h45zM653 526v70q0 55 -15 92.5t-40.5 60t-60 32.5t-72.5 10q-46 0 -79.5 -18t-56 -41t-34 -44t-12.5 -26q-10 -28 -14.5 -62.5t-6.5 -73.5h391zM805 1155q-9 -40 -27.5 -77.5t-45.5 -67t-63.5 -47t-81.5 -17.5
q-43 0 -80 14.5t-71 32.5l-66.5 32t-64.5 15q-21 0 -39.5 -7.5t-33 -20.5t-24.5 -30t-14 -36h-55q7 42 25 79t45.5 64t64.5 42.5t82 15.5q34 0 68.5 -15t68.5 -32q35 -19 68.5 -33t64.5 -14q26 0 44.5 8t32 21.5t23.5 32.5t19 40h60z" />
    <glyph glyph-name="edieresis" unicode="&#xeb;" 
d="M838 254q-15 -72 -48 -124.5t-80 -87.5t-106.5 -52t-126.5 -17q-78 0 -152 30t-131 82.5t-91.5 125t-34.5 158.5q0 90 28.5 173.5t81.5 147.5t127 102.5t166 38.5q78 0 145.5 -25.5t117 -73t77.5 -114.5t29 -151h-580v-84q0 -76 7.5 -143t33.5 -116.5t75.5 -78.5
t133.5 -29q44 0 89.5 18t85 50t68.5 75.5t40 94.5h45zM653 526v70q0 55 -15 92.5t-40.5 60t-60 32.5t-72.5 10q-46 0 -79.5 -18t-56 -41t-34 -44t-12.5 -26q-10 -28 -14.5 -62.5t-6.5 -73.5h391zM254 934q-40 0 -67 27t-27 67t26 69t68 29q20 0 37.5 -8t30.5 -21.5
t20.5 -31.5t7.5 -37q0 -20 -8 -37t-21 -30t-30.5 -20t-36.5 -7zM653 934q-40 0 -67 27t-27 67t26 69t68 29q20 0 38 -8t31 -21.5t20.5 -31.5t7.5 -37q0 -20 -8 -37t-21 -30t-31 -20t-37 -7z" />
    <glyph glyph-name="uni1EBB" unicode="&#x1ebb;" 
d="M838 254q-15 -72 -48 -124.5t-80 -87.5t-106.5 -52t-126.5 -17q-78 0 -152 30t-131 82.5t-91.5 125t-34.5 158.5q0 90 28.5 173.5t81.5 147.5t127 102.5t166 38.5q78 0 145.5 -25.5t117 -73t77.5 -114.5t29 -151h-580v-84q0 -76 7.5 -143t33.5 -116.5t75.5 -78.5
t133.5 -29q44 0 89.5 18t85 50t68.5 75.5t40 94.5h45zM653 526v70q0 55 -15 92.5t-40.5 60t-60 32.5t-72.5 10q-46 0 -79.5 -18t-56 -41t-34 -44t-12.5 -26q-10 -28 -14.5 -62.5t-6.5 -73.5h391zM409 901q-23 47 -20 76.5t22 49t48.5 32l59 25t53.5 28t32 40.5q8 27 4.5 59
t-20 59t-46.5 45.5t-75 18.5q-25 0 -49 -8t-42.5 -19t-29.5 -24.5t-11 -23.5q1 -18 7 -25t15 -8.5t20.5 -0.5t23.5 -1.5t23 -10.5t20 -28q3 -28 -6 -45.5t-23 -26.5t-32 -10.5t-33 2.5q-35 8 -58 37t-23 70q0 40 18.5 70t46.5 50.5t61 31t63 10.5q45 0 85 -16.5t66.5 -46
t36.5 -69.5t-3 -87q-7 -24 -17 -40t-26 -28t-40 -22.5t-60 -23.5q-29 -11 -44 -28.5t-16 -37.5t12 -39.5t40 -34.5h-83z" />
    <glyph glyph-name="uni1EB9" unicode="&#x1eb9;" 
d="M838 254q-15 -72 -48 -124.5t-80 -87.5t-106.5 -52t-126.5 -17q-78 0 -152 30t-131 82.5t-91.5 125t-34.5 158.5q0 90 28.5 173.5t81.5 147.5t127 102.5t166 38.5q78 0 145.5 -25.5t117 -73t77.5 -114.5t29 -151h-580v-84q0 -76 7.5 -143t33.5 -116.5t75.5 -78.5
t133.5 -29q44 0 89.5 18t85 50t68.5 75.5t40 94.5h45zM653 526v70q0 55 -15 92.5t-40.5 60t-60 32.5t-72.5 10q-46 0 -79.5 -18t-56 -41t-34 -44t-12.5 -26q-10 -28 -14.5 -62.5t-6.5 -73.5h391zM522 -437q-41 0 -68 27t-27 67t26.5 69t68.5 29q20 0 37.5 -8t30.5 -21.5
t20.5 -31.5t7.5 -37q0 -20 -8 -37t-21 -30t-30.5 -20t-36.5 -7z" />
    <glyph glyph-name="igrave" unicode="&#xec;" horiz-adv-x="569" 
d="M144 0v47h137v717h-137v47h67q57 0 115.5 3t113.5 17v-784h121v-47h-417zM443 897l-273 166l-41 26t-33 25t-22 26.5t-8 30.5q0 31 20 50.5t51 19.5q23 0 40 -16l32 -31l305 -297h-71z" />
    <glyph glyph-name="iacute" unicode="&#xed;" horiz-adv-x="569" 
d="M66 0v47h137v717h-137v47h67q57 0 115.5 3t113.5 17v-784h121v-47h-417zM438 1194l32.5 31t39.5 16q31 0 51.5 -19.5t20.5 -50.5q0 -17 -8 -30.5t-22 -26.5t-33.5 -25l-41.5 -26l-272 -166h-72z" />
    <glyph glyph-name="icircumflex" unicode="&#xee;" horiz-adv-x="569" 
d="M155 0v47h137v717h-137v47h67q57 0 115.5 3t113.5 17v-784h121v-47h-417zM433 1237l248 -340h-66l-239 215l-240 -215h-70l252 340h115z" />
    <glyph glyph-name="idieresis" unicode="&#xef;" horiz-adv-x="569" 
d="M142 0v47h137v717h-137v47h67q57 0 115.5 3t113.5 17v-784h121v-47h-417zM160 934q-40 0 -67 27t-27 67t26 69t68 29q20 0 37.5 -8t30.5 -21.5t20.5 -31.5t7.5 -37q0 -20 -8 -37t-21 -30t-30.5 -20t-36.5 -7zM559 934q-40 0 -67 27t-27 67t26 69t68 29q20 0 38 -8
t31 -21.5t20.5 -31.5t7.5 -37q0 -20 -8 -37t-21 -30t-31 -20t-37 -7z" />
    <glyph glyph-name="uni1EC9" unicode="&#x1ec9;" horiz-adv-x="569" 
d="M66 0v47h137v717h-137v47h67q57 0 115.5 3t113.5 17v-784h121v-47h-417zM223 901q-24 47 -20.5 76.5t22.5 49t48.5 32l59 25t53.5 28t32 40.5q8 27 4.5 59t-20 59t-46.5 45.5t-75 18.5q-25 0 -49 -8t-42.5 -19t-29.5 -24.5t-11 -23.5q1 -18 7 -25t15 -8.5t20.5 -0.5
t23.5 -1.5t23 -10.5t20 -28q3 -28 -6 -45.5t-23 -26.5t-32 -10.5t-33 2.5q-35 8 -58 37t-23 70q0 40 18.5 70t46.5 50.5t61 31t63 10.5q45 0 85 -16.5t66.5 -46t36.5 -69.5t-3 -87q-7 -24 -17 -40t-26 -28t-40 -22.5t-60 -23.5q-29 -11 -44 -28.5t-16 -37.5t12 -39.5
t40 -34.5h-83z" />
    <glyph glyph-name="uni1ECB" unicode="&#x1ecb;" horiz-adv-x="569" 
d="M66 0v47h137v717h-137v47h67q57 0 115.5 3t113.5 17v-784h121v-47h-417zM182 1253q0 20 8 38t22 31.5t31.5 21.5t37.5 8q18 0 36.5 -8t33.5 -21.5t24.5 -31.5t9.5 -38q0 -48 -29.5 -78t-74.5 -30q-23 0 -41 8.5t-31 23.5t-20 34.5t-7 41.5zM285 -437q-41 0 -68 27t-27 67
t26.5 69t68.5 29q20 0 37.5 -8t30.5 -21.5t20.5 -31.5t7.5 -37q0 -20 -8 -37t-21 -30t-30.5 -20t-36.5 -7z" />
    <glyph glyph-name="dotlessi" unicode="&#x131;" horiz-adv-x="569" 
d="M66 0v47h137v717h-137v47h67q57 0 115.5 3t113.5 17v-784h121v-47h-417z" />
    <glyph glyph-name="ij" unicode="&#x133;" horiz-adv-x="569" 
d="M66 0v47h137v717h-137v47h67q57 0 115.5 3t113.5 17v-784h121v-47h-417zM182 1253q0 20 8 38t22 31.5t31.5 21.5t37.5 8q18 0 36.5 -8t33.5 -21.5t24.5 -31.5t9.5 -38q0 -48 -29.5 -78t-74.5 -30q-23 0 -41 8.5t-31 23.5t-20 34.5t-7 41.5zM840 4q0 -83 -20 -166.5
t-60.5 -151t-102.5 -109.5t-145 -42q-23 0 -47 7t-43.5 21t-32 34.5t-12.5 48.5q0 21 8.5 34t22 21t30.5 11t33 3q20 0 31.5 -11t19.5 -24q8 -15 13 -34q3 -17 17 -32t32 -15q23 0 39 13.5t26.5 34.5t17 47.5t9.5 53t3.5 50t0.5 38.5v928h-137v47h68q57 0 115 3t114 17v-827
zM660 1253q0 20 8 38t21.5 31.5t31.5 21.5t37 8q18 0 37 -8t34 -21.5t24.5 -31.5t9.5 -38q0 -48 -30 -78t-75 -30t-71.5 31.5t-26.5 76.5z" />
    <glyph glyph-name="ntilde" unicode="&#xf1;" horiz-adv-x="1024" 
d="M172 764h-113v47h43q29 0 58 0.5t57 3.5q29 2 58 6t57 10v-217h4q21 48 47.5 88t61 68.5t78.5 44.5t100 16q18 0 43 -2t52 -9t53.5 -20.5t47.5 -36t34 -56t13 -80.5v-580h111v-47h-377v47h107v553q0 56 -9 90t-25.5 52t-40.5 24t-54 6q-53 0 -98 -32t-78 -82t-51.5 -111
t-18.5 -119v-381h110v-47h-383v47h113v717zM848 1155q-9 -40 -27.5 -77.5t-45.5 -67t-63 -47t-81 -17.5q-44 0 -81 14.5t-71 32.5l-66.5 32t-64.5 15q-42 0 -72 -28t-38 -66h-56q8 42 26 79t45.5 64t64 42.5t81.5 15.5q34 0 69 -15t69 -32q35 -19 68.5 -33t64.5 -14
q26 0 44 8t31.5 21.5t23.5 32.5t19 40h60z" />
    <glyph glyph-name="ograve" unicode="&#xf2;" 
d="M455 831q81 0 152.5 -32t125.5 -89t85.5 -135.5t31.5 -171.5t-31.5 -171.5t-85.5 -136t-125.5 -90t-152.5 -32.5t-153 32.5t-126 90t-85.5 136t-31.5 171.5t31.5 171.5t85.5 135.5t126 89t153 32zM455 791q-52 0 -87.5 -17t-58.5 -46t-36 -67.5t-19 -81.5t-7 -88.5
t-1 -87.5q0 -43 1 -88.5t7 -89t19 -81.5t36 -67t58.5 -46t87.5 -17t87.5 17t58.5 46t36 67t19 81.5t7 89t1 88.5q0 42 -1 87.5t-7 88.5t-19 81.5t-36 67.5t-58.5 46t-87.5 17zM535 897l-273 166l-41 26t-33 25t-22 26.5t-8 30.5q0 31 20 50.5t51 19.5q23 0 40 -16l32 -31
l305 -297h-71z" />
    <glyph glyph-name="oacute" unicode="&#xf3;" 
d="M455 831q81 0 152.5 -32t125.5 -89t85.5 -135.5t31.5 -171.5t-31.5 -171.5t-85.5 -136t-125.5 -90t-152.5 -32.5t-153 32.5t-126 90t-85.5 136t-31.5 171.5t31.5 171.5t85.5 135.5t126 89t153 32zM455 791q-52 0 -87.5 -17t-58.5 -46t-36 -67.5t-19 -81.5t-7 -88.5
t-1 -87.5q0 -43 1 -88.5t7 -89t19 -81.5t36 -67t58.5 -46t87.5 -17t87.5 17t58.5 46t36 67t19 81.5t7 89t1 88.5q0 42 -1 87.5t-7 88.5t-19 81.5t-36 67.5t-58.5 46t-87.5 17zM608 1194l32.5 31t39.5 16q31 0 51.5 -19.5t20.5 -50.5q0 -17 -8 -30.5t-22 -26.5t-33.5 -25
l-41.5 -26l-272 -166h-72z" />
    <glyph glyph-name="ocircumflex" unicode="&#xf4;" 
d="M455 831q81 0 152.5 -32t125.5 -89t85.5 -135.5t31.5 -171.5t-31.5 -171.5t-85.5 -136t-125.5 -90t-152.5 -32.5t-153 32.5t-126 90t-85.5 136t-31.5 171.5t31.5 171.5t85.5 135.5t126 89t153 32zM455 791q-52 0 -87.5 -17t-58.5 -46t-36 -67.5t-19 -81.5t-7 -88.5
t-1 -87.5q0 -43 1 -88.5t7 -89t19 -81.5t36 -67t58.5 -46t87.5 -17t87.5 17t58.5 46t36 67t19 81.5t7 89t1 88.5q0 42 -1 87.5t-7 88.5t-19 81.5t-36 67.5t-58.5 46t-87.5 17zM514 1237l248 -340h-66l-239 215l-240 -215h-70l252 340h115z" />
    <glyph glyph-name="uni1ED3" unicode="&#x1ed3;" 
d="M455 831q81 0 152.5 -32t125.5 -89t85.5 -135.5t31.5 -171.5t-31.5 -171.5t-85.5 -136t-125.5 -90t-152.5 -32.5t-153 32.5t-126 90t-85.5 136t-31.5 171.5t31.5 171.5t85.5 135.5t126 89t153 32zM455 791q-52 0 -87.5 -17t-58.5 -46t-36 -67.5t-19 -81.5t-7 -88.5
t-1 -87.5q0 -43 1 -88.5t7 -89t19 -81.5t36 -67t58.5 -46t87.5 -17t87.5 17t58.5 46t36 67t19 81.5t7 89t1 88.5q0 42 -1 87.5t-7 88.5t-19 81.5t-36 67.5t-58.5 46t-87.5 17zM514 1237l248 -340h-66l-239 215l-240 -215h-70l252 340h115zM858 1159l-273 166l-41 26t-33 25
t-22 26.5t-8 30.5q0 31 20 50.5t51 19.5q23 0 40 -16l32 -31l305 -297h-71z" />
    <glyph glyph-name="uni1ED1" unicode="&#x1ed1;" 
d="M455 831q81 0 152.5 -32t125.5 -89t85.5 -135.5t31.5 -171.5t-31.5 -171.5t-85.5 -136t-125.5 -90t-152.5 -32.5t-153 32.5t-126 90t-85.5 136t-31.5 171.5t31.5 171.5t85.5 135.5t126 89t153 32zM455 791q-52 0 -87.5 -17t-58.5 -46t-36 -67.5t-19 -81.5t-7 -88.5
t-1 -87.5q0 -43 1 -88.5t7 -89t19 -81.5t36 -67t58.5 -46t87.5 -17t87.5 17t58.5 46t36 67t19 81.5t7 89t1 88.5q0 42 -1 87.5t-7 88.5t-19 81.5t-36 67.5t-58.5 46t-87.5 17zM514 1237l248 -340h-66l-239 215l-240 -215h-70l252 340h115zM933 1456l32.5 31t39.5 16
q31 0 51.5 -19.5t20.5 -50.5q0 -17 -8 -30.5t-22 -26.5t-33.5 -25l-41.5 -26l-272 -166h-72z" />
    <glyph glyph-name="uni1ED7" unicode="&#x1ed7;" 
d="M455 831q81 0 152.5 -32t125.5 -89t85.5 -135.5t31.5 -171.5t-31.5 -171.5t-85.5 -136t-125.5 -90t-152.5 -32.5t-153 32.5t-126 90t-85.5 136t-31.5 171.5t31.5 171.5t85.5 135.5t126 89t153 32zM455 791q-52 0 -87.5 -17t-58.5 -46t-36 -67.5t-19 -81.5t-7 -88.5
t-1 -87.5q0 -43 1 -88.5t7 -89t19 -81.5t36 -67t58.5 -46t87.5 -17t87.5 17t58.5 46t36 67t19 81.5t7 89t1 88.5q0 42 -1 87.5t-7 88.5t-19 81.5t-36 67.5t-58.5 46t-87.5 17zM514 1237l248 -340h-66l-239 215l-240 -215h-70l252 340h115zM774 1526q-9 -40 -27.5 -77.5
t-45.5 -67t-63.5 -47t-81.5 -17.5q-43 0 -80 14.5t-71 32.5l-66.5 32t-64.5 15q-21 0 -39.5 -7.5t-33 -20.5t-24.5 -30t-14 -36h-55q7 42 25 79t45.5 64t64.5 42.5t82 15.5q34 0 68.5 -15t68.5 -32q35 -19 68.5 -33t64.5 -14q26 0 44.5 8t32 21.5t23.5 32.5t19 40h60z" />
    <glyph glyph-name="uni1ED5" unicode="&#x1ed5;" 
d="M455 831q81 0 152.5 -32t125.5 -89t85.5 -135.5t31.5 -171.5t-31.5 -171.5t-85.5 -136t-125.5 -90t-152.5 -32.5t-153 32.5t-126 90t-85.5 136t-31.5 171.5t31.5 171.5t85.5 135.5t126 89t153 32zM455 791q-52 0 -87.5 -17t-58.5 -46t-36 -67.5t-19 -81.5t-7 -88.5
t-1 -87.5q0 -43 1 -88.5t7 -89t19 -81.5t36 -67t58.5 -46t87.5 -17t87.5 17t58.5 46t36 67t19 81.5t7 89t1 88.5q0 42 -1 87.5t-7 88.5t-19 81.5t-36 67.5t-58.5 46t-87.5 17zM514 1237l248 -340h-66l-239 215l-240 -215h-70l252 340h115zM611 1208q-24 47 -20.5 76.5
t22.5 49t48.5 32l59 25t53.5 28t32 40.5q8 27 4.5 59t-20 59t-46.5 45.5t-75 18.5q-25 0 -49 -8t-42.5 -19t-29.5 -24.5t-11 -23.5q1 -18 7 -25t15 -8.5t20.5 -0.5t23.5 -1.5t23 -10.5t20 -28q3 -28 -6 -45.5t-23 -26.5t-32 -10.5t-33 2.5q-35 8 -58 37t-23 70q0 40 18.5 70
t46.5 50.5t61 31t63 10.5q45 0 85 -16.5t66.5 -46t36.5 -69.5t-3 -87q-7 -24 -17 -40t-26 -28t-40 -22.5t-60 -23.5q-29 -11 -44 -28.5t-16 -37.5t12 -39.5t40 -34.5h-83z" />
    <glyph glyph-name="uni1ED9" unicode="&#x1ed9;" 
d="M455 831q81 0 152.5 -32t125.5 -89t85.5 -135.5t31.5 -171.5t-31.5 -171.5t-85.5 -136t-125.5 -90t-152.5 -32.5t-153 32.5t-126 90t-85.5 136t-31.5 171.5t31.5 171.5t85.5 135.5t126 89t153 32zM455 791q-52 0 -87.5 -17t-58.5 -46t-36 -67.5t-19 -81.5t-7 -88.5
t-1 -87.5q0 -43 1 -88.5t7 -89t19 -81.5t36 -67t58.5 -46t87.5 -17t87.5 17t58.5 46t36 67t19 81.5t7 89t1 88.5q0 42 -1 87.5t-7 88.5t-19 81.5t-36 67.5t-58.5 46t-87.5 17zM514 1237l248 -340h-66l-239 215l-240 -215h-70l252 340h115zM464 -437q-41 0 -68 27t-27 67
t26.5 69t68.5 29q20 0 37.5 -8t30.5 -21.5t20.5 -31.5t7.5 -37q0 -20 -8 -37t-21 -30t-30.5 -20t-36.5 -7z" />
    <glyph glyph-name="otilde" unicode="&#xf5;" 
d="M455 831q81 0 152.5 -32t125.5 -89t85.5 -135.5t31.5 -171.5t-31.5 -171.5t-85.5 -136t-125.5 -90t-152.5 -32.5t-153 32.5t-126 90t-85.5 136t-31.5 171.5t31.5 171.5t85.5 135.5t126 89t153 32zM455 791q-52 0 -87.5 -17t-58.5 -46t-36 -67.5t-19 -81.5t-7 -88.5
t-1 -87.5q0 -43 1 -88.5t7 -89t19 -81.5t36 -67t58.5 -46t87.5 -17t87.5 17t58.5 46t36 67t19 81.5t7 89t1 88.5q0 42 -1 87.5t-7 88.5t-19 81.5t-36 67.5t-58.5 46t-87.5 17zM791 1155q-9 -40 -27.5 -77.5t-45.5 -67t-63.5 -47t-81.5 -17.5q-43 0 -80 14.5t-71 32.5
l-66.5 32t-64.5 15q-21 0 -39.5 -7.5t-33 -20.5t-24.5 -30t-14 -36h-55q7 42 25 79t45.5 64t64.5 42.5t82 15.5q34 0 68.5 -15t68.5 -32q35 -19 68.5 -33t64.5 -14q26 0 44.5 8t32 21.5t23.5 32.5t19 40h60z" />
    <glyph glyph-name="odieresis" unicode="&#xf6;" 
d="M455 831q81 0 152.5 -32t125.5 -89t85.5 -135.5t31.5 -171.5t-31.5 -171.5t-85.5 -136t-125.5 -90t-152.5 -32.5t-153 32.5t-126 90t-85.5 136t-31.5 171.5t31.5 171.5t85.5 135.5t126 89t153 32zM455 791q-52 0 -87.5 -17t-58.5 -46t-36 -67.5t-19 -81.5t-7 -88.5
t-1 -87.5q0 -43 1 -88.5t7 -89t19 -81.5t36 -67t58.5 -46t87.5 -17t87.5 17t58.5 46t36 67t19 81.5t7 89t1 88.5q0 42 -1 87.5t-7 88.5t-19 81.5t-36 67.5t-58.5 46t-87.5 17zM254 934q-40 0 -67 27t-27 67t26 69t68 29q20 0 37.5 -8t30.5 -21.5t20.5 -31.5t7.5 -37
q0 -20 -8 -37t-21 -30t-30.5 -20t-36.5 -7zM653 934q-40 0 -67 27t-27 67t26 69t68 29q20 0 38 -8t31 -21.5t20.5 -31.5t7.5 -37q0 -20 -8 -37t-21 -30t-31 -20t-37 -7z" />
    <glyph glyph-name="uni1ECF" unicode="&#x1ecf;" 
d="M455 831q81 0 152.5 -32t125.5 -89t85.5 -135.5t31.5 -171.5t-31.5 -171.5t-85.5 -136t-125.5 -90t-152.5 -32.5t-153 32.5t-126 90t-85.5 136t-31.5 171.5t31.5 171.5t85.5 135.5t126 89t153 32zM455 791q-52 0 -87.5 -17t-58.5 -46t-36 -67.5t-19 -81.5t-7 -88.5
t-1 -87.5q0 -43 1 -88.5t7 -89t19 -81.5t36 -67t58.5 -46t87.5 -17t87.5 17t58.5 46t36 67t19 81.5t7 89t1 88.5q0 42 -1 87.5t-7 88.5t-19 81.5t-36 67.5t-58.5 46t-87.5 17zM409 901q-23 47 -20 76.5t22 49t48.5 32l59 25t53.5 28t32 40.5q8 27 4.5 59t-20 59t-46.5 45.5
t-75 18.5q-25 0 -49 -8t-42.5 -19t-29.5 -24.5t-11 -23.5q1 -18 7 -25t15 -8.5t20.5 -0.5t23.5 -1.5t23 -10.5t20 -28q3 -28 -6 -45.5t-23 -26.5t-32 -10.5t-33 2.5q-35 8 -58 37t-23 70q0 40 18.5 70t46.5 50.5t61 31t63 10.5q45 0 85 -16.5t66.5 -46t36.5 -69.5t-3 -87
q-7 -24 -17 -40t-26 -28t-40 -22.5t-60 -23.5q-29 -11 -44 -28.5t-16 -37.5t12 -39.5t40 -34.5h-83z" />
    <glyph glyph-name="uni1ECD" unicode="&#x1ecd;" 
d="M455 831q81 0 152.5 -32t125.5 -89t85.5 -135.5t31.5 -171.5t-31.5 -171.5t-85.5 -136t-125.5 -90t-152.5 -32.5t-153 32.5t-126 90t-85.5 136t-31.5 171.5t31.5 171.5t85.5 135.5t126 89t153 32zM455 791q-52 0 -87.5 -17t-58.5 -46t-36 -67.5t-19 -81.5t-7 -88.5
t-1 -87.5q0 -43 1 -88.5t7 -89t19 -81.5t36 -67t58.5 -46t87.5 -17t87.5 17t58.5 46t36 67t19 81.5t7 89t1 88.5q0 42 -1 87.5t-7 88.5t-19 81.5t-36 67.5t-58.5 46t-87.5 17zM452 -437q-41 0 -68 27t-27 67t26.5 69t68.5 29q20 0 37.5 -8t30.5 -21.5t20.5 -31.5t7.5 -37
q0 -20 -8 -37t-21 -30t-30.5 -20t-36.5 -7z" />
    <glyph glyph-name="ohorn" unicode="&#x1a1;" horiz-adv-x="1024" 
d="M455 831q94 0 175.5 -43t135.5 -118q77 31 117 63t55 72q7 18 9 28.5t1 16t-4 7.5t-6 3q-5 2 -12.5 -3.5t-20.5 -11.5t-31.5 -7.5t-44.5 8.5q-34 12 -52.5 46.5t-0.5 84.5q9 22 25.5 37.5t37.5 23t44 7.5t45 -9q62 -24 86 -80.5t-8 -140.5q-13 -33 -35.5 -60.5
t-51.5 -49.5t-62.5 -39.5t-68.5 -30.5q29 -50 45.5 -107.5t16.5 -124.5q0 -93 -31.5 -171.5t-85.5 -136t-125.5 -90t-152.5 -32.5t-153 32.5t-126 90t-85.5 136t-31.5 171.5t31.5 171.5t85.5 135.5t126 89t153 32zM455 791q-52 0 -87.5 -17t-58.5 -46t-36 -67.5t-19 -81.5
t-7 -88.5t-1 -87.5q0 -43 1 -88.5t7 -89t19 -81.5t36 -67t58.5 -46t87.5 -17t87.5 17t58.5 46t36 67t19 81.5t7 89t1 88.5q0 42 -1 87.5t-7 88.5t-19 81.5t-36 67.5t-58.5 46t-87.5 17z" />
    <glyph glyph-name="uni1EDD" unicode="&#x1edd;" horiz-adv-x="1024" 
d="M455 831q94 0 175.5 -43t135.5 -118q77 31 117 63t55 72q7 18 9 28.5t1 16t-4 7.5t-6 3q-5 2 -12.5 -3.5t-20.5 -11.5t-31.5 -7.5t-44.5 8.5q-34 12 -52.5 46.5t-0.5 84.5q9 22 25.5 37.5t37.5 23t44 7.5t45 -9q62 -24 86 -80.5t-8 -140.5q-13 -33 -35.5 -60.5
t-51.5 -49.5t-62.5 -39.5t-68.5 -30.5q29 -50 45.5 -107.5t16.5 -124.5q0 -93 -31.5 -171.5t-85.5 -136t-125.5 -90t-152.5 -32.5t-153 32.5t-126 90t-85.5 136t-31.5 171.5t31.5 171.5t85.5 135.5t126 89t153 32zM455 791q-52 0 -87.5 -17t-58.5 -46t-36 -67.5t-19 -81.5
t-7 -88.5t-1 -87.5q0 -43 1 -88.5t7 -89t19 -81.5t36 -67t58.5 -46t87.5 -17t87.5 17t58.5 46t36 67t19 81.5t7 89t1 88.5q0 42 -1 87.5t-7 88.5t-19 81.5t-36 67.5t-58.5 46t-87.5 17zM525 897l-273 166l-41 26t-33 25t-22 26.5t-8 30.5q0 31 20 50.5t51 19.5q23 0 40 -16
l32 -31l305 -297h-71z" />
    <glyph glyph-name="uni1EDB" unicode="&#x1edb;" horiz-adv-x="1024" 
d="M455 831q94 0 175.5 -43t135.5 -118q77 31 117 63t55 72q7 18 9 28.5t1 16t-4 7.5t-6 3q-5 2 -12.5 -3.5t-20.5 -11.5t-31.5 -7.5t-44.5 8.5q-34 12 -52.5 46.5t-0.5 84.5q9 22 25.5 37.5t37.5 23t44 7.5t45 -9q62 -24 86 -80.5t-8 -140.5q-13 -33 -35.5 -60.5
t-51.5 -49.5t-62.5 -39.5t-68.5 -30.5q29 -50 45.5 -107.5t16.5 -124.5q0 -93 -31.5 -171.5t-85.5 -136t-125.5 -90t-152.5 -32.5t-153 32.5t-126 90t-85.5 136t-31.5 171.5t31.5 171.5t85.5 135.5t126 89t153 32zM455 791q-52 0 -87.5 -17t-58.5 -46t-36 -67.5t-19 -81.5
t-7 -88.5t-1 -87.5q0 -43 1 -88.5t7 -89t19 -81.5t36 -67t58.5 -46t87.5 -17t87.5 17t58.5 46t36 67t19 81.5t7 89t1 88.5q0 42 -1 87.5t-7 88.5t-19 81.5t-36 67.5t-58.5 46t-87.5 17zM634 1194l32.5 31t39.5 16q31 0 51.5 -19.5t20.5 -50.5q0 -17 -8 -30.5t-22 -26.5
t-33.5 -25l-41.5 -26l-272 -166h-72z" />
    <glyph glyph-name="uni1EE1" unicode="&#x1ee1;" horiz-adv-x="1024" 
d="M455 831q94 0 175.5 -43t135.5 -118q77 31 117 63t55 72q7 18 9 28.5t1 16t-4 7.5t-6 3q-5 2 -12.5 -3.5t-20.5 -11.5t-31.5 -7.5t-44.5 8.5q-34 12 -52.5 46.5t-0.5 84.5q9 22 25.5 37.5t37.5 23t44 7.5t45 -9q62 -24 86 -80.5t-8 -140.5q-13 -33 -35.5 -60.5
t-51.5 -49.5t-62.5 -39.5t-68.5 -30.5q29 -50 45.5 -107.5t16.5 -124.5q0 -93 -31.5 -171.5t-85.5 -136t-125.5 -90t-152.5 -32.5t-153 32.5t-126 90t-85.5 136t-31.5 171.5t31.5 171.5t85.5 135.5t126 89t153 32zM455 791q-52 0 -87.5 -17t-58.5 -46t-36 -67.5t-19 -81.5
t-7 -88.5t-1 -87.5q0 -43 1 -88.5t7 -89t19 -81.5t36 -67t58.5 -46t87.5 -17t87.5 17t58.5 46t36 67t19 81.5t7 89t1 88.5q0 42 -1 87.5t-7 88.5t-19 81.5t-36 67.5t-58.5 46t-87.5 17zM805 1155q-9 -40 -27.5 -77.5t-45.5 -67t-63.5 -47t-81.5 -17.5q-43 0 -80 14.5
t-71 32.5l-66.5 32t-64.5 15q-21 0 -39.5 -7.5t-33 -20.5t-24.5 -30t-14 -36h-55q7 42 25 79t45.5 64t64.5 42.5t82 15.5q34 0 68.5 -15t68.5 -32q35 -19 68.5 -33t64.5 -14q26 0 44.5 8t32 21.5t23.5 32.5t19 40h60z" />
    <glyph glyph-name="uni1EDF" unicode="&#x1edf;" horiz-adv-x="1024" 
d="M455 831q94 0 175.5 -43t135.5 -118q77 31 117 63t55 72q7 18 9 28.5t1 16t-4 7.5t-6 3q-5 2 -12.5 -3.5t-20.5 -11.5t-31.5 -7.5t-44.5 8.5q-34 12 -52.5 46.5t-0.5 84.5q9 22 25.5 37.5t37.5 23t44 7.5t45 -9q62 -24 86 -80.5t-8 -140.5q-13 -33 -35.5 -60.5
t-51.5 -49.5t-62.5 -39.5t-68.5 -30.5q29 -50 45.5 -107.5t16.5 -124.5q0 -93 -31.5 -171.5t-85.5 -136t-125.5 -90t-152.5 -32.5t-153 32.5t-126 90t-85.5 136t-31.5 171.5t31.5 171.5t85.5 135.5t126 89t153 32zM455 791q-52 0 -87.5 -17t-58.5 -46t-36 -67.5t-19 -81.5
t-7 -88.5t-1 -87.5q0 -43 1 -88.5t7 -89t19 -81.5t36 -67t58.5 -46t87.5 -17t87.5 17t58.5 46t36 67t19 81.5t7 89t1 88.5q0 42 -1 87.5t-7 88.5t-19 81.5t-36 67.5t-58.5 46t-87.5 17zM409 901q-23 47 -20 76.5t22 49t48.5 32l59 25t53.5 28t32 40.5q8 27 4.5 59t-20 59
t-46.5 45.5t-75 18.5q-25 0 -49 -8t-42.5 -19t-29.5 -24.5t-11 -23.5q1 -18 7 -25t15 -8.5t20.5 -0.5t23.5 -1.5t23 -10.5t20 -28q3 -28 -6 -45.5t-23 -26.5t-32 -10.5t-33 2.5q-35 8 -58 37t-23 70q0 40 18.5 70t46.5 50.5t61 31t63 10.5q45 0 85 -16.5t66.5 -46
t36.5 -69.5t-3 -87q-7 -24 -17 -40t-26 -28t-40 -22.5t-60 -23.5q-29 -11 -44 -28.5t-16 -37.5t12 -39.5t40 -34.5h-83z" />
    <glyph glyph-name="uni1EE3" unicode="&#x1ee3;" horiz-adv-x="1024" 
d="M455 831q94 0 175.5 -43t135.5 -118q77 31 117 63t55 72q7 18 9 28.5t1 16t-4 7.5t-6 3q-5 2 -12.5 -3.5t-20.5 -11.5t-31.5 -7.5t-44.5 8.5q-34 12 -52.5 46.5t-0.5 84.5q9 22 25.5 37.5t37.5 23t44 7.5t45 -9q62 -24 86 -80.5t-8 -140.5q-13 -33 -35.5 -60.5
t-51.5 -49.5t-62.5 -39.5t-68.5 -30.5q29 -50 45.5 -107.5t16.5 -124.5q0 -93 -31.5 -171.5t-85.5 -136t-125.5 -90t-152.5 -32.5t-153 32.5t-126 90t-85.5 136t-31.5 171.5t31.5 171.5t85.5 135.5t126 89t153 32zM455 791q-52 0 -87.5 -17t-58.5 -46t-36 -67.5t-19 -81.5
t-7 -88.5t-1 -87.5q0 -43 1 -88.5t7 -89t19 -81.5t36 -67t58.5 -46t87.5 -17t87.5 17t58.5 46t36 67t19 81.5t7 89t1 88.5q0 42 -1 87.5t-7 88.5t-19 81.5t-36 67.5t-58.5 46t-87.5 17zM472 -437q-41 0 -68 27t-27 67t26.5 69t68.5 29q20 0 37.5 -8t30.5 -21.5t20.5 -31.5
t7.5 -37q0 -20 -8 -37t-21 -30t-30.5 -20t-36.5 -7z" />
    <glyph glyph-name="oslash" unicode="&#xf8;" 
d="M588 739q-23 25 -55.5 38.5t-77.5 13.5q-52 0 -87.5 -17t-58.5 -46t-36 -67.5t-19 -81.5t-7 -88.5t-1 -87.5q0 -34 0.5 -69.5t3.5 -70t10 -67.5t19 -61zM322 66q21 -22 53.5 -37t79.5 -15q52 0 87.5 17t58.5 46t36 67t19 81.5t7 89t1 88.5q0 34 -0.5 69.5t-3.5 70
t-9 66.5t-18 61zM100 -209l133 258q-40 27 -72 64.5t-54.5 83t-35 97.5t-12.5 109q0 93 31.5 171.5t85.5 135.5t126 89t153 32q43 0 83 -8.5t78 -25.5l115 219h78l-131 -256q78 -59 125 -150t47 -207q0 -93 -31.5 -171.5t-85.5 -136t-125.5 -90t-152.5 -32.5
q-44 0 -84.5 10.5t-77.5 28.5l-115 -221h-78z" />
    <glyph glyph-name="oe" unicode="&#x153;" horiz-adv-x="1479" 
d="M1401 254q-15 -72 -48 -124.5t-80 -87.5t-106 -52t-127 -17q-37 0 -76.5 8t-78 24.5t-73.5 41.5t-62 59q-28 -35 -62 -60t-72 -41t-78 -24t-79 -8q-81 0 -153 32.5t-126 90t-85.5 136t-31.5 171.5t31.5 171.5t85.5 135.5t126 89t153 32q88 -2 161.5 -40t129.5 -97
q34 31 67 56.5t67.5 43t71 27t78.5 10.5q78 0 145.5 -25.5t117 -73t77.5 -114.5t29 -151h-580v-84q0 -76 7.5 -143t33.5 -117.5t75.5 -79.5t133.5 -29q44 0 89.5 18.5t85 51t68.5 76t40 94.5h45zM459 791q-52 0 -87.5 -17t-58.5 -46t-36 -67.5t-19 -81.5t-7 -88.5t-1 -87.5
q0 -43 1 -88.5t7 -89t19 -81.5t36 -67t58.5 -46t87.5 -17t87.5 17t58.5 46t36 67t19 81.5t7 89t1 88.5q0 42 -1 87.5t-7 88.5t-19 81.5t-36 67.5t-58.5 46t-87.5 17zM1217 526v70q0 55 -15 92.5t-41 60t-60.5 32.5t-72.5 10q-46 0 -79.5 -18t-56 -41t-34 -44t-12.5 -26
q-9 -28 -14 -62.5t-7 -73.5h392z" />
    <glyph glyph-name="germandbls" unicode="&#xdf;" horiz-adv-x="1024" 
d="M51 0v47h119v1024q0 77 25 141t70 110.5t106.5 72.5t134.5 26t141.5 -21t121.5 -63t85.5 -105.5t32.5 -148.5q0 -41 -14 -87.5t-46.5 -91.5t-84.5 -83.5t-128 -62.5v-4q91 -12 154 -52t102.5 -95t57.5 -120t18 -127q0 -77 -20.5 -147.5t-61 -123.5t-101.5 -84.5
t-142 -31.5q-44 0 -82 14t-66.5 38.5t-44.5 57.5t-16 71q0 57 26 87.5t80 30.5q16 0 31 -6.5t26 -17.5t18 -26t7 -32q0 -25 -9.5 -40t-21 -26.5t-21 -24t-9.5 -33.5q0 -14 8 -24t19.5 -16t25 -9t24.5 -3q34 0 58 16t40 41.5t25 58.5t14 67t6 67t1 58q0 39 -1 82.5t-7 86.5
t-18 83t-34.5 71t-56.5 51t-84 23q-14 2 -30.5 3t-28.5 1q-28 0 -39.5 6t-11.5 23q0 15 14 17.5t33 2.5q66 0 113.5 25t72.5 94q7 21 12.5 39.5t8.5 42.5t4.5 58t1.5 87q0 82 -22 133t-53 79t-63 38t-53 10q-43 0 -79 -9t-62 -33.5t-40.5 -69.5t-14.5 -117v-1149h-271z" />
    <glyph glyph-name="ugrave" unicode="&#xf9;" horiz-adv-x="1024" 
d="M963 0h-43q-56 0 -112 -4t-112 -10v166h-4q-40 -85 -118.5 -133t-178.5 -48q-75 0 -122 17.5t-73.5 45.5t-36 63.5t-9.5 72.5v594h-111v47h41q57 0 115.5 3t113.5 17v-643q0 -47 11 -76.5t28.5 -46t40 -22.5t45.5 -6q55 0 100.5 21t78.5 57.5t51 85.5t18 104v459h-117v47
h47q57 0 115.5 3t114.5 17v-784h117v-47zM592 897l-273 166l-41 26t-33 25t-22 26.5t-8 30.5q0 31 20.5 50.5t51.5 19.5q23 0 39.5 -16l31.5 -31l306 -297h-72z" />
    <glyph glyph-name="uacute" unicode="&#xfa;" horiz-adv-x="1024" 
d="M963 0h-43q-56 0 -112 -4t-112 -10v166h-4q-40 -85 -118.5 -133t-178.5 -48q-75 0 -122 17.5t-73.5 45.5t-36 63.5t-9.5 72.5v594h-111v47h41q57 0 115.5 3t113.5 17v-643q0 -47 11 -76.5t28.5 -46t40 -22.5t45.5 -6q55 0 100.5 21t78.5 57.5t51 85.5t18 104v459h-117v47
h47q57 0 115.5 3t114.5 17v-784h117v-47zM666 1194l31.5 31t39.5 16q31 0 51.5 -19.5t20.5 -50.5q0 -17 -8 -30.5t-22 -26.5t-33 -25l-41 -26l-273 -166h-72z" />
    <glyph glyph-name="ucircumflex" unicode="&#xfb;" horiz-adv-x="1024" 
d="M963 0h-43q-56 0 -112 -4t-112 -10v166h-4q-40 -85 -118.5 -133t-178.5 -48q-75 0 -122 17.5t-73.5 45.5t-36 63.5t-9.5 72.5v594h-111v47h41q57 0 115.5 3t113.5 17v-643q0 -47 11 -76.5t28.5 -46t40 -22.5t45.5 -6q55 0 100.5 21t78.5 57.5t51 85.5t18 104v459h-117v47
h47q57 0 115.5 3t114.5 17v-784h117v-47zM571 1237l248 -340h-65l-240 215l-240 -215h-69l252 340h114z" />
    <glyph glyph-name="utilde" unicode="&#x169;" horiz-adv-x="1024" 
d="M963 0h-43q-56 0 -112 -4t-112 -10v166h-4q-40 -85 -118.5 -133t-178.5 -48q-75 0 -122 17.5t-73.5 45.5t-36 63.5t-9.5 72.5v594h-111v47h41q57 0 115.5 3t113.5 17v-643q0 -47 11 -76.5t28.5 -46t40 -22.5t45.5 -6q55 0 100.5 21t78.5 57.5t51 85.5t18 104v459h-117v47
h47q57 0 115.5 3t114.5 17v-784h117v-47zM805 1155q-9 -40 -27.5 -77.5t-45.5 -67t-63.5 -47t-81.5 -17.5q-43 0 -80 14.5t-71 32.5l-66.5 32t-64.5 15q-21 0 -39.5 -7.5t-33 -20.5t-24.5 -30t-14 -36h-55q7 42 25 79t45.5 64t64.5 42.5t82 15.5q34 0 68.5 -15t68.5 -32
q35 -19 68.5 -33t64.5 -14q26 0 44.5 8t32 21.5t23.5 32.5t19 40h60z" />
    <glyph glyph-name="uni1EE7" unicode="&#x1ee7;" horiz-adv-x="1024" 
d="M963 0h-43q-56 0 -112 -4t-112 -10v166h-4q-40 -85 -118.5 -133t-178.5 -48q-75 0 -122 17.5t-73.5 45.5t-36 63.5t-9.5 72.5v594h-111v47h41q57 0 115.5 3t113.5 17v-643q0 -47 11 -76.5t28.5 -46t40 -22.5t45.5 -6q55 0 100.5 21t78.5 57.5t51 85.5t18 104v459h-117v47
h47q57 0 115.5 3t114.5 17v-784h117v-47zM409 901q-23 47 -20 76.5t22 49t48.5 32l59 25t53.5 28t32 40.5q8 27 4.5 59t-20 59t-46.5 45.5t-75 18.5q-25 0 -49 -8t-42.5 -19t-29.5 -24.5t-11 -23.5q1 -18 7 -25t15 -8.5t20.5 -0.5t23.5 -1.5t23 -10.5t20 -28q3 -28 -6 -45.5
t-23 -26.5t-32 -10.5t-33 2.5q-35 8 -58 37t-23 70q0 40 18.5 70t46.5 50.5t61 31t63 10.5q45 0 85 -16.5t66.5 -46t36.5 -69.5t-3 -87q-7 -24 -17 -40t-26 -28t-40 -22.5t-60 -23.5q-29 -11 -44 -28.5t-16 -37.5t12 -39.5t40 -34.5h-83z" />
    <glyph glyph-name="uni1EE5" unicode="&#x1ee5;" horiz-adv-x="1024" 
d="M963 0h-43q-56 0 -112 -4t-112 -10v166h-4q-40 -85 -118.5 -133t-178.5 -48q-75 0 -122 17.5t-73.5 45.5t-36 63.5t-9.5 72.5v594h-111v47h41q57 0 115.5 3t113.5 17v-643q0 -47 11 -76.5t28.5 -46t40 -22.5t45.5 -6q55 0 100.5 21t78.5 57.5t51 85.5t18 104v459h-117v47
h47q57 0 115.5 3t114.5 17v-784h117v-47zM559 -437q-41 0 -68 27t-27 67t26.5 69t68.5 29q20 0 37.5 -8t30.5 -21.5t20.5 -31.5t7.5 -37q0 -20 -8 -37t-21 -30t-30.5 -20t-36.5 -7z" />
    <glyph glyph-name="uhorn" unicode="&#x1b0;" horiz-adv-x="1112" 
d="M963 0h-43q-56 0 -112 -4t-112 -10v166h-4q-40 -85 -118.5 -133t-178.5 -48q-75 0 -122 17.5t-73.5 45.5t-36 63.5t-9.5 72.5v594h-111v47h41q57 0 115.5 3t113.5 17v-643q0 -47 11 -76.5t28.5 -46t40 -22.5t45.5 -6q55 0 100.5 21t78.5 57.5t51 85.5t18 104v459h-117v47
h47q57 0 115.5 3t114.5 17v-165q81 32 123 64.5t57 74.5q7 18 9 28.5t1 16t-4 7.5t-6 3q-5 2 -12.5 -3.5t-20 -11.5t-31 -7.5t-44.5 8.5q-17 6 -31 18t-22 29t-9 38t8 46q9 22 25.5 37.5t37.5 23t44 7.5t45 -9q62 -24 86 -80.5t-8 -140.5q-15 -37 -41 -66.5t-59.5 -53
t-71.5 -41t-76 -29.5v-578h117v-47z" />
    <glyph glyph-name="uni1EEB" unicode="&#x1eeb;" horiz-adv-x="1112" 
d="M963 0h-43q-56 0 -112 -4t-112 -10v166h-4q-40 -85 -118.5 -133t-178.5 -48q-75 0 -122 17.5t-73.5 45.5t-36 63.5t-9.5 72.5v594h-111v47h41q57 0 115.5 3t113.5 17v-643q0 -47 11 -76.5t28.5 -46t40 -22.5t45.5 -6q55 0 100.5 21t78.5 57.5t51 85.5t18 104v459h-117v47
h47q57 0 115.5 3t114.5 17v-165q81 32 123 64.5t57 74.5q7 18 9 28.5t1 16t-4 7.5t-6 3q-5 2 -12.5 -3.5t-20 -11.5t-31 -7.5t-44.5 8.5q-17 6 -31 18t-22 29t-9 38t8 46q9 22 25.5 37.5t37.5 23t44 7.5t45 -9q62 -24 86 -80.5t-8 -140.5q-15 -37 -41 -66.5t-59.5 -53
t-71.5 -41t-76 -29.5v-578h117v-47zM583 897l-273 166l-41 26t-33 25t-22 26.5t-8 30.5q0 31 20 50.5t51 19.5q23 0 40 -16l32 -31l305 -297h-71z" />
    <glyph glyph-name="uni1EE9" unicode="&#x1ee9;" horiz-adv-x="1112" 
d="M963 0h-43q-56 0 -112 -4t-112 -10v166h-4q-40 -85 -118.5 -133t-178.5 -48q-75 0 -122 17.5t-73.5 45.5t-36 63.5t-9.5 72.5v594h-111v47h41q57 0 115.5 3t113.5 17v-643q0 -47 11 -76.5t28.5 -46t40 -22.5t45.5 -6q55 0 100.5 21t78.5 57.5t51 85.5t18 104v459h-117v47
h47q57 0 115.5 3t114.5 17v-165q81 32 123 64.5t57 74.5q7 18 9 28.5t1 16t-4 7.5t-6 3q-5 2 -12.5 -3.5t-20 -11.5t-31 -7.5t-44.5 8.5q-17 6 -31 18t-22 29t-9 38t8 46q9 22 25.5 37.5t37.5 23t44 7.5t45 -9q62 -24 86 -80.5t-8 -140.5q-15 -37 -41 -66.5t-59.5 -53
t-71.5 -41t-76 -29.5v-578h117v-47zM634 1194l32.5 31t39.5 16q31 0 51.5 -19.5t20.5 -50.5q0 -17 -8 -30.5t-22 -26.5t-33.5 -25l-41.5 -26l-272 -166h-72z" />
    <glyph glyph-name="uni1EEF" unicode="&#x1eef;" horiz-adv-x="1112" 
d="M963 0h-43q-56 0 -112 -4t-112 -10v166h-4q-40 -85 -118.5 -133t-178.5 -48q-75 0 -122 17.5t-73.5 45.5t-36 63.5t-9.5 72.5v594h-111v47h41q57 0 115.5 3t113.5 17v-643q0 -47 11 -76.5t28.5 -46t40 -22.5t45.5 -6q55 0 100.5 21t78.5 57.5t51 85.5t18 104v459h-117v47
h47q57 0 115.5 3t114.5 17v-165q81 32 123 64.5t57 74.5q7 18 9 28.5t1 16t-4 7.5t-6 3q-5 2 -12.5 -3.5t-20 -11.5t-31 -7.5t-44.5 8.5q-17 6 -31 18t-22 29t-9 38t8 46q9 22 25.5 37.5t37.5 23t44 7.5t45 -9q62 -24 86 -80.5t-8 -140.5q-15 -37 -41 -66.5t-59.5 -53
t-71.5 -41t-76 -29.5v-578h117v-47zM805 1155q-9 -40 -27.5 -77.5t-45.5 -67t-63.5 -47t-81.5 -17.5q-43 0 -80 14.5t-71 32.5l-66.5 32t-64.5 15q-21 0 -39.5 -7.5t-33 -20.5t-24.5 -30t-14 -36h-55q7 42 25 79t45.5 64t64.5 42.5t82 15.5q34 0 68.5 -15t68.5 -32
q35 -19 68.5 -33t64.5 -14q26 0 44.5 8t32 21.5t23.5 32.5t19 40h60z" />
    <glyph glyph-name="uni1EED" unicode="&#x1eed;" horiz-adv-x="1112" 
d="M963 0h-43q-56 0 -112 -4t-112 -10v166h-4q-40 -85 -118.5 -133t-178.5 -48q-75 0 -122 17.5t-73.5 45.5t-36 63.5t-9.5 72.5v594h-111v47h41q57 0 115.5 3t113.5 17v-643q0 -47 11 -76.5t28.5 -46t40 -22.5t45.5 -6q55 0 100.5 21t78.5 57.5t51 85.5t18 104v459h-117v47
h47q57 0 115.5 3t114.5 17v-165q81 32 123 64.5t57 74.5q7 18 9 28.5t1 16t-4 7.5t-6 3q-5 2 -12.5 -3.5t-20 -11.5t-31 -7.5t-44.5 8.5q-17 6 -31 18t-22 29t-9 38t8 46q9 22 25.5 37.5t37.5 23t44 7.5t45 -9q62 -24 86 -80.5t-8 -140.5q-15 -37 -41 -66.5t-59.5 -53
t-71.5 -41t-76 -29.5v-578h117v-47zM443 901q-23 47 -20 76.5t22 49t48.5 32l59 25t53.5 28t32 40.5q8 27 4.5 59t-20 59t-46.5 45.5t-75 18.5q-25 0 -49 -8t-42.5 -19t-29.5 -24.5t-11 -23.5q1 -18 7 -25t15 -8.5t20.5 -0.5t23.5 -1.5t23 -10.5t20 -28q3 -28 -6 -45.5
t-23 -26.5t-32 -10.5t-33 2.5q-35 8 -58 37t-23 70q0 40 18.5 70t46.5 50.5t61 31t63 10.5q45 0 85 -16.5t66.5 -46t36.5 -69.5t-3 -87q-7 -24 -17 -40t-26 -28t-40 -22.5t-60 -23.5q-29 -11 -44 -28.5t-16 -37.5t12 -39.5t40 -34.5h-83z" />
    <glyph glyph-name="uni1EF1" unicode="&#x1ef1;" horiz-adv-x="1112" 
d="M963 0h-43q-56 0 -112 -4t-112 -10v166h-4q-40 -85 -118.5 -133t-178.5 -48q-75 0 -122 17.5t-73.5 45.5t-36 63.5t-9.5 72.5v594h-111v47h41q57 0 115.5 3t113.5 17v-643q0 -47 11 -76.5t28.5 -46t40 -22.5t45.5 -6q55 0 100.5 21t78.5 57.5t51 85.5t18 104v459h-117v47
h47q57 0 115.5 3t114.5 17v-165q81 32 123 64.5t57 74.5q7 18 9 28.5t1 16t-4 7.5t-6 3q-5 2 -12.5 -3.5t-20 -11.5t-31 -7.5t-44.5 8.5q-17 6 -31 18t-22 29t-9 38t8 46q9 22 25.5 37.5t37.5 23t44 7.5t45 -9q62 -24 86 -80.5t-8 -140.5q-15 -37 -41 -66.5t-59.5 -53
t-71.5 -41t-76 -29.5v-578h117v-47zM559 -437q-41 0 -68 27t-27 67t26.5 69t68.5 29q20 0 37.5 -8t30.5 -21.5t20.5 -31.5t7.5 -37q0 -20 -8 -37t-21 -30t-30.5 -20t-36.5 -7z" />
    <glyph glyph-name="ygrave" unicode="&#x1ef3;" 
d="M766 764l-328 -901q-27 -74 -52.5 -134.5t-56 -103.5t-67.5 -66.5t-86 -23.5q-16 0 -33.5 7t-31.5 19.5t-23.5 29t-9.5 34.5q0 42 25 65t59 23q31 0 48 -11.5t27.5 -26t16.5 -26t14 -11.5q23 0 40.5 35t37.5 89l14 33.5t18.5 46.5l24 66l31.5 92l-313 764h-96v47h393v-47
h-131l227 -551l195 551h-131v47h290v-47h-102zM525 897l-273 166l-41 26t-33 25t-22 26.5t-8 30.5q0 31 20 50.5t51 19.5q23 0 40 -16l32 -31l305 -297h-71z" />
    <glyph glyph-name="yacute" unicode="&#xfd;" 
d="M766 764l-328 -901q-27 -74 -52.5 -134.5t-56 -103.5t-67.5 -66.5t-86 -23.5q-16 0 -33.5 7t-31.5 19.5t-23.5 29t-9.5 34.5q0 42 25 65t59 23q31 0 48 -11.5t27.5 -26t16.5 -26t14 -11.5q23 0 40.5 35t37.5 89l14 33.5t18.5 46.5l24 66l31.5 92l-313 764h-96v47h393v-47
h-131l227 -551l195 551h-131v47h290v-47h-102zM670 1194l31.5 31t39.5 16q31 0 51.5 -19.5t20.5 -50.5q0 -17 -8 -30.5t-22 -26.5t-33 -25l-41 -26l-273 -166h-71z" />
    <glyph glyph-name="uni1EF9" unicode="&#x1ef9;" 
d="M766 764l-328 -901q-27 -74 -52.5 -134.5t-56 -103.5t-67.5 -66.5t-86 -23.5q-16 0 -33.5 7t-31.5 19.5t-23.5 29t-9.5 34.5q0 42 25 65t59 23q31 0 48 -11.5t27.5 -26t16.5 -26t14 -11.5q23 0 40.5 35t37.5 89l14 33.5t18.5 46.5l24 66l31.5 92l-313 764h-96v47h393v-47
h-131l227 -551l195 551h-131v47h290v-47h-102zM803 1155q-9 -40 -27.5 -77.5t-45.5 -67t-63.5 -47t-81.5 -17.5q-43 0 -80 14.5t-71 32.5l-66.5 32t-64.5 15q-21 0 -39.5 -7.5t-33 -20.5t-24.5 -30t-14 -36h-55q7 42 25 79t45.5 64t64.5 42.5t82 15.5q34 0 68.5 -15
t68.5 -32q35 -19 68.5 -33t64.5 -14q26 0 44.5 8t32 21.5t23.5 32.5t19 40h60z" />
    <glyph glyph-name="ydieresis" unicode="&#xff;" 
d="M766 764l-328 -901q-27 -74 -52.5 -134.5t-56 -103.5t-67.5 -66.5t-86 -23.5q-16 0 -33.5 7t-31.5 19.5t-23.5 29t-9.5 34.5q0 42 25 65t59 23q31 0 48 -11.5t27.5 -26t16.5 -26t14 -11.5q23 0 40.5 35t37.5 89l14 33.5t18.5 46.5l24 66l31.5 92l-313 764h-96v47h393v-47
h-131l227 -551l195 551h-131v47h290v-47h-102zM295 934q-40 0 -67 27t-27 67t26 69t68 29q20 0 37.5 -8t30.5 -21.5t20.5 -31.5t7.5 -37q0 -20 -8 -37t-21 -30t-30.5 -20t-36.5 -7zM694 934q-40 0 -67 27t-27 67t26 69t68 29q20 0 38 -8t31 -21.5t20.5 -31.5t7.5 -37
q0 -20 -8 -37t-21.5 -30t-31 -20t-36.5 -7z" />
    <glyph glyph-name="uni1EF7" unicode="&#x1ef7;" 
d="M766 764l-328 -901q-27 -74 -52.5 -134.5t-56 -103.5t-67.5 -66.5t-86 -23.5q-16 0 -33.5 7t-31.5 19.5t-23.5 29t-9.5 34.5q0 42 25 65t59 23q31 0 48 -11.5t27.5 -26t16.5 -26t14 -11.5q23 0 40.5 35t37.5 89l14 33.5t18.5 46.5l24 66l31.5 92l-313 764h-96v47h393v-47
h-131l227 -551l195 551h-131v47h290v-47h-102zM465 901q-23 47 -20 76.5t22 49t48.5 32l59 25t53.5 28t32 40.5q8 27 4.5 59t-20 59t-46.5 45.5t-75 18.5q-25 0 -49 -8t-42.5 -19t-29.5 -24.5t-11 -23.5q1 -18 7 -25t15 -8.5t20.5 -0.5t23.5 -1.5t23 -10.5t20 -28
q3 -28 -6 -45.5t-23 -26.5t-32 -10.5t-33 2.5q-35 8 -58 37t-23 70q0 40 18.5 70t46.5 50.5t61 31t63 10.5q45 0 85 -16.5t66.5 -46t36.5 -69.5t-3 -87q-7 -24 -17 -40t-26 -28t-40 -22.5t-60 -23.5q-29 -11 -44 -28.5t-16 -37.5t12 -39.5t40 -34.5h-83z" />
    <glyph glyph-name="uni1EF5" unicode="&#x1ef5;" 
d="M766 764l-328 -901q-27 -74 -52.5 -134.5t-56 -103.5t-67.5 -66.5t-86 -23.5q-16 0 -33.5 7t-31.5 19.5t-23.5 29t-9.5 34.5q0 42 25 65t59 23q31 0 48 -11.5t27.5 -26t16.5 -26t14 -11.5q23 0 40.5 35t37.5 89l14 33.5t18.5 46.5l24 66l31.5 92l-313 764h-96v47h393v-47
h-131l227 -551l195 551h-131v47h290v-47h-102zM595 -437q-41 0 -68 27t-27 67t26.5 69t68.5 29q20 0 37.5 -8t30.5 -21.5t20.5 -31.5t7.5 -37q0 -20 -8 -37t-21 -30t-30.5 -20t-36.5 -7z" />
    <glyph glyph-name="eth" unicode="&#xf0;" 
d="M455 791q-52 0 -87.5 -17t-58.5 -46t-36 -67.5t-19 -81.5t-7 -88.5t-1 -87.5q0 -43 1 -88.5t7 -89t19 -81.5t36 -67t58.5 -46t87.5 -17t87.5 17t58.5 46t36 67t19 81.5t7 89t1 88.5q0 42 -1 87.5t-7 88.5t-19 81.5t-36 67.5t-58.5 46t-87.5 17zM254 1008l240 159
q-42 65 -97.5 119t-130.5 94l72 50q74 -45 134.5 -95.5t111.5 -107.5l254 172l36 -47l-251 -170q62 -75 105 -155.5t70 -165t39.5 -172.5t12.5 -177q0 -120 -23 -219t-71.5 -170t-123 -110.5t-177.5 -39.5q-81 0 -153 32.5t-126 90t-85.5 136t-31.5 171.5t31.5 171.5
t85.5 135.5t126 89t153 32q49 0 95 -13.5t91 -45.5q-14 91 -42 178.5t-73 167.5l-235 -157z" />
    <glyph glyph-name="thorn" unicode="&#xfe;" horiz-adv-x="1024" 
d="M166 1364h-117v47h47q57 0 115.5 4t114.5 15v-742h4q15 28 39 53.5t55 45.5t66 32t71 12q43 0 89 -10.5t90 -33t83 -58t68.5 -85t47 -114t17.5 -145.5q0 -75 -25 -149t-74 -132.5t-122 -94.5t-168 -36q-83 0 -141 36t-96 102h-4v-527h139v-47h-420v47h121v1780zM334 553
q-8 -51 -8 -97v-91q0 -51 2 -85t6.5 -59t12.5 -45t20 -43q13 -25 35 -47t48.5 -38t53.5 -25t49 -9q26 0 52 2t50.5 13t45 34t36 64.5t24.5 106t9 157.5q0 111 -11.5 186t-37 121t-65.5 66t-97 20q-15 0 -47.5 -8t-68 -33t-66.5 -70t-43 -120z" />
    <glyph glyph-name="fi" unicode="&#xfb01;" horiz-adv-x="1024" 
d="M12 0v47h158v717h-158v47h158v100q0 124 29.5 218.5t82 158t123.5 95.5t154 32q36 0 80 -7.5t82 -26.5t64 -50t26 -78q0 -16 -7.5 -31.5t-19.5 -27.5t-27 -19.5t-30 -7.5q-42 0 -68 28.5t-26 70.5q0 13 6 24t13.5 19.5t13.5 14t6 7.5q0 11 -13.5 19.5t-32 14t-38.5 8.5
t-33 3q-68 0 -112 -36t-69 -94.5t-34.5 -134t-9.5 -153.5v-147h301q57 0 115 3t114 17v-784h121v-47h-403v47h122v717h-370v-717h125v-47h-443z" />
    <glyph glyph-name="fl" unicode="&#xfb02;" horiz-adv-x="1024" 
d="M700 811v385q-11 2 -21.5 12t-19.5 22.5t-14.5 26.5t-5.5 25q0 18 4.5 30.5t10 21t10 13.5t4.5 9q0 7 -12 12t-29 8t-37 4.5t-35 1.5q-26 0 -64.5 -14.5t-74 -53.5t-61 -108.5t-25.5 -179.5v-215h370zM860 47h121v-47h-403v47h122v717h-370v-717h125v-47h-443v47h158v717
h-158v47h158v107q0 124 29.5 218t82 157.5t123.5 95.5t154 32q32 0 60 -5t51 -13q24 -6 42.5 -12.5t30.5 -6.5q31 0 59.5 10.5t57.5 18.5v-1366z" />
    <glyph glyph-name="ampersand" unicode="&#x26;" horiz-adv-x="1479" 
d="M653 889q55 23 91.5 48t58.5 57.5t31.5 75.5t9.5 101q0 38 -10.5 71t-30.5 57.5t-50 38.5t-69 14q-35 0 -66.5 -11t-55.5 -32t-38 -51t-14 -68q0 -33 15.5 -74t38 -82t47 -79zM1014 301q46 58 79.5 116t55.5 117.5t33.5 122t13.5 129.5h-182v48h403v-48h-172
q-5 -71 -18.5 -142.5t-37.5 -139.5t-60.5 -131t-88.5 -117l127 -209h179v-47h-373l-70 117q-38 -33 -86 -60.5t-101 -47t-107 -30t-103 -10.5q-81 0 -144 18.5t-110.5 50t-81 73.5t-54.5 89t-30.5 97t-9.5 98q0 47 18 102.5t64 113t123.5 113t197.5 103.5l-40.5 71
t-37.5 73.5t-28 76.5t-11 80q0 69 28 119.5t73 84.5t103 50.5t118 16.5q55 0 110 -16.5t98.5 -48.5t71 -80t27.5 -111q0 -29 -10 -64t-42.5 -73t-94 -78t-164.5 -78zM502 784q-46 -18 -89.5 -40t-77 -52.5t-53.5 -72.5t-20 -99q0 -42 11.5 -93.5t32 -104.5t50.5 -102.5
t66.5 -88.5t79.5 -62.5t90 -23.5q42 0 79 8.5t71.5 23.5t67.5 36t67 47z" />
    <glyph glyph-name="comma" unicode="," horiz-adv-x="512" 
d="M160 -295q51 42 87 78t58.5 68.5t32.5 61.5t10 58q0 21 -2.5 32.5t-6 17.5t-7.5 7t-8 1q-7 0 -12.5 -9t-16.5 -20q-11 -12 -29 -21.5t-49 -9.5q-54 0 -82.5 30.5t-28.5 84.5q0 26 11.5 48.5t31 39t43.5 26t50 9.5q37 0 68.5 -12.5t54.5 -37t36 -62t13 -87.5
q0 -53 -21.5 -102t-56 -92t-76.5 -79.5t-84 -64.5z" />
    <glyph glyph-name="semicolon" unicode=";" horiz-adv-x="512" 
d="M160 -295q51 42 87 78t58.5 68.5t32.5 61.5t10 58q0 21 -2.5 32.5t-6 17.5t-7.5 7t-8 1q-7 0 -12.5 -9t-16.5 -20q-11 -12 -29 -21.5t-49 -9.5q-54 0 -82.5 30.5t-28.5 84.5q0 26 11.5 48.5t31 39t43.5 26t50 9.5q37 0 68.5 -12.5t54.5 -37t36 -62t13 -87.5
q0 -53 -21.5 -102t-56 -92t-76.5 -79.5t-84 -64.5zM252 602q-51 0 -84 33t-33 84q0 23 10 43.5t26.5 35.5t37.5 24t43 9t44.5 -8.5t40.5 -23.5t29 -35.5t11 -44.5q0 -26 -10.5 -47.5t-27.5 -37t-40 -24t-47 -8.5z" />
    <glyph glyph-name="colon" unicode=":" horiz-adv-x="512" 
d="M252 602q-51 0 -84 33t-33 84q0 23 10 43.5t26.5 35.5t37.5 24t43 9t44.5 -8.5t40.5 -23.5t29 -35.5t11 -44.5q0 -26 -10.5 -47.5t-27.5 -37t-40 -24t-47 -8.5zM252 -23q-26 0 -47 9t-37 24.5t-24.5 37t-8.5 46.5q0 23 10 43.5t26.5 36t37.5 24.5t43 9t44.5 -8.5
t40.5 -24t29 -36t11 -44.5q0 -26 -10.5 -47.5t-27.5 -37t-40 -24t-47 -8.5z" />
    <glyph glyph-name="period" unicode="." horiz-adv-x="512" 
d="M252 -23q-26 0 -47 9t-37 24.5t-24.5 37t-8.5 46.5q0 23 10 43.5t26.5 36t37.5 24.5t43 9t44.5 -8.5t40.5 -24t29 -36t11 -44.5q0 -26 -10.5 -47.5t-27.5 -37t-40 -24t-47 -8.5z" />
    <glyph glyph-name="ellipsis" unicode="&#x2026;" horiz-adv-x="2048" 
d="M338 -23q-26 0 -47 9t-37 24.5t-24.5 37t-8.5 46.5q0 23 10 43.5t26.5 36t37.5 24.5t43 9t44.5 -8.5t40.5 -24t29 -36t11 -44.5q0 -26 -10.5 -47.5t-27.5 -37t-40 -24t-47 -8.5zM1020 -23q-26 0 -47 9t-37 24.5t-24.5 37t-8.5 46.5q0 23 10 43.5t26.5 36t37.5 24.5t43 9
t44.5 -8.5t40.5 -24t29 -36t11 -44.5q0 -26 -10.5 -47.5t-27.5 -37t-40 -24t-47 -8.5zM1702 -23q-26 0 -47 9t-37 24.5t-24.5 37t-8.5 46.5q0 23 10 43.5t26 36t37 24.5t44 9q22 0 44.5 -8.5t40.5 -24t29 -36t11 -44.5q0 -26 -10.5 -47.5t-27.5 -37t-40 -24t-47 -8.5z" />
    <glyph glyph-name="exclam" unicode="!" horiz-adv-x="569" 
d="M262 410q-3 107 -11 207.5t-18.5 190.5t-22 166.5l-21 134.5l-15.5 96.5t-6 51.5q0 26 7 51.5t21.5 45t36.5 31.5t52 12t52 -12t36 -31.5t21 -45t7 -51.5q0 -13 -6 -51.5l-15.5 -96.5l-21 -134.5t-22 -166.5t-18.5 -190.5t-11 -207.5h-45zM281 -23q-51 0 -84 33.5
t-33 85.5q0 24 10 45t26 36.5t37 24.5t44 9q22 0 44.5 -8.5t40.5 -24t29 -36.5t11 -46q0 -27 -10.5 -48.5t-27.5 -37.5t-40 -24.5t-47 -8.5z" />
    <glyph glyph-name="exclamdown" unicode="&#xa1;" horiz-adv-x="569" 
d="M307 532q4 -161 19.5 -306t32 -259t29.5 -188.5t13 -93.5q0 -26 -7 -51.5t-21 -45t-36 -31.5t-52 -12t-52 12t-36.5 31.5t-21.5 45t-7 51.5q0 19 13 93.5t29.5 188.5t31.5 259t20 306h45zM281 731q-51 0 -84 33t-33 86q0 24 10 44.5t26 36.5t37 25t44 9q22 0 44.5 -9
t40.5 -24.5t29 -36.5t11 -45q0 -27 -10.5 -49t-27.5 -37.5t-40 -24t-47 -8.5z" />
    <glyph glyph-name="question" unicode="?" 
d="M330 393q-8 32 -9.5 66.5t-1.5 66.5q0 73 14.5 129.5t50 110.5t95 113t150.5 137q23 20 34 45.5t11 62.5q0 26 -13.5 65t-43.5 75t-79.5 62t-121.5 26q-42 0 -80.5 -13.5t-68.5 -33.5t-48 -42t-18 -40q0 -12 8.5 -16t22 -5.5t29 -4t30 -10t25.5 -23.5t14 -46
q2 -21 -5 -39t-20 -30.5t-30.5 -19.5t-36.5 -7q-28 0 -48.5 10t-34.5 27t-21 40.5t-7 49.5q0 57 28 102t71.5 76.5t96.5 48.5t103 17q70 0 132.5 -26t109.5 -71t74.5 -107t27.5 -134q0 -81 -24.5 -140.5t-65 -107.5t-93 -89l-108.5 -85q-36 -29 -56.5 -53.5t-30.5 -51.5
t-12.5 -59t-2.5 -76h-47zM373 -23q-51 0 -84 33.5t-33 85.5q0 24 10 45t26 36.5t37 24.5t44 9q22 0 44.5 -8.5t40.5 -24t29 -36.5t11 -46q0 -27 -10.5 -48.5t-27.5 -37.5t-40 -24.5t-47 -8.5z" />
    <glyph glyph-name="questiondown" unicode="&#xbf;" 
d="M580 549q8 -32 9 -66.5t1 -66.5q0 -73 -14.5 -129.5t-49.5 -110.5t-95 -113t-150 -137q-23 -20 -34 -45.5t-11 -62.5q0 -26 13 -65t43.5 -75t80 -62t121.5 -26q41 0 80 13.5t69 33.5t48 42t18 40q0 12 -8.5 16t-22 6t-29.5 4t-30.5 9.5t-25 23.5t-13.5 46q-3 21 4 39
t20 30.5t31 19.5t37 7q27 0 48 -10t34.5 -27.5t20.5 -40.5t7 -49q0 -57 -28 -102t-71.5 -76.5t-96.5 -48.5t-103 -17q-70 0 -132.5 26t-109.5 71t-74.5 107t-27.5 134q0 81 24.5 140.5t65 107.5t93 89l108.5 85q36 28 56.5 53t30.5 52t12.5 59t2.5 76h48zM537 965
q51 0 83.5 -33.5t32.5 -85.5q0 -24 -10 -45t-26 -36.5t-37 -24.5t-43 -9q-23 0 -45 8.5t-40 24t-29 36.5t-11 46q0 27 10 49t27.5 37.5t40 24t47.5 8.5z" />
    <glyph glyph-name="quoteleft" unicode="&#x2018;" horiz-adv-x="455" 
d="M340 1331q-51 -42 -87 -78t-58.5 -68t-32.5 -61.5t-10 -58.5q0 -21 2.5 -32.5t6 -17t7.5 -6.5t8 -1q6 0 12 9t17 20.5t29 20.5t49 9q54 0 82 -30.5t28 -84.5q0 -26 -11.5 -48.5t-30.5 -39t-43.5 -26t-49.5 -9.5q-37 0 -68.5 12.5t-54.5 37t-36 62t-13 87.5q0 53 21.5 102
t56 92t76.5 79.5t84 64.5z" />
    <glyph glyph-name="quoteright" unicode="&#x2019;" horiz-adv-x="455" 
d="M115 864q51 42 87 78t58.5 68.5t32.5 61.5t10 58q0 21 -2.5 32.5t-6 17.5t-7.5 7t-8 1q-6 0 -12 -9.5t-17 -20.5t-29 -20.5t-49 -9.5q-54 0 -82.5 30.5t-28.5 84.5q0 26 11.5 48.5t31 39t43.5 26t50 9.5q37 0 68.5 -12.5t54.5 -37t36 -62t13 -87.5q0 -53 -21.5 -102
t-56 -92t-76.5 -79.5t-84 -64.5z" />
    <glyph glyph-name="quotedblleft" unicode="&#x201c;" 
d="M795 1331q-52 -42 -88 -78t-58.5 -68t-32.5 -61.5t-10 -58.5q0 -21 2.5 -32.5t6 -17t8 -6.5t8.5 -1q6 0 12 9t16.5 20.5t28.5 20.5t49 9q54 0 82.5 -30.5t28.5 -84.5q0 -26 -11.5 -48.5t-30.5 -39t-43.5 -26t-49.5 -9.5q-37 0 -68.5 12.5t-54.5 37t-36 62t-13 87.5
q0 53 21.5 102t55.5 92t76.5 79.5t83.5 64.5zM340 1331q-51 -42 -87 -78t-58.5 -68t-32.5 -61.5t-10 -58.5q0 -21 2.5 -32.5t6 -17t7.5 -6.5t8 -1q6 0 12 9t17 20.5t29 20.5t49 9q54 0 82 -30.5t28 -84.5q0 -26 -11.5 -48.5t-30.5 -39t-43.5 -26t-49.5 -9.5
q-37 0 -68.5 12.5t-54.5 37t-36 62t-13 87.5q0 53 21.5 102t56 92t76.5 79.5t84 64.5z" />
    <glyph glyph-name="quotedblright" unicode="&#x201d;" 
d="M115 864q51 42 87 78t58.5 68.5t32.5 61.5t10 58q0 21 -2.5 32.5t-6 17.5t-7.5 7t-8 1q-6 0 -12 -9.5t-17 -20.5t-29 -20.5t-49 -9.5q-54 0 -82.5 30.5t-28.5 84.5q0 26 11.5 48.5t31 39t43.5 26t50 9.5q37 0 68.5 -12.5t54.5 -37t36 -62t13 -87.5q0 -53 -21.5 -102
t-56 -92t-76.5 -79.5t-84 -64.5zM569 864q52 42 88 78t58.5 68.5t32.5 61.5t10 58q0 21 -2.5 32.5t-6.5 17.5t-8 7t-8 1q-6 0 -12 -9.5t-16.5 -20.5t-28.5 -20.5t-49 -9.5q-54 0 -82.5 30.5t-28.5 84.5q0 26 11.5 48.5t30.5 39t43.5 26t49.5 9.5q37 0 68.5 -12.5t54.5 -37
t36 -62t13 -87.5q0 -53 -21.5 -102t-55.5 -92t-76.5 -79.5t-83.5 -64.5z" />
    <glyph glyph-name="quotesinglbase" unicode="&#x201a;" horiz-adv-x="455" 
d="M115 -295q51 42 87 78t58.5 68.5t32.5 61.5t10 58q0 21 -2.5 32.5t-6 17.5t-7.5 7t-8 1q-7 0 -12.5 -9t-16.5 -20q-11 -12 -29 -21.5t-49 -9.5q-54 0 -82.5 30.5t-28.5 84.5q0 26 11.5 48.5t31 39t43.5 26t50 9.5q37 0 68.5 -12.5t54.5 -37t36 -62t13 -87.5
q0 -53 -21.5 -102t-56 -92t-76.5 -79.5t-84 -64.5z" />
    <glyph glyph-name="quotedblbase" unicode="&#x201e;" 
d="M115 -295q51 42 87 78t58.5 68.5t32.5 61.5t10 58q0 21 -2.5 32.5t-6 17.5t-7.5 7t-8 1q-7 0 -12.5 -9t-16.5 -20q-11 -12 -29 -21.5t-49 -9.5q-54 0 -82.5 30.5t-28.5 84.5q0 26 11.5 48.5t31 39t43.5 26t50 9.5q37 0 68.5 -12.5t54.5 -37t36 -62t13 -87.5
q0 -53 -21.5 -102t-56 -92t-76.5 -79.5t-84 -64.5zM569 -295q52 42 88 78t58.5 68.5t32.5 61.5t10 58q0 21 -2.5 32.5t-6.5 17.5t-8 7t-8 1q-6 0 -11.5 -9t-16.5 -20q-11 -12 -29 -21.5t-49 -9.5q-54 0 -82.5 30.5t-28.5 84.5q0 26 11.5 48.5t30.5 39t43.5 26t49.5 9.5
q37 0 68.5 -12.5t54.5 -37t36 -62t13 -87.5q0 -53 -21.5 -102t-55.5 -92t-76.5 -79.5t-83.5 -64.5z" />
    <glyph glyph-name="guilsinglleft" unicode="&#x2039;" horiz-adv-x="682" 
d="M313 442q22 -22 46 -51l47.5 -60t44 -61.5l36.5 -55.5t25.5 -42.5t9.5 -21.5q0 -2 -3 -10.5t-9 -8.5q-12 0 -42.5 27t-71 66.5l-86.5 84.5t-91 80q-31 25 -44 34.5t-13 18.5q0 10 13 19t44 35q45 35 91 80l86.5 84.5t71 66.5t42.5 27q6 0 9 -8.5t3 -10.5q0 -5 -9.5 -22
t-25.5 -42.5l-36.5 -56t-44 -61.5l-47.5 -60t-46 -51z" />
    <glyph glyph-name="guilsinglright" unicode="&#x203a;" horiz-adv-x="682" 
d="M371 442q-22 22 -46 51l-47.5 60t-44 61.5l-36.5 56t-25.5 42.5t-9.5 22q0 2 3 10.5t9 8.5q12 0 42.5 -27t71 -66.5l86.5 -84.5t91 -80q31 -25 44 -34.5t13 -19.5q0 -9 -13 -18t-44 -35q-45 -35 -91 -80l-86.5 -84.5t-71 -66.5t-42.5 -27q-6 0 -9 8.5t-3 10.5
q0 4 9.5 21.5t25.5 42.5l36.5 55.5t44 61.5l47.5 60t46 51z" />
    <glyph glyph-name="guillemotleft" unicode="&#xab;" horiz-adv-x="1024" 
d="M322 442q33 -33 69.5 -80t67.5 -92t51 -79t20 -41q0 -2 -3 -10.5t-9 -8.5q-12 0 -42.5 27t-71 66.5l-86.5 84.5t-91 80q-31 25 -44 34.5t-13 18.5q0 10 13 19t44 35q45 35 91 80l86.5 84.5t71 66.5t42.5 27q6 0 9 -8.5t3 -10.5q0 -7 -20 -41t-51 -79t-67.5 -92.5
t-69.5 -80.5zM643 442q22 -22 46 -51l47.5 -60t44 -61.5l36.5 -55.5t25.5 -42.5t9.5 -21.5q0 -2 -3 -10.5t-9 -8.5q-12 0 -42.5 27t-71 66.5l-86.5 84.5t-91 80q-31 25 -44 34.5t-13 18.5q0 10 13 19t44 35q45 35 91 80l86.5 84.5t71 66.5t42.5 27q6 0 9 -8.5t3 -10.5
q0 -5 -9.5 -22t-25.5 -42.5l-36.5 -56t-44 -61.5l-47.5 -60t-46 -51z" />
    <glyph glyph-name="guillemotright" unicode="&#xbb;" horiz-adv-x="1024" 
d="M702 442q-33 33 -69.5 80.5t-67.5 92.5t-51 79t-20 41q0 2 3 10.5t9 8.5q12 0 42.5 -27t71 -66.5l86.5 -84.5t91 -80q31 -25 44 -34.5t13 -19.5q0 -9 -13 -18t-44 -35q-45 -35 -91 -80l-86.5 -84.5t-71 -66.5t-42.5 -27q-6 0 -9 8.5t-3 10.5q0 7 20 41t51 79t67.5 92
t69.5 80zM381 442q-22 22 -46 51l-47.5 60t-44 61.5l-36.5 56t-25.5 42.5t-9.5 22q0 2 3 10.5t9 8.5q12 0 42.5 -27t71 -66.5l86.5 -84.5t91 -80q31 -25 44 -34.5t13 -19.5q0 -9 -13 -18t-44 -35q-45 -35 -91 -80l-86.5 -84.5t-71 -66.5t-42.5 -27q-6 0 -9 8.5t-3 10.5
q0 4 9.5 21.5t25.5 42.5l36.5 55.5t44 61.5l47.5 60t46 51z" />
    <glyph glyph-name="slash" unicode="/" horiz-adv-x="569" 
d="M578 1399l-461 -1430h-125l459 1430h127z" />
    <glyph glyph-name="bar" unicode="|" horiz-adv-x="455" 
d="M287 1536v-2048h-119v2048h119z" />
    <glyph glyph-name="endash" unicode="&#x2013;" horiz-adv-x="1024" 
d="M0 391v105h1024v-105h-1024z" />
    <glyph glyph-name="emdash" unicode="&#x2014;" horiz-adv-x="2048" 
d="M0 391v105h2048v-105h-2048z" />
    <glyph glyph-name="bullet" unicode="&#x2022;" horiz-adv-x="1024" 
d="M178 670q0 69 26.5 130t71.5 106t106 71.5t130 26.5t130 -26.5t106 -71.5t71.5 -106t26.5 -130t-26.5 -130t-71.5 -106.5t-106 -71.5t-130 -26t-130 26t-106 71.5t-71.5 106.5t-26.5 130z" />
    <glyph glyph-name="periodcentered" unicode="&#xb7;" horiz-adv-x="512" 
d="M252 381q-51 0 -84 33t-33 84q0 23 10 43.5t26.5 35.5t37.5 24t43 9t44.5 -8.5t40.5 -23.5t29 -35.5t11 -44.5q0 -26 -10.5 -47.5t-27.5 -37t-40 -24t-47 -8.5z" />
    <glyph glyph-name="parenleft" unicode="(" horiz-adv-x="569" 
d="M522 -465q-101 91 -180.5 198.5t-134 227.5t-83 251t-28.5 269t28.5 268.5t83 251t134 228t180.5 198.5l27 -38l-87 -100.5t-73 -97.5t-57.5 -112t-41.5 -144t-25.5 -193.5t-8.5 -260.5t8.5 -261t25.5 -194.5t41.5 -144.5t57.5 -111.5t73 -97l87 -100.5z" />
    <glyph glyph-name="parenright" unicode=")" horiz-adv-x="569" 
d="M20 -428l87 100.5t73 97t57.5 111.5t41.5 144.5t25.5 194t8.5 261.5q0 150 -8.5 260.5t-25.5 193.5t-41.5 144t-57.5 112t-73 97.5l-87 100.5l27 38q101 -91 180.5 -198.5t134 -228t83 -251t28.5 -268.5t-28.5 -269t-83 -251t-134 -227.5t-180.5 -198.5z" />
    <glyph glyph-name="bracketleft" unicode="[" horiz-adv-x="569" 
d="M528 -414h-428v1782h428v-47h-280v-1688h280v-47z" />
    <glyph glyph-name="bracketright" unicode="]" horiz-adv-x="569" 
d="M41 -367h281v1688h-281v47h428v-1782h-428v47z" />
    <glyph glyph-name="braceleft" unicode="{" horiz-adv-x="682" 
d="M559 -428q-64 0 -118.5 11.5t-94 45t-62 96t-22.5 164.5v330q0 55 -4 96.5t-18.5 72.5t-42.5 53t-76 38q48 15 76 37t42.5 53t18.5 72.5t4 95.5v330q0 102 22.5 164.5t62 96t94 45t118.5 11.5v-24q-48 -13 -77 -36.5t-45 -58t-21.5 -81t-5.5 -105.5v-309q0 -60 -8.5 -107
t-29 -82.5t-55.5 -60t-88 -39.5v-4q53 -15 88 -40t55.5 -61t29 -83t8.5 -107v-309q0 -59 5.5 -105t21.5 -80.5t45 -58t77 -36.5v-25z" />
    <glyph glyph-name="braceright" unicode="}" horiz-adv-x="682" 
d="M123 1384q64 0 118 -11.5t94 -45t62.5 -96t22.5 -164.5v-330q0 -54 4 -95.5t18.5 -72.5t42.5 -53t76 -37q-48 -16 -76 -38t-42.5 -53t-18.5 -72.5t-4 -96.5v-330q0 -102 -22.5 -164.5t-62.5 -96t-94 -45t-118 -11.5v25q48 13 77 36.5t45 58t21.5 80.5t5.5 105v309
q0 60 8.5 107t29 83t55.5 61t88 40v4q-53 15 -88 39.5t-55.5 60t-29 82.5t-8.5 107v309q0 59 -5.5 105.5t-21.5 81t-45 58t-77 36.5v24z" />
    <glyph glyph-name="asterisk" unicode="*" horiz-adv-x="1024" 
d="M477 946q-42 27 -83.5 42t-79 24.5t-69.5 16.5t-55.5 17t-37 26t-13.5 44q0 34 20.5 55t51.5 21q21 0 39 -11t36.5 -29t38 -41.5t44 -47.5t54.5 -47t69 -41q0 75 -8.5 122t-18.5 79.5t-18.5 57t-8.5 54.5q0 35 22.5 56.5t51.5 21.5t51.5 -21.5t22.5 -56.5
q0 -30 -8.5 -54.5t-18.5 -57t-18.5 -79.5t-8.5 -122q39 18 69 41t54.5 47t44 47.5t38 41.5t36.5 29t39 11q31 0 51.5 -21t20.5 -55q0 -28 -13.5 -44t-37 -26t-55.5 -17t-69.5 -16.5t-79 -24.5t-83.5 -42q42 -27 83.5 -42t79 -24.5t69.5 -16t55.5 -16.5t37 -26.5t13.5 -44.5
q0 -34 -20.5 -55t-51.5 -21q-32 0 -57.5 24t-56 58t-70 71.5t-97.5 64.5q0 -75 8.5 -122.5t18.5 -80t18.5 -57t8.5 -54.5q0 -35 -22.5 -56.5t-51.5 -21.5t-51.5 21.5t-22.5 56.5q0 30 8.5 54.5t18.5 57t18.5 80t8.5 122.5q-59 -27 -98 -64.5t-69.5 -71.5t-56.5 -58t-57 -24
t-51.5 21t-20.5 55q0 28 13.5 44.5t37 26.5t55.5 16.5t69.5 16t79 24.5t83.5 42z" />
    <glyph glyph-name="dagger" unicode="&#x2020;" horiz-adv-x="1024" 
d="M492 -326q0 111 -1.5 221.5t-9.5 215.5t-26.5 203t-51.5 186q29 37 46 82.5t26 94.5t11.5 99.5t2.5 97.5q-41 0 -71.5 -5t-54.5 -13t-43 -16.5l-37.5 -16.5t-38 -13t-43.5 -5q-6 0 -19.5 3t-28 12.5t-25.5 27.5t-11 47t11 47t25.5 27.5t28 12.5t19.5 3q36 0 62.5 -11
l56.5 -24t69 -24t100 -11q0 89 -11.5 144t-25 90t-25 58t-11.5 48q0 31 9 53t23 35t31 19t33 6t33 -6t31 -19t23 -35t9 -53q0 -25 -11.5 -48t-25 -58t-25 -90t-11.5 -144q61 0 100 11t69 24l56.5 24t62.5 11q6 0 19.5 -3t28 -12.5t25.5 -27.5t11 -47t-11 -47t-25.5 -27.5
t-28 -12.5t-19.5 -3q-24 0 -43.5 5t-38 13l-37.5 16.5t-43 16.5t-54.5 13t-71.5 5q0 -47 2.5 -97.5t11.5 -99.5t26 -94.5t46 -82.5q-33 -88 -51.5 -186t-26.5 -203t-9.5 -215.5t-1.5 -221.5h-40z" />
    <glyph glyph-name="daggerdbl" unicode="&#x2021;" horiz-adv-x="1024" 
d="M403 514q29 32 46 74.5t26 90.5t11.5 98t2.5 97q-41 0 -71.5 -5t-54.5 -13t-43 -16.5l-37.5 -16.5t-38 -13t-43.5 -5q-6 0 -19.5 3t-28 12.5t-25.5 27.5t-11 47t11 47t25.5 27.5t28 12.5t19.5 3q36 0 62.5 -11l56.5 -24t69 -24t100 -11q0 89 -11.5 144t-25 90t-25 58
t-11.5 48q0 31 9 53t23 35t31 19t33 6t33 -6t31 -19t23 -35t9 -53q0 -25 -11.5 -48t-25 -58t-25 -90t-11.5 -144q61 0 100 11t69 24l56.5 24t62.5 11q6 0 19.5 -3t28 -12.5t25.5 -27.5t11 -47t-11 -47t-25.5 -27.5t-28 -12.5t-19.5 -3q-24 0 -43.5 5t-38 13l-37.5 16.5
t-43 16.5t-54.5 13t-71.5 5q0 -47 2.5 -97t11.5 -98t26 -90.5t46 -74.5q-29 -32 -46 -74.5t-26 -90t-11.5 -97.5t-2.5 -98q41 0 71.5 5t54.5 13t43 16.5l37.5 16.5t38 13t43.5 5q6 0 19.5 -3t28 -12.5t25.5 -27.5t11 -47t-11 -47t-25.5 -27.5t-28 -12.5t-19.5 -3
q-36 0 -62.5 11l-56.5 24t-69 24t-100 11q0 -89 11.5 -144t25 -90t25 -58t11.5 -48q0 -32 -9 -53t-23 -34t-31 -18.5t-33 -5.5t-33 5.5t-31 18.5t-23 34t-9 53q0 25 11.5 48t25 58t25 90t11.5 144q-61 0 -100 -11t-69 -24l-56.5 -24t-62.5 -11q-6 0 -19.5 3t-28 12.5
t-25.5 27.5t-11 47t11 47t25.5 27.5t28 12.5t19.5 3q24 0 43.5 -5t38 -13l37.5 -16.5t43 -16.5t54.5 -13t71.5 -5q0 48 -2.5 98t-11.5 97.5t-26 90t-46 74.5z" />
    <glyph glyph-name="section" unicode="&#xa7;" horiz-adv-x="1024" 
d="M512 -324q-48 0 -100 12.5t-96 38.5t-72.5 66.5t-28.5 97.5q0 22 9 41.5t23.5 34t34 24t40.5 11.5t39.5 -5.5t33 -21.5t23 -33t8.5 -40t-11 -37t-24 -28.5l-24 -23t-11 -20.5q0 -19 18 -33.5t43 -24t50 -14t39 -4.5q34 0 65 10t55 30.5t38 51.5t14 74q0 45 -23 84t-60 76
t-85 73l-97.5 74l-97.5 78.5t-85 87.5t-60 101t-23 118q0 66 21 115.5t57.5 81.5t85 48t103.5 16l4 4q-35 28 -69 59t-60.5 67.5t-43 80.5t-16.5 98q0 63 24 110.5t64.5 79.5t93 48t109.5 16q45 0 91 -13.5t82.5 -40.5t59.5 -67t23 -92q0 -22 -8 -41t-21.5 -33.5
t-32.5 -22.5t-40 -8q-42 0 -70.5 25.5t-28.5 69.5q0 24 11 40.5t24 29.5t24 23t11 21q0 18 -16 30.5t-37 21t-42.5 12.5t-33.5 4q-33 0 -64.5 -10.5t-55.5 -30.5t-39 -49t-15 -66q0 -54 39.5 -104t99 -101t129 -104.5t129 -113t99 -127.5t39.5 -148q0 -124 -69.5 -192
t-193.5 -68v-4l72.5 -71t57.5 -68.5t37.5 -77t13.5 -95.5q0 -53 -21.5 -99t-60 -80t-90 -53.5t-111.5 -19.5zM483 346q34 -28 68 -42.5t78 -14.5q33 0 59 12.5t43.5 34.5t27 50t9.5 60q0 29 -17 60.5t-41.5 61t-52 55l-47.5 43.5l-49.5 44.5t-54 40.5t-59 29t-64.5 11
q-26 0 -50 -12.5t-42.5 -33t-29.5 -46.5t-11 -52q0 -46 24.5 -89t60.5 -81.5t76 -71.5z" />
    <glyph glyph-name="paragraph" unicode="&#xb6;" horiz-adv-x="1229" 
d="M1036 1321h-168v-1727h168v-47h-698v47h168v916q-105 0 -185.5 32.5t-135 91t-82 140.5t-27.5 180q0 109 31 187.5t89.5 128.5t142 74t189.5 24h508v-47zM506 1321q-70 0 -115 -22.5t-71 -68t-36 -115.5t-10 -165q0 -102 10 -176t36 -122.5t71 -71.5t115 -23v764z
M625 -406h125v1727h-125v-1727z" />
    <glyph glyph-name="Omega" unicode="&#x2126;" horiz-adv-x="1339" 
d="M1231 0h-445l-12 37l68 144t74 170t59 187t24 197q-1 151 -29 255.5t-73.5 169.5t-105 93.5t-123.5 28.5q-69 0 -129 -28t-104.5 -93.5t-69.5 -171.5t-25 -262q0 -97 21.5 -190t54 -180t71.5 -167.5l74 -152.5l-16 -37h-441l-43 285l52 2q15 -45 28.5 -73t30 -43.5
t36.5 -20.5t48 -5h186q-45 40 -100 95.5t-102.5 128.5t-80 165.5t-32.5 206.5q0 138 42.5 249.5t116 190t173 120.5t213.5 42q117 0 215.5 -40.5t170 -116t112 -185t40.5 -247.5q0 -103 -31 -191.5t-78.5 -163.5t-104.5 -138.5t-109 -115.5h198q28 0 48 4.5t35 19.5t27.5 43
t27.5 75l55 -2z" />
    <glyph glyph-name="pi" unicode="&#x3c0;" horiz-adv-x="1059" 
d="M1008 891q-10 -57 -29.5 -107.5t-36.5 -76.5q-23 -7 -55 -9t-70 -2q-4 -44 -5.5 -97.5t-2 -110t-0.5 -112.5v-106q0 -88 18 -130t60 -42q28 0 47.5 13.5t42.5 38.5l24 -41q-18 -32 -41 -56.5t-49.5 -42t-54.5 -26.5t-55 -9q-37 0 -69 11.5t-55 40t-36.5 77.5t-13.5 123
q0 132 6 247t14 228q-75 0 -145 1.5t-127 1.5v-31q0 -166 -15 -285.5t-35.5 -199t-41 -122.5t-31.5 -57q-26 -12 -60 -21.5t-59 -13.5l-12 37q52 69 86 159t54 185t28 187.5t8 165.5q-45 0 -78 -5.5t-60 -16t-51 -26l-51 -34.5l-26 47l45 56t62 58t89.5 45t126.5 17
q106 -2 233 -4t261 -2q22 0 38 2.5t28.5 9t22.5 19t21 32.5z" />
    <glyph glyph-name="grave" unicode="`" horiz-adv-x="569" 
d="M525 897l-273 166l-41 26t-33 25t-22 26.5t-8 30.5q0 31 20 50.5t51 19.5q23 0 40 -16l32 -31l305 -297h-71z" />
    <glyph glyph-name="acute" unicode="&#xb4;" horiz-adv-x="569" 
d="M598 1194l32.5 31t39.5 16q31 0 51.5 -19.5t20.5 -50.5q0 -17 -8 -30.5t-22 -26.5t-33.5 -25l-41.5 -26l-272 -166h-72z" />
    <glyph glyph-name="circumflex" unicode="&#x2c6;" horiz-adv-x="569" 
d="M344 1237l248 -340h-66l-239 215l-240 -215h-70l252 340h115z" />
    <glyph glyph-name="caron" unicode="&#x2c7;" horiz-adv-x="569" 
d="M225 897l-248 340h66l240 -215l239 215h70l-252 -340h-115z" />
    <glyph glyph-name="tilde" unicode="&#x2dc;" horiz-adv-x="569" 
d="M621 1155q-9 -40 -27.5 -77.5t-45.5 -67t-63.5 -47t-81.5 -17.5q-43 0 -80 14.5t-71 32.5l-66.5 32t-64.5 15q-21 0 -39.5 -7.5t-33 -20.5t-24.5 -30t-14 -36h-55q7 42 25 79t45.5 64t64.5 42.5t82 15.5q34 0 68.5 -15t68.5 -32q35 -19 68.5 -33t64.5 -14q26 0 44.5 8
t32 21.5t23.5 32.5t19 40h60z" />
    <glyph glyph-name="dieresis" unicode="&#xa8;" horiz-adv-x="569" 
d="M84 934q-40 0 -67 27t-27 67t26 69t68 29q20 0 37.5 -8t30.5 -21.5t20.5 -31.5t7.5 -37q0 -20 -8 -37t-21 -30t-30.5 -20t-36.5 -7zM483 934q-40 0 -67 27t-27 67t26 69t68 29q20 0 38 -8t31 -21.5t20.5 -31.5t7.5 -37q0 -20 -8 -37t-21 -30t-31 -20t-37 -7z" />
    <glyph glyph-name="macron" unicode="&#xaf;" horiz-adv-x="569" 
d="M12 1081h545v-102h-545v102z" />
    <glyph glyph-name="breve" unicode="&#x2d8;" horiz-adv-x="569" 
d="M55 1214q6 -49 25.5 -87t50 -64t70 -39.5t84.5 -13.5t84.5 13.5t70 39.5t50 64t24.5 87h55q-2 -74 -22 -133.5t-57 -100.5t-89 -63t-116 -22q-65 0 -117 22t-88.5 63t-57.5 100.5t-22 133.5h55z" />
    <glyph glyph-name="ring" unicode="&#x2da;" horiz-adv-x="569" 
d="M279 1237q-29 0 -54.5 -10.5t-44 -29.5t-29 -44t-10.5 -53q0 -29 10.5 -54t29 -43.5t44 -29t54.5 -10.5q28 0 53 10.5t43.5 29t29.5 43.5t11 54q0 28 -11 53t-29.5 44t-43.5 29.5t-53 10.5zM279 901q-42 0 -78.5 15.5t-63.5 42.5t-42 63t-15 78q0 41 15.5 77t42.5 63
t63 42.5t78 15.5q40 0 76 -16t63 -43t43 -63t16 -76q0 -42 -16 -78t-43 -63t-63 -42.5t-76 -15.5z" />
    <glyph glyph-name="hungarumlaut" unicode="&#x2dd;" horiz-adv-x="569" 
d="M397 1194l32.5 31t39.5 16q31 0 51.5 -19.5t20.5 -50.5q0 -17 -8 -30.5t-22 -26.5t-33.5 -25l-41.5 -26l-272 -166h-72zM745 1194l32.5 31t39.5 16q31 0 51.5 -19.5t20.5 -50.5q0 -17 -8 -30.5t-22 -26.5t-33.5 -25l-41.5 -26l-272 -166h-72z" />
    <glyph glyph-name="dotaccent" unicode="&#x2d9;" horiz-adv-x="569" 
d="M285 934q-41 0 -68 27t-27 67t26.5 69t68.5 29q20 0 37.5 -8t30.5 -21.5t20.5 -31.5t7.5 -37q0 -20 -8 -37t-21 -30t-30.5 -20t-36.5 -7z" />
    <glyph glyph-name="cedilla" unicode="&#xb8;" horiz-adv-x="569" 
d="M250 -135q18 5 38.5 8.5t39.5 3.5q18 0 44 -7.5t50 -24t40.5 -43.5t16.5 -66q0 -51 -23 -84t-59 -52.5t-80 -27.5t-86 -8q-38 0 -85 7.5t-83 22.5l29 62l59 -16.5t60 -8.5q21 0 43 4.5t40 14.5t30 26.5t12 40.5q0 22 -9 37t-22 24.5t-28.5 14t-28.5 4.5q-14 -2 -19.5 -2
t-9.5 -0.5t-10.5 -2t-22.5 -5.5l-36 10l90 203h71z" />
    <glyph glyph-name="ogonek" unicode="&#x2db;" horiz-adv-x="569" 
d="M326 0q-29 -31 -45.5 -66.5t-16.5 -72.5q0 -17 4 -33t14 -29t25.5 -20.5t38.5 -7.5q17 0 30 9.5t22.5 24t15.5 32t10 34.5h63q-18 -103 -68.5 -154t-115.5 -51q-32 0 -62.5 10t-54 29.5t-37.5 47t-14 63.5q0 58 30 101t77 83h84z" />
    <glyph glyph-name="gravecomb" unicode="&#x300;" horiz-adv-x="0" 
d="M170 1434l-272 165q-45 28 -75 51.5t-30 57.5q0 31 20.5 50.5t51.5 19.5q23 0 39.5 -16l31.5 -31l306 -297h-72z" />
    <glyph glyph-name="acutecomb" unicode="&#x301;" horiz-adv-x="0" 
d="M266 1731l31.5 31t39.5 16q31 0 51.5 -19.5t20.5 -50.5q0 -17 -8 -31t-22 -26.5t-33 -25l-41 -26.5l-273 -165h-72z" />
    <glyph glyph-name="tildecomb" unicode="&#x303;" horiz-adv-x="1024" 
d="M394 1692q-9 -40 -27 -77.5t-45 -67t-63.5 -47t-81.5 -17.5q-43 0 -80 14t-71 33l-66.5 32t-64.5 15q-42 0 -72.5 -28t-38.5 -66h-55q7 42 25 78.5t45.5 63.5t64.5 42.5t82 15.5q34 0 68.5 -15t68.5 -32q35 -18 68.5 -32.5t64.5 -14.5q26 0 44.5 8t32 22t23.5 32.5
t19 40.5h59z" />
    <glyph glyph-name="hookabovecomb" unicode="&#x309;" horiz-adv-x="0" 
d="M-207 901q-23 47 -20 76.5t22 49t48.5 32l59 25t53.5 28t32 40.5q8 27 4.5 59t-20 59t-46.5 45.5t-75 18.5q-25 0 -49 -8t-42.5 -19t-29.5 -24.5t-11 -23.5q1 -18 7 -25t15 -8.5t20.5 -0.5t23.5 -1.5t23 -10.5t20 -28q3 -28 -6 -45.5t-23 -26.5t-32 -10.5t-33 2.5
q-35 8 -58 37t-23 70q0 40 18.5 70t46.5 50.5t61 31t63 10.5q45 0 85 -16.5t66.5 -46t36.5 -69.5t-3 -87q-7 -24 -17 -40t-26 -28t-40 -22.5t-60 -23.5q-29 -11 -44 -28.5t-16 -37.5t12 -39.5t40 -34.5h-83z" />
    <glyph glyph-name="dotbelowcomb" unicode="&#x323;" horiz-adv-x="0" 
d="M-41 -437q-41 0 -68 27t-27 67t26.5 69t68.5 29q20 0 37.5 -8t30.5 -21.5t20.5 -31.5t7.5 -37q0 -20 -8 -37t-21 -30t-30.5 -20t-36.5 -7z" />
    <glyph glyph-name="asciicircum" unicode="^" horiz-adv-x="1126" 
d="M135 543l375 778h106l375 -778h-127l-301 628l-301 -628h-127z" />
    <glyph glyph-name="asciitilde" unicode="~" horiz-adv-x="1126" 
d="M1036 549q-23 -34 -48 -66.5t-54 -58.5q-31 -26 -68.5 -42.5t-85.5 -16.5q-57 0 -107.5 21t-101.5 50q-49 28 -106.5 51t-128.5 23q-34 0 -60.5 -13.5t-47 -35t-36.5 -49.5t-28 -56l-74 90q17 34 40 67t53.5 58.5t71 41.5t91.5 16q53 0 111 -20t116 -48l56.5 -26.5
t55.5 -24.5t51.5 -18t45.5 -7q31 0 56 13.5t47 35t41 49t37 56.5z" />
    <glyph glyph-name="brokenbar" unicode="&#xa6;" horiz-adv-x="455" 
d="M287 1382v-716h-119v716h119zM287 358v-716h-119v716h119z" />
    <glyph glyph-name="backslash" unicode="\" horiz-adv-x="569" 
d="M117 1399l461 -1430h-127l-459 1430h125z" />
    <glyph glyph-name="copyright" unicode="&#xa9;" horiz-adv-x="1638" 
d="M819 -31q-153 0 -284.5 56t-228.5 153t-152.5 226t-55.5 276q0 99 25 190.5t71.5 171.5t111.5 145.5t145 112.5t173 73t195 26t195.5 -25.5t173.5 -72.5t145 -112.5t111 -145.5t71 -172t25 -191q0 -147 -55 -276t-152 -226t-228.5 -153t-285.5 -56zM819 49
q130 0 240.5 51.5t191.5 138.5t126.5 201.5t45.5 239.5q0 84 -20.5 164.5t-58.5 151.5t-92.5 130.5t-121.5 102t-145.5 66.5t-165.5 24t-165 -24t-145 -66.5t-121.5 -102t-93 -130.5t-59 -151.5t-20.5 -164.5q0 -125 46 -239.5t127 -201.5t191.5 -138.5t239.5 -51.5z
M1165 506l-32 -144q0 -17 -14.5 -23.5t-39.5 -14.5q-31 -11 -88 -23t-129 -12q-88 0 -169 23t-142.5 72.5t-98 127.5t-36.5 188q0 64 28.5 134.5t85.5 130t142.5 98.5t199.5 39q41 0 72 -4t56.5 -10.5t47 -13.5t42.5 -13q23 -8 33 -19.5t10 -23.5v-146h-31q-3 33 -16.5 67
t-41 61t-71 44t-107.5 17q-76 0 -130 -26.5t-88.5 -73.5t-50.5 -111.5t-17 -140.5q-1 -83 15.5 -152.5t52.5 -119.5t94 -78.5t141 -28.5q54 0 94.5 15t71 39.5t51.5 56t35 65.5h30z" />
    <glyph glyph-name="registered" unicode="&#xae;" horiz-adv-x="1638" 
d="M487 1077h357q47 0 91 -11.5t78.5 -35t55.5 -59.5t21 -86q0 -41 -13 -75t-36 -61.5t-54 -47.5t-67 -33l120 -164q21 -29 43 -56.5t43.5 -51t41.5 -41.5t36 -27v-19h-123q-26 0 -50 24t-53 67.5t-66.5 105.5t-90.5 137h-108v-199q0 -36 1 -55t10 -28t30 -12t61 -7v-33
h-328v33q39 4 60 7t30 12t10 28t1 55v498q0 36 -1 55t-10 28.5t-30 13t-60 8.5v30zM713 686h96q77 0 115.5 51.5t38.5 141.5q0 43 -13 73t-35 49t-51 27t-61 8h-90v-350zM819 -31q-153 0 -284.5 56t-228.5 153t-152.5 226t-55.5 276q0 99 25 190.5t71.5 171.5t111.5 145.5
t145 112.5t173 73t195 26t195.5 -25.5t173.5 -72.5t145 -112.5t111 -145.5t71 -172t25 -191q0 -147 -55 -276t-152 -226t-228.5 -153t-285.5 -56zM819 49q130 0 240.5 51.5t191.5 138.5t126.5 201.5t45.5 239.5q0 84 -20.5 164.5t-58.5 151.5t-92.5 130.5t-121.5 102
t-145.5 66.5t-165.5 24t-165 -24t-145 -66.5t-121.5 -102t-93 -130.5t-59 -151.5t-20.5 -164.5q0 -125 46 -239.5t127 -201.5t191.5 -138.5t239.5 -51.5z" />
    <glyph glyph-name="trademark" unicode="&#x2122;" horiz-adv-x="2028" 
d="M492 674q0 -39 1 -60.5t9.5 -32t28 -14.5t57.5 -8v-39h-334v39q39 4 59 8t28 14.5t8.5 32t0.5 60.5v629h-98q-32 0 -55.5 -11.5t-39.5 -31t-26.5 -45.5t-17.5 -54h-39v180h694v-180h-39q-7 28 -17.5 54t-27 45.5t-40 31t-54.5 11.5h-98v-629zM1057 1145h-4v-455
q0 -33 4 -56t16 -38.5t32.5 -24t53.5 -12.5v-39h-266v39q34 4 55 12.5t33 24t16 38.5t4 56v510q-18 47 -57.5 75t-83.5 28v38h252l315 -620l326 620h201v-38q-66 -4 -88.5 -33.5t-22.5 -83.5v-512v-60.5t8 -32t28 -14.5t60 -8v-39h-333v39q40 4 60 8t28 14.5t8 32v60.5v467
h-4l-312 -627h-18z" />
    <glyph glyph-name="at" unicode="@" horiz-adv-x="1593" 
d="M1042 829q0 67 -25 106.5t-89 39.5q-44 0 -90 -32.5t-84 -89.5t-62 -134t-24 -166q0 -95 35 -133.5t94 -38.5q31 0 70 28t74.5 84.5t63 140.5t37.5 195zM1096 1024h141l-137 -535q-3 -11 -5.5 -32.5t3.5 -43.5t23.5 -38.5t54.5 -16.5q45 0 84 19t70.5 51.5t55.5 75
t40.5 90t25 96.5t8.5 94q0 118 -40.5 222t-118.5 180.5t-191.5 121t-259.5 44.5q-125 0 -233.5 -48t-189 -140.5t-127 -226.5t-46.5 -306q0 -74 19.5 -147t56.5 -138.5t90.5 -121.5t122 -97.5t150 -64.5t175.5 -23q69 0 125.5 8t105 21.5t92.5 31.5l89 37l27 -51
q-50 -23 -101.5 -44t-106 -37.5t-111.5 -26t-118 -9.5q-135 0 -245.5 31.5t-197 84t-149.5 122t-104.5 145t-61.5 153t-20 146.5q0 168 60.5 305.5t164 236t241 152.5t292.5 54q152 0 277.5 -46.5t215.5 -128.5t139.5 -194t49.5 -244q0 -53 -11.5 -110t-34 -111.5
t-55.5 -103.5t-76 -86t-96 -58.5t-114 -21.5q-51 0 -87 19.5t-57.5 44t-31 48.5t-8.5 33h-5q-9 -13 -30.5 -35t-52.5 -44.5t-71 -41t-85 -22.5q-13 -1 -34 1t-44.5 10.5t-47 25t-42.5 45t-31 71t-12 103.5q0 50 14.5 106t41.5 111t65.5 105.5t86 89t103.5 61.5t119 23
q51 0 81.5 -27.5t53.5 -81.5h4z" />
    <glyph glyph-name="currency" unicode="&#xa4;" horiz-adv-x="1024" 
d="M164 393q-44 54 -68 121.5t-24 142.5q0 76 24 143.5t66 123.5l-199 198l84 84l199 -198q55 43 123 66.5t143 23.5q77 0 144.5 -24t121.5 -66l199 198l84 -84l-199 -198q42 -56 66 -123.5t24 -143.5q0 -75 -23 -142.5t-67 -123.5l199 -198l-84 -84l-201 200
q-56 -45 -123 -68.5t-141 -23.5q-75 0 -142.5 23.5t-121.5 68.5l-201 -200l-84 84zM190 657q0 -67 25.5 -125.5t69 -102t102 -68.5t125.5 -25t125.5 25t102 68.5t69 102t25.5 125.5t-25.5 126t-69 102.5t-102 68.5t-125.5 25t-125.5 -25t-102 -68.5t-69 -102.5t-25.5 -126z
" />
    <glyph glyph-name="dollar" unicode="$" horiz-adv-x="1024" 
d="M360 645q-121 42 -182 123t-61 215q0 57 19 109t52 95t77 74.5t95 47.5v188h52v-178q18 3 39 7.5t43 4.5h41.5t44.5 -2v168h51v-174q63 -7 113.5 -32.5t85.5 -62t54 -79t19 -82.5q0 -26 -7 -49.5t-21 -40.5t-34 -27t-46 -10q-42 0 -68.5 24t-26.5 72q0 34 17.5 51.5
t39 27t39 16t17.5 18.5q0 17 -16 37t-42 38.5t-58.5 32.5t-65.5 19v-520q64 -18 120 -49t97 -76t64.5 -103.5t23.5 -132.5q0 -67 -24.5 -129.5t-66.5 -114t-97.5 -89t-116.5 -54.5v-186h-51v178q-20 -6 -42.5 -9t-43.5 -5q-22 2 -42 3t-40 3v-170h-52v176q-60 2 -113.5 28.5
t-93 66t-62.5 87t-23 92.5q0 65 32.5 96t92.5 31q16 0 30.5 -7.5t25 -19.5t17 -28t6.5 -33q0 -30 -8.5 -49t-20.5 -30t-27 -17t-27 -11.5t-20.5 -11.5t-8.5 -18q0 -21 22 -44t53.5 -43t66 -33t58.5 -13v604zM412 817l168 -49v516q-22 2 -43.5 3t-42.5 1q-20 0 -41 -4
t-41 -10v-457zM360 1262q-30 -11 -59.5 -33.5t-52.5 -52t-37 -64t-14 -70.5q0 -84 44.5 -133t118.5 -73v426zM631 53q46 14 85 41t67.5 64.5t44.5 82.5t16 95q0 49 -18 85.5t-48 63t-68.5 44.5t-78.5 30v-506zM412 629v-596q24 -2 44 -4t42 -2q15 0 35.5 4.5t46.5 9.5v532z
" />
    <glyph glyph-name="cent" unicode="&#xa2;" horiz-adv-x="1024" 
d="M618 778q-15 3 -30.5 4.5t-26.5 1.5q-74 0 -121.5 -26.5t-76 -78t-39.5 -127.5t-11 -175q0 -72 9 -123.5t20.5 -85.5t22 -51t14.5 -21zM883 250q-18 -54 -43.5 -103t-65.5 -87t-96.5 -61t-136.5 -26q-37 0 -69.5 5t-61.5 14l-99 -279h-65l104 299q-63 30 -105.5 75.5
t-69 96t-37.5 101.5t-11 92q0 90 22 158t58 118t81 83t90.5 53t87.5 28t71 8q23 0 46.5 -2t49.5 -8l96 270h66l-101 -286q33 -12 62.5 -29t52 -41t36 -54t13.5 -67q0 -21 -6.5 -40.5t-18.5 -34.5t-29 -24t-38 -9q-42 0 -69 24.5t-27 69.5q0 31 10 49t22.5 29.5t22.5 18.5
t10 16q0 18 -15 30.5t-40 20.5l-250 -709q26 -14 57.5 -23.5t69.5 -11.5q45 -2 87.5 14t80 47t67.5 75.5t48 99.5h43z" />
    <glyph glyph-name="sterling" unicode="&#xa3;" horiz-adv-x="1024" 
d="M952 399q0 -127 -20 -210t-57 -132t-89 -68.5t-116 -19.5q-36 0 -67 11.5t-59 30.5t-53.5 43t-48.5 48q-27 -32 -50.5 -56t-49.5 -41t-57.5 -25.5t-73.5 -8.5q-57 0 -91 20t-52 47t-23.5 55t-5.5 44q0 42 14 73.5t38.5 52.5t58 31.5t71.5 10.5q28 0 54 -6t51 -14.5
t49.5 -19t50.5 -19.5q3 20 6.5 41t3.5 41q0 43 -8 83.5t-20.5 80t-27.5 78.5t-28 79h-227v56h207q-28 65 -44 128.5t-16 135.5q0 29 7.5 68.5t24.5 81t44.5 82t68 72t95 51t125.5 19.5q46 0 95.5 -14.5t91 -45t68 -77t26.5 -110.5q0 -23 -7.5 -44t-21 -38t-33 -27t-43.5 -10
q-48 0 -79.5 25t-31.5 77q0 31 16.5 52.5t41.5 35.5q10 6 20 7t18 2.5t12.5 4t4.5 11.5q0 26 -19.5 45.5t-47 32t-57 18.5t-48.5 6q-48 0 -86.5 -17.5t-66.5 -48t-43 -72t-15 -89.5q0 -16 7 -43.5t17.5 -61.5l23 -71.5l24.5 -72.5l22 -64.5t15 -48.5h237v-56h-225
q5 -32 6.5 -64.5t1.5 -66.5q0 -78 -15 -155.5t-44 -151.5q54 -17 110 -32t113 -15t93 17t56 47.5t27.5 74t7.5 96.5h43zM397 152q-37 42 -78 68t-98 26q-25 0 -44 -9.5t-31.5 -26t-18.5 -38t-6 -45.5q0 -51 29 -79t75 -28q28 0 54.5 11t49 29t40 42t28.5 50z" />
    <glyph glyph-name="florin" unicode="&#x192;" horiz-adv-x="1024" 
d="M584 770q0 -128 -0.5 -230.5t-3 -188.5t-7.5 -160.5t-14 -147.5q-12 -109 -35 -198t-63.5 -152t-102 -97t-151.5 -34q-26 0 -52 8t-47 24.5t-34 41t-13 57.5q0 16 6 32t16.5 28.5t24.5 20t31 7.5q38 0 58 -24.5t20 -61.5q0 -16 -4 -35t-4 -29q0 -18 15.5 -22t29.5 -4
q72 0 112.5 80t45.5 260q1 58 2.5 135.5t2.5 162t2.5 169.5t3 157.5t2 125.5t1.5 75h-221v49h223q4 119 21.5 210t43.5 158t59 112t68 72.5t69.5 39.5t64.5 12q100 0 145 -36t45 -105q0 -7 -5.5 -19.5t-15.5 -25t-24.5 -22t-32.5 -9.5q-31 0 -49 20.5t-20 51.5q0 23 2 46
l4 46q-25 10 -47 10q-43 0 -72 -22t-48 -55.5t-29.5 -75t-15.5 -80t-6 -70.5t-1 -47v-211h235v-49h-235z" />
    <glyph glyph-name="yen" unicode="&#xa5;" horiz-adv-x="1024" 
d="M246 0v49h200v365h-364v49h364v174l-20 39h-344v49h317l-301 547h-141v49h492v-49h-168l301 -570l288 570h-182v49h381v-49h-141l-279 -547h293v-49h-317l-19 -39v-174h336v-49h-336v-365h203v-49h-563z" />
    <glyph glyph-name="ordfeminine" unicode="&#xaa;" horiz-adv-x="573" 
d="M485 934q0 -26 3.5 -39.5t25.5 -13.5q10 0 18 5.5t13.5 13.5t9.5 17t6 17h23q-2 -21 -11.5 -40t-26.5 -34t-41 -24t-54 -9q-38 0 -59.5 25t-29.5 57q-17 -22 -40.5 -37.5t-50 -25.5t-52.5 -14.5t-47 -4.5q-34 0 -63.5 7.5t-52 23t-35.5 39t-13 55.5q1 42 28 75.5t73 57.5
t108 37t135 13v100q0 41 -25.5 56.5t-60.5 15.5q-11 0 -30 -2t-37.5 -6.5t-32.5 -12.5t-14 -20q0 -4 6.5 -8t14 -9.5t14 -14.5t6.5 -24q0 -21 -20 -35t-46 -14q-34 0 -55 16.5t-21 39.5q0 16 13 37.5t40 41.5t69 34.5t101 17.5q79 -3 122 -17.5t62.5 -34t23 -41t3.5 -38.5
v-283zM352 1100q-29 -1 -66.5 -5.5t-70.5 -17t-55.5 -36.5t-22.5 -64q0 -45 23 -69.5t69 -24.5q32 0 56 8t47 27q9 6 14.5 20t5.5 51v111z" />
    <glyph glyph-name="ordmasculine" unicode="&#xba;" horiz-adv-x="573" 
d="M287 1348q56 0 106 -20t88 -55t60 -82t22 -101q0 -56 -22 -104t-60 -83t-88 -55.5t-106 -20.5t-106.5 20.5t-88.5 55.5t-60 83t-22 104q0 54 22 101t60 82t88.5 55t106.5 20zM287 1313q-47 0 -72.5 -21t-37 -53.5t-13.5 -72t-2 -76.5q0 -39 2 -79.5t13.5 -73.5t37 -54
t72.5 -21t72.5 21t37 54t13.5 73.5t2 79.5q0 37 -2 76.5t-13.5 72t-37 53.5t-72.5 21z" />
    <glyph glyph-name="numbersign" unicode="#" horiz-adv-x="1024" 
d="M952 393h-219l-59 -393h-115l59 393h-276l-59 -393h-115l59 393h-215v107h232l49 321h-221v107h237l60 393h114l-59 -393h276l60 393h114l-59 -393h197v-107h-213l-49 -321h202v-107zM408 821l-50 -321h277l49 321h-276z" />
    <glyph glyph-name="zero" unicode="0" horiz-adv-x="1024" 
d="M512 1300q-35 0 -67.5 -7t-61 -30t-51.5 -65.5t-39.5 -113.5t-25.5 -174.5t-9 -247.5q0 -145 9 -249t25.5 -175.5t39.5 -114t51.5 -65.5t61 -30.5t67.5 -7.5t67.5 7.5t61 30.5t51.5 65.5t39.5 114t25.5 175.5t9 249q0 144 -9 247.5t-25.5 174.5t-39.5 113.5t-51.5 65.5
t-61 30t-67.5 7zM512 1348q75 0 139 -28t115.5 -77.5t91 -115.5t66 -142.5t40 -159t13.5 -163.5q0 -82 -13.5 -165t-40 -159.5t-66 -143t-91 -115.5t-115.5 -77.5t-139 -28.5t-139 28.5t-115.5 77.5t-91 115.5t-66 143t-40 159.5t-13.5 165q0 81 13.5 163.5t40 159t66 142.5
t91 115.5t115.5 77.5t139 28z" />
    <glyph glyph-name="one" unicode="1" horiz-adv-x="1024" 
d="M182 0v47h250v1141q0 28 -9 45t-28.5 26t-50.5 12t-74 3h-100v47h98q36 0 78.5 2t88 6l92 8.5t91.5 10.5v-1301h238v-47h-674z" />
    <glyph glyph-name="two" unicode="2" horiz-adv-x="1024" 
d="M885 0h-836v100l174 172q130 127 221.5 225t149.5 177.5t84.5 146.5t26.5 133q0 64 -22 123t-61 104t-93.5 72t-118.5 27q-66 0 -115 -21t-81.5 -52.5t-48 -67.5t-15.5 -66q0 -9 1 -17t1 -16q23 11 43.5 18t37.5 7q25 0 44 -9.5t32 -24.5t20 -33.5t7 -36.5
q0 -27 -8.5 -48.5t-23 -37t-33 -23.5t-38.5 -8q-32 0 -58 14t-44.5 37t-28.5 53t-10 62q0 87 34 151t90.5 105.5t128.5 61.5t147 20q74 0 149.5 -22t136 -65.5t99 -108.5t38.5 -151q0 -55 -17.5 -107.5t-60.5 -113t-114.5 -134.5t-179.5 -171l-348 -309h544q37 0 59 6.5
t34 24.5t16.5 51t7.5 86h57z" />
    <glyph glyph-name="three" unicode="3" horiz-adv-x="1024" 
d="M846 1047q0 -63 -27 -115t-70 -92.5t-96 -69.5t-104 -45v-4q71 -15 138 -40t118.5 -66.5t83 -103t31.5 -149.5q0 -37 -12.5 -80.5t-39 -86.5t-66.5 -83t-95.5 -71t-126.5 -49.5t-158 -18.5q-102 0 -172.5 25t-115 62.5t-64 82t-19.5 82.5q0 27 10 51t27.5 41.5t40.5 28
t49 10.5q18 0 37.5 -6.5t35.5 -18.5t26 -29t10 -38q0 -35 -9.5 -54t-23.5 -28t-30.5 -12.5l-30.5 -6.5t-23.5 -9.5t-9.5 -22.5q0 -28 30 -49.5t70 -36.5t80 -23t61 -8q82 0 140.5 23t96 70.5t54.5 120.5t17 173q0 66 -22 119.5t-64 90.5t-102 57t-136 20q-45 0 -70 -6
t-41 -6q-7 0 -17.5 1t-20 4.5t-16.5 10t-7 17.5q0 19 17 25.5t32 6.5q25 0 49.5 -5t50.5 -5q49 0 95.5 13t83.5 39.5t62 66.5t32 94q3 32 6.5 63.5t3.5 65.5q0 58 -17 100.5t-48.5 70.5t-75 42t-96.5 14q-16 0 -42.5 -3.5t-51.5 -12.5t-43.5 -24t-18.5 -37q0 -16 13 -22.5
l29 -14t29 -22t13 -46.5q0 -46 -25.5 -75t-70.5 -29q-56 0 -83.5 32t-27.5 89q0 14 6 35.5t20.5 45t39 47.5t62.5 42.5t91 30.5t123 12q68 0 135 -21t120.5 -60.5t86.5 -95t33 -124.5z" />
    <glyph glyph-name="four" unicode="4" horiz-adv-x="1024" 
d="M78 418h481v756h-4zM39 469l567 879h129v-930h183v160h47v-365h-47v149h-183v-315h148v-47h-475v47h151v315h-520v107z" />
    <glyph glyph-name="five" unicode="5" horiz-adv-x="1024" 
d="M625 1321q60 0 94 3.5t51.5 10t23 17t9.5 24.5h39q0 -40 -8 -77t-31 -66q-22 -29 -61.5 -46.5t-102.5 -17.5h-379l-22 -397q68 29 138 40t142 11q77 0 154.5 -31.5t139.5 -86.5t101 -129.5t39 -159.5q0 -45 -11.5 -95.5t-37 -99.5t-65.5 -94t-96 -79t-129.5 -54.5
t-166.5 -20.5t-160.5 25t-112 63.5t-66 83.5t-21.5 86q0 57 32.5 90t88.5 33q20 0 38.5 -7t33 -20t23.5 -32.5t9 -44.5q0 -28 -9 -44t-23 -25t-29.5 -13t-29.5 -8t-23 -10t-9 -19q0 -19 26.5 -39.5t64 -38t77.5 -28.5t68 -11q77 0 137.5 25t102.5 72.5t64 116t22 155.5
q0 105 -31 176.5t-80.5 115.5t-111 63.5t-121.5 19.5q-59 0 -115.5 -15t-110.5 -38q1 46 4.5 99.5l7 109t7.5 109.5t7 100.5t5 82.5t2 56q0 10 4 21t14.5 19t28.5 13.5t45 5.5h320z" />
    <glyph glyph-name="six" unicode="6" horiz-adv-x="1024" 
d="M260 657q-3 -34 -3.5 -80t-0.5 -106q0 -108 8.5 -191.5t34.5 -140t75.5 -85.5t131.5 -29q61 0 104.5 18t72.5 49t46 73.5t25.5 92t11 103.5t2.5 108q0 57 -8.5 118t-33 111t-70.5 82.5t-121 32.5q-42 0 -80 -12.5t-72.5 -34t-65.5 -50t-57 -59.5zM858 1300
q-125 -18 -226 -59.5t-176 -111t-123 -168.5t-67 -232q36 31 69 56t68 42t74.5 26t87.5 9q86 0 161.5 -35.5t131.5 -96t88.5 -140t32.5 -166.5q0 -105 -38.5 -188.5t-104 -142t-152 -89.5t-182.5 -31q-88 0 -155.5 26t-118.5 70.5t-86 102t-56.5 120.5t-31 126.5t-9.5 120.5
q0 96 25 190.5t73.5 182t119 163.5t161 134t199.5 94.5t235 44.5v-48z" />
    <glyph glyph-name="seven" unicode="7" horiz-adv-x="1024" 
d="M948 1321v-39q-7 -12 -19 -34.5l-25.5 -48l-27 -51t-22.5 -44.5l-195 -420q-20 -43 -37 -88t-30 -88t-20 -83t-7 -73q0 -49 8.5 -79.5t18 -55l18 -48.5t8.5 -60q0 -28 -8 -52.5t-23 -43t-36.5 -29.5t-48.5 -11q-63 0 -97 38.5t-34 109.5q1 20 3.5 43.5t11 56t24.5 75
t45 99.5l374 774h-577q-19 0 -33 -7t-26 -25t-23 -48.5t-25 -78.5h-49l94 311h758z" />
    <glyph glyph-name="eight" unicode="8" horiz-adv-x="1024" 
d="M512 715q11 0 32.5 3t47 13t52 30t48 53t35.5 82.5t14 119.5q0 143 -55 213.5t-174 70.5t-174 -70.5t-55 -213.5q0 -70 14 -119.5t35.5 -82.5t48 -53t52 -30t47 -13t32.5 -3zM512 -27q-122 0 -210 33t-145 84.5t-84.5 116t-27.5 127.5q0 74 35.5 136.5t92 109.5t128 76.5
t143.5 37.5v4q-26 3 -62 12.5t-74.5 26.5t-76.5 42.5t-68 61t-48.5 80.5t-18.5 101q0 67 31 126.5t86.5 104t132 70t166.5 25.5t166 -25.5t131.5 -70t87 -104t31.5 -126.5q0 -56 -18.5 -101t-48.5 -80.5t-68 -61t-76.5 -42.5t-74.5 -26.5t-62 -12.5v-4q72 -8 143.5 -37.5
t128 -76.5t92 -109.5t35.5 -136.5q0 -63 -27.5 -127.5t-84.5 -116t-145.5 -84.5t-209.5 -33zM516 668q-48 0 -96 -15.5t-85.5 -52.5t-61 -98t-23.5 -152q0 -62 4 -100.5t10 -63.5q8 -32 26.5 -62t49.5 -53t74.5 -37t101.5 -14q55 0 97 14t72 37t48.5 53t26.5 62
q6 25 10 63.5t4 100.5q0 91 -23.5 152t-60.5 98t-83 52.5t-91 15.5z" />
    <glyph glyph-name="nine" unicode="9" horiz-adv-x="1024" 
d="M764 664q3 34 3.5 80t0.5 106q0 108 -8.5 191.5t-34.5 140t-75.5 85.5t-131.5 29q-62 0 -105 -18t-72 -49t-46 -73.5t-25.5 -92t-11 -103.5t-2.5 -108q0 -57 8.5 -118t33 -111t70.5 -82.5t121 -32.5q42 0 80 12.5t72.5 34t65.5 49.5t57 60zM166 20q125 18 226 60
t176 111.5t123 168.5t67 232q-36 -32 -69 -56.5t-68 -41.5t-74.5 -26t-87.5 -9q-86 0 -161.5 35.5t-131.5 96t-88.5 140t-32.5 166.5q0 105 38.5 188.5t104 142t152 89.5t182.5 31q87 0 155 -26t119 -70.5t86 -102t56.5 -120.5t31 -127t9.5 -120q0 -96 -25 -190.5
t-73.5 -182t-119 -163.5t-161 -134t-199.5 -94.5t-235 -44.5v47z" />
    <glyph glyph-name="uni2007" unicode="&#x2007;" horiz-adv-x="1139" 
 />
    <glyph glyph-name="onesuperior" unicode="&#xb9;" horiz-adv-x="614" 
d="M94 539v41h146v661q0 17 -3 26.5t-12.5 14.5t-27 6.5t-47.5 1.5h-64v41h64q46 0 109 5t134 12v-768h137v-41h-436z" />
    <glyph glyph-name="twosuperior" unicode="&#xb2;" horiz-adv-x="614" 
d="M565 539h-553v71l113 103l138 131t90.5 100t49.5 84t15 82q0 35 -11 69t-32 61t-51 43.5t-68 16.5q-39 0 -70 -13t-53 -32.5t-33.5 -42t-11.5 -41.5v-18q16 6 29 10t24 4q32 0 50 -20t18 -43q0 -16 -7.5 -29t-18.5 -22t-25 -14t-27 -5q-21 0 -39.5 8.5t-32.5 23.5
t-22 35.5t-8 43.5q0 52 24 90.5t62 63.5t86.5 37t97.5 12q48 0 100.5 -12t96 -38t72 -67.5t28.5 -100.5q0 -34 -13 -65.5t-42.5 -66.5t-76.5 -77.5t-114 -97.5l-196 -157v-4h307q24 0 37.5 4t21.5 14.5t11 29.5t6 50h47z" />
    <glyph glyph-name="threesuperior" unicode="&#xb3;" horiz-adv-x="614" 
d="M547 1167q0 -38 -16 -69t-42.5 -55t-60.5 -41t-70 -25v-4q48 -9 91 -23.5t75.5 -39.5t51 -62t18.5 -90q0 -34 -21.5 -75t-64.5 -77t-107.5 -60t-150.5 -24q-66 0 -113.5 15.5t-77.5 39.5t-44.5 53t-14.5 56q0 16 8 30.5t21 25t29.5 16.5t33.5 6q12 0 26.5 -4t27 -11.5
t20.5 -18t8 -23.5q0 -31 -13 -41.5t-29 -13.5l-29 -5.5t-13 -17.5q0 -17 18 -29.5t42 -21t49 -13t39 -4.5q49 0 83 12t55 38t30.5 67.5t9.5 101.5q0 79 -49 119.5t-140 40.5q-29 0 -45.5 -8t-25.5 -8t-18 1t-16.5 6t-12.5 15.5t-5 28.5q0 12 12.5 20.5t30.5 8.5
q16 0 32.5 -8.5t33.5 -8.5q33 0 62.5 8t51.5 28t35 55.5t13 90.5q0 40 -9.5 67t-26.5 43t-41.5 23t-55.5 7q-11 0 -26.5 -2.5t-30 -7.5t-25 -13.5t-10.5 -21.5q0 -10 8.5 -14l19 -9t19 -13.5t8.5 -27.5q0 -28 -22 -45.5t-50 -17.5q-37 0 -60.5 20t-23.5 62q0 13 11 35
t37.5 43t71.5 36t114 15q44 0 91 -12.5t85.5 -36t63 -57t24.5 -75.5z" />
    <glyph glyph-name="fraction" unicode="&#x2044;" horiz-adv-x="342" 
d="M582 1348h102l-924 -1375h-102z" />
    <glyph glyph-name="onequarter" unicode="&#xbc;" horiz-adv-x="1536" 
d="M811 250h311v448h-4zM774 283l369 544h114v-577h119v96h41v-229h-41v92h-119v-168h97v-41h-330v41h98v168h-348v74zM1165 1348h103l-924 -1375h-102zM94 539v41h146v661q0 17 -3 26.5t-12.5 14.5t-27 6.5t-47.5 1.5h-64v41h64q46 0 109 5t134 12v-768h137v-41h-436z" />
    <glyph glyph-name="onehalf" unicode="&#xbd;" horiz-adv-x="1536" 
d="M1165 1348h103l-924 -1375h-102zM94 539v41h146v661q0 17 -3 26.5t-12.5 14.5t-27 6.5t-47.5 1.5h-64v41h64q46 0 109 5t134 12v-768h137v-41h-436zM1434 0h-553v72l112 102l138 131.5t90.5 100.5t49.5 83.5t15 81.5q0 36 -11 70t-31.5 61t-50.5 43.5t-69 16.5t-70 -13.5
t-53 -33t-33.5 -42t-11.5 -40.5v-19q16 7 29.5 11t24.5 4q32 0 49.5 -20.5t17.5 -43.5q0 -16 -7.5 -29t-18.5 -22t-25 -13.5t-27 -4.5q-21 0 -39.5 8.5t-32.5 23.5t-22 35t-8 43q0 52 24 90.5t62 63.5t86.5 37t97.5 12q48 0 100.5 -11.5t96 -37.5t72 -67.5t28.5 -100.5
q0 -34 -13 -65.5t-42 -66.5t-76 -77.5t-114 -97.5l-197 -158v-4h307q24 0 38 4t21.5 14.5t11 29.5t5.5 50h47z" />
    <glyph glyph-name="threequarters" unicode="&#xbe;" horiz-adv-x="1536" 
d="M811 250h311v448h-4zM774 283l369 544h114v-577h119v96h41v-229h-41v92h-119v-168h97v-41h-330v41h98v168h-348v74zM1165 1348h103l-924 -1375h-102zM547 1167q0 -38 -16 -69t-42.5 -55t-60.5 -41t-70 -25v-4q48 -9 91 -23.5t75.5 -39.5t51 -62t18.5 -90q0 -34 -21.5 -75
t-64.5 -77t-107.5 -60t-150.5 -24q-66 0 -113.5 15.5t-77.5 39.5t-44.5 53t-14.5 56q0 16 8 30.5t21 25t29.5 16.5t33.5 6q12 0 26.5 -4t27 -11.5t20.5 -18t8 -23.5q0 -31 -13 -41.5t-29 -13.5l-29 -5.5t-13 -17.5q0 -17 18 -29.5t42 -21t49 -13t39 -4.5q49 0 83 12t55 38
t30.5 67.5t9.5 101.5q0 79 -49 119.5t-140 40.5q-29 0 -45.5 -8t-25.5 -8t-18 1t-16.5 6t-12.5 15.5t-5 28.5q0 12 12.5 20.5t30.5 8.5q16 0 32.5 -8.5t33.5 -8.5q33 0 62.5 8t51.5 28t35 55.5t13 90.5q0 40 -9.5 67t-26.5 43t-41.5 23t-55.5 7q-11 0 -26.5 -2.5t-30 -7.5
t-25 -13.5t-10.5 -21.5q0 -10 8.5 -14l19 -9t19 -13.5t8.5 -27.5q0 -28 -22 -45.5t-50 -17.5q-37 0 -60.5 20t-23.5 62q0 13 11 35t37.5 43t71.5 36t114 15q44 0 91 -12.5t85.5 -36t63 -57t24.5 -75.5z" />
    <glyph glyph-name="percent" unicode="%" horiz-adv-x="1706" 
d="M508 -55h-105l715 1263l-4 4q-57 -40 -128 -62t-148 -22q-20 0 -41 5t-41 8v-31q0 -59 -13.5 -123t-38.5 -125t-61.5 -116t-82.5 -96.5t-101.5 -66t-118.5 -24.5q-52 0 -96.5 17.5t-77.5 50t-51.5 78.5t-18.5 102q0 55 18 115t49.5 118t74 110.5t92.5 92t105 63t110 23.5
q71 0 124 -31t76 -100q40 -27 97 -27q47 0 99 13.5t102.5 40t96.5 64.5t81 87h90zM545 1266q-28 0 -60.5 -26.5t-65 -69.5t-62.5 -98.5t-53 -113.5t-36.5 -113.5t-13.5 -99.5q0 -68 33 -98.5t96 -30.5q50 0 107 41t106 107t81 148.5t32 166.5q0 20 -2 40t-9 40
q-37 19 -72.5 42t-54.5 65h-26zM1563 520q0 82 -30.5 130t-98.5 48q-40 0 -79.5 -27t-76 -71t-68.5 -100t-55.5 -113t-37 -111t-13.5 -94q0 -65 32.5 -99t106.5 -34q43 0 84 24t76.5 63t65 89t50.5 102.5t32.5 102.5t11.5 90zM1401 762q26 0 62 -10.5t68.5 -37t55.5 -70
t23 -109.5q0 -32 -9.5 -84.5t-30 -113t-53 -122t-79.5 -111t-109.5 -81t-142.5 -31.5q-52 0 -96 17.5t-76 49t-50 76t-18 98.5q0 57 17.5 119t48.5 120.5t73.5 111t93.5 92.5t107 63t115 23z" />
    <glyph glyph-name="perthousand" unicode="&#x2030;" horiz-adv-x="2048" 
d="M1124 1376l-802 -1431h-105l711 1255l-4 4q-42 -18 -90 -34.5t-99 -16.5q-21 0 -44 1.5t-46 6.5q2 -11 3 -23t-1 -32q-4 -55 -20 -113.5t-42 -113.5t-61 -104t-77.5 -85.5t-91.5 -58t-103 -21.5q-75 0 -121.5 25.5t-73 62.5t-36 78.5t-9.5 73.5q0 51 18 107.5t49 112
t73 106t90 88.5t100 61t104 23q28 0 57.5 -8t55 -23.5t45.5 -38t29 -51.5q20 -16 40.5 -18.5t43.5 -2.5q97 0 178.5 43.5t138.5 126.5h90zM469 1276q-22 1 -41.5 -9t-36.5 -25.5t-32.5 -35.5l-30.5 -39q-32 -43 -60 -95.5t-49 -105.5t-33 -102t-12 -84q0 -60 31 -85t84 -25
q35 0 71.5 20.5t70.5 55.5t64 80.5t52.5 96t35.5 102.5t13 99q0 14 -0.5 28.5t-3.5 31.5q-35 14 -69 36t-54 56zM1114 715q50 0 87 -18t61.5 -49t36.5 -73t12 -90q0 -47 -13.5 -103t-38.5 -112.5t-61 -110t-80.5 -95t-97.5 -66.5t-111 -25q-111 0 -173 63t-62 179
q0 53 17.5 110.5t48.5 113t73 105.5t91 88t102.5 60.5t107.5 22.5zM1139 645q-40 0 -77.5 -31t-71 -79t-62 -105.5t-49 -110.5t-32 -95t-11.5 -58q0 -28 5 -52t17 -42t33.5 -28.5t54.5 -10.5q34 0 70.5 20t71.5 53.5t66.5 79t55 97t37 105.5t13.5 106q0 31 -6 59t-20 48
t-37.5 32t-57.5 12zM1839 715q50 0 87 -18t61.5 -49t36.5 -73t12 -90q0 -47 -13.5 -103t-38.5 -112.5t-61 -110t-80.5 -95t-97.5 -66.5t-111 -25q-111 0 -173 63t-62 179q0 53 17.5 110.5t48.5 113t73 105.5t91 88t102.5 60.5t107.5 22.5zM1864 645q-40 0 -77.5 -31t-71 -79
t-62 -105.5t-49 -110.5t-32 -95t-11.5 -58q0 -28 5 -52t17 -42t33.5 -28.5t54.5 -10.5q34 0 70.5 20t71.5 53.5t66.5 79t55 97t37 105.5t13.5 106q0 31 -6 59t-20 48t-37.5 32t-57.5 12z" />
    <glyph glyph-name="plus" unicode="+" horiz-adv-x="1126" 
d="M504 995h119v-438h415v-119h-415v-438h-119v438h-416v119h416v438z" />
    <glyph glyph-name="plusminus" unicode="&#xb1;" horiz-adv-x="1126" 
d="M88 0v119h950v-119h-950zM504 995h119v-331h415v-119h-415v-332h-119v332h-416v119h416v331z" />
    <glyph glyph-name="multiply" unicode="&#xd7;" horiz-adv-x="1126" 
d="M88 907l82 86l393 -411l393 411l82 -86l-393 -409l393 -410l-82 -86l-393 410l-393 -410l-82 86l393 410z" />
    <glyph glyph-name="divide" unicode="&#xf7;" horiz-adv-x="1126" 
d="M442 897q0 26 9.5 49t26 40t38.5 26.5t47 9.5t47.5 -9.5t39.5 -26.5t26.5 -40t9.5 -49q0 -27 -9.5 -50t-26.5 -39.5t-39.5 -26t-47.5 -9.5t-47 9.5t-38.5 26t-26 39.5t-9.5 50zM442 98q0 26 9.5 49t26 40t38.5 26.5t47 9.5t47.5 -9.5t39.5 -26.5t26.5 -40t9.5 -49
t-9.5 -48.5t-26.5 -39.5t-39.5 -27t-47.5 -10t-47 10t-38.5 27t-26 39.5t-9.5 48.5zM88 438v119h950v-119h-950z" />
    <glyph glyph-name="equal" unicode="=" horiz-adv-x="1126" 
d="M88 647v119h950v-119h-950zM88 229v119h950v-119h-950z" />
    <glyph glyph-name="less" unicode="&#x3c;" horiz-adv-x="1126" 
d="M1038 -59l-950 495v123l950 496v-133l-802 -424l802 -426v-131z" />
    <glyph glyph-name="greater" unicode="&#x3e;" horiz-adv-x="1126" 
d="M88 72l803 426l-803 424v133l950 -496v-123l-950 -495v131z" />
    <glyph glyph-name="logicalnot" unicode="&#xac;" horiz-adv-x="1126" 
d="M920 647h-832v119h950v-580h-118v461z" />
    <glyph glyph-name="approxequal" unicode="&#x2248;" horiz-adv-x="995" 
d="M922 766q-20 -39 -45.5 -73t-56 -59t-65.5 -39.5t-75 -14.5q-28 0 -52 5t-48 14t-49 22.5t-54 31.5q-40 26 -78 44t-82 18q-30 0 -54 -11t-44.5 -29.5t-38 -42.5t-33.5 -50l-77 65q40 82 108 133t152 51q32 0 60 -7t51.5 -17.5t43.5 -22.5l37 -22l45 -26.5t38 -20t36 -13
t39 -4.5q52 0 89.5 36t74.5 97zM922 436q-20 -38 -45.5 -71.5t-56 -58.5t-66.5 -39.5t-76 -14.5q-27 0 -51 5t-47.5 14.5t-48.5 23t-54 31.5q-42 26 -79 43.5t-79 17.5q-31 0 -56 -11t-45 -30t-37.5 -43t-33.5 -49l-77 65q20 40 47.5 73.5t61 58t71.5 38t80 13.5q33 0 61 -7
t51.5 -17t43 -22l36.5 -22q22 -12 41.5 -24t38 -21t38 -14.5t40.5 -5.5q54 0 90.5 36t73.5 99z" />
    <glyph glyph-name="notequal" unicode="&#x2260;" horiz-adv-x="995" 
d="M649 782h256v-118h-301l-110 -254h411v-117h-456l-93 -209l-92 39l74 170h-250v117h297l109 254h-406v118h451l92 205l92 -39z" />
    <glyph glyph-name="lessequal" unicode="&#x2264;" horiz-adv-x="995" 
d="M98 606v127l803 410v-139l-684 -332v-4l684 -334v-139zM90 0v123h817v-123h-817z" />
    <glyph glyph-name="greaterequal" unicode="&#x2265;" horiz-adv-x="995" 
d="M903 731v-127l-803 -409v139l682 334v4l-682 332v139zM92 0v123h813v-123h-813z" />
    <glyph glyph-name="partialdiff" unicode="&#x2202;" horiz-adv-x="995" 
d="M494 821q30 0 63 -7t64.5 -22.5t60.5 -39t51 -56.5q6 48 11.5 100.5t7.5 108.5q3 72 -7 148.5t-40 150.5q-14 31 -36.5 61t-52.5 53.5t-67 37.5t-80 14q-38 0 -73.5 -9.5t-68.5 -25t-62.5 -35t-53.5 -40.5q-12 -1 -25 13t-23 35t-14 44t3 41q48 31 112.5 53t149.5 22
q67 0 124.5 -18.5t106.5 -53.5t89 -85.5t73 -114.5q28 -56 46 -116.5t28.5 -120t15 -114.5t4.5 -100q0 -55 -5 -116.5t-16 -123.5t-28 -122.5t-41 -112.5q-29 -65 -68 -119t-87.5 -92.5t-107 -60t-126.5 -21.5q-77 0 -140 26t-108 75t-69.5 119.5t-24.5 160.5q0 50 9 96.5
t24 87t35 75t42 61.5q25 31 59 57.5t73 45.5t82 29.5t88 10.5h2zM535 741q-53 0 -100.5 -23t-90.5 -87q-21 -35 -36.5 -79t-26 -92.5t-16 -99.5t-5.5 -102q0 -47 11 -87.5t31.5 -70t50.5 -46.5t69 -17q35 0 65.5 18.5t56 47.5t46 66t35.5 73q19 43 33 84.5t24.5 86
t18.5 93.5t16 106q-8 19 -24.5 42t-39.5 42t-52.5 32t-63.5 13h-2z" />
    <glyph glyph-name="uni2206" unicode="&#x2206;" horiz-adv-x="1186" 
d="M63 0v53l480 1268l82 22l495 -1290v-53h-1057zM526 1063l-354 -965h719z" />
    <glyph glyph-name="product" unicode="&#x220f;" horiz-adv-x="1288" 
d="M1237 1276q-60 -5 -94 -12t-51 -22.5t-21 -43t-4 -72.5v-1073q0 -51 4.5 -81t21.5 -47t50.5 -24t91.5 -12v-55h-502v55q52 4 82 10t45 22.5t19 47t4 84.5v1143q0 21 -3 34t-10.5 20t-21.5 9.5t-35 2.5h-344q-20 0 -32.5 -2t-19 -8t-9 -17.5t-2.5 -30.5v-1151q0 -50 2 -80
t15 -47t41 -24.5t79 -12.5v-55h-490v55q57 5 90 12t50 23.5t21.5 47t4.5 81.5v1073q0 46 -4 73.5t-21 43t-51.5 22t-95.5 11.5v53h1190v-53z" />
    <glyph glyph-name="summation" unicode="&#x2211;" horiz-adv-x="1032" 
d="M907 -174h-856v49l416 645l-406 758v51h846l3.5 -46l6 -76.5t7 -93.5l6.5 -97l-56 -10q-12 65 -27 111.5t-34 78.5q-10 19 -22.5 32t-33.5 20.5t-55 10.5t-86 3h-327l338 -613l-418 -661h461q61 0 99.5 5t65.5 27t48.5 67t50.5 124l55 -14z" />
    <glyph glyph-name="radical" unicode="&#x221a;" horiz-adv-x="1034" 
d="M688 -297l-43 -20l-399 1046l-164 -76l-23 66l310 141l297 -811h4l256 1655l80 -16z" />
    <glyph glyph-name="infinity" unicode="&#x221e;" horiz-adv-x="1417" 
d="M1327 547q0 -72 -24.5 -128.5t-64.5 -96.5t-92.5 -61t-107.5 -21q-41 0 -79.5 11t-78.5 36t-81.5 65t-87.5 99q-36 -43 -73 -81.5t-78 -67t-87.5 -45.5t-101.5 -17q-57 0 -108.5 22t-90 61.5t-61.5 94.5t-23 121q0 67 22.5 123t62 96.5t94 63t118.5 22.5q51 0 95.5 -15.5
t85 -43.5t78 -65.5t73.5 -82.5l64 71t72.5 67t87.5 49.5t108 19.5t110.5 -21.5t88 -60t58.5 -93t21 -120.5v-2zM387 352q40 0 75.5 17t67.5 43t61 58.5l56 64.5l-57.5 73t-60.5 63.5t-69 44.5t-83 17q-41 0 -73 -15t-54 -41.5t-33.5 -62.5t-11.5 -77q0 -39 13.5 -72.5
t37.5 -58.5t57 -39.5t72 -14.5h2zM1036 733q-43 0 -80.5 -20t-70.5 -49.5t-61 -62l-50 -56.5q42 -51 76 -88t65 -60t61.5 -34t65.5 -11q40 0 71.5 17t53 44t32.5 60.5t11 65.5q0 43 -12.5 79t-35.5 61.5t-54.5 39.5t-69.5 14h-2z" />
    <glyph glyph-name="integral" unicode="&#x222b;" horiz-adv-x="721" 
d="M264 791q-8 169 0 295t29 216.5t51.5 149t67 93t76.5 48t79 13.5q19 0 40.5 -6t39.5 -17.5t29.5 -29.5t11.5 -42t-8 -41t-20.5 -28.5t-29 -17t-34.5 -5.5q-25 0 -37.5 15t-21 33.5t-17 33.5t-24.5 15q-15 0 -29.5 -12.5t-25 -47t-15.5 -94.5t0 -154l35 -721
q9 -170 2 -300.5t-26.5 -227t-49 -162.5t-67 -106t-80 -57t-86.5 -17q-26 0 -48.5 8t-39 21.5t-26 31t-9.5 37.5q-1 22 8 40t24 31t34.5 20.5t39.5 7.5q22 0 34 -16.5t21 -36t17.5 -36t23.5 -16.5q21 0 35.5 21.5t23 61t11 95t-1.5 123.5z" />
    <glyph glyph-name="underscore" unicode="_" horiz-adv-x="1024" 
d="M0 -256v102h1024v-102h-1024z" />
    <glyph glyph-name="degree" unicode="&#xb0;" horiz-adv-x="819" 
d="M410 827q45 0 84.5 18.5t69 50t46.5 73t17 86.5t-17 86.5t-46.5 72.5t-69 49.5t-84.5 18.5t-85 -18.5t-69 -49.5t-46 -72.5t-17 -86.5t17 -86.5t46 -73t69 -50t85 -18.5zM410 762q-62 0 -115 22.5t-93 62.5t-62.5 93t-22.5 115q0 61 22.5 114.5t62.5 93.5t93 62.5
t115 22.5q61 0 114.5 -22.5t93 -62.5t62 -93.5t22.5 -114.5q0 -62 -22.5 -115t-62 -93t-93 -62.5t-114.5 -22.5z" />
    <glyph glyph-name="quotesingle" unicode="'" horiz-adv-x="455" 
d="M199 793l-26.5 175.5l-19.5 123.5t-12 86t-4 63q0 21 3 43t12 40t27 30t48 12t48 -12t27 -30t12 -40t3 -43q0 -28 -4 -63t-11.5 -86l-18.5 -123.5t-25 -175.5h-59z" />
    <glyph glyph-name="quotedbl" unicode="&#x22;" 
d="M614 793l-26 175.5l-19 123.5t-12 86t-4 63q0 21 3 43t12 40t27 30t48 12t48 -12t27 -30t12 -40t3 -43q0 -28 -4 -63t-11.5 -86l-18.5 -123.5t-25 -175.5h-60zM238 793l-26.5 175.5l-19.5 123.5t-12 86t-4 63q0 21 3 43t12 40t27 30t48 12t48 -12t27 -30t12 -40t3 -43
q0 -28 -4 -63t-11.5 -86l-18.5 -123.5t-25 -175.5h-59z" />
    <glyph glyph-name="uni00B5" horiz-adv-x="1139" 
d="M836 0v117q-111 -129 -291 -129q-82 0 -147 23.5t-113 68.5v-551h-105v1458h105v-612q0 -144 69.5 -219.5t202.5 -75.5t206 77t73 218v612h104v-987h-104z" />
    <glyph glyph-name="lozenge" unicode="&#x25ca;" horiz-adv-x="1044" 
d="M594 -131h-143l-361 772l363 776h141l360 -776zM526 1288h-6l-297 -645l297 -649h6l295 647z" />
    <glyph glyph-name="_32" unicode=" " horiz-adv-x="522" 
 />
    <glyph glyph-name="uniF8FF" unicode="&#xf8ff;" horiz-adv-x="0" 
 />
    <glyph glyph-name="itilde" unicode="&#x129;" horiz-adv-x="569" 
d="M86 0v47h137v717h-137v47h67q57 0 115.5 3t113.5 17v-784h121v-47h-417zM612 1155q-9 -40 -27.5 -77.5t-45.5 -67t-63.5 -47t-81.5 -17.5q-43 0 -80 14.5t-71 32.5l-66.5 32t-64.5 15q-21 0 -39.5 -7.5t-33 -20.5t-24.5 -30t-14 -36h-55q7 42 25 79t45.5 64t64.5 42.5
t82 15.5q34 0 68.5 -15t68.5 -32q35 -19 68.5 -33t64.5 -14q26 0 44.5 8t32 21.5t23.5 32.5t19 40h60z" />
    <glyph glyph-name="_45" horiz-adv-x="872" 
d="M168 492v96h537v-96h-537z" />
    <glyph glyph-name="udieresis" unicode="&#xfc;" horiz-adv-x="1024" 
d="M963 0h-43q-56 0 -112 -4t-112 -10v166h-4q-40 -85 -118.5 -133t-178.5 -48q-75 0 -122 17.5t-73.5 45.5t-36 63.5t-9.5 72.5v594h-111v47h41q57 0 115.5 3t113.5 17v-643q0 -47 11 -76.5t28.5 -46t40 -22.5t45.5 -6q55 0 100.5 21t78.5 57.5t51 85.5t18 104v459h-117v47
h47q57 0 115.5 3t114.5 17v-784h117v-47zM311 934q-40 0 -67 27t-27 67t26 69t68 29q20 0 38 -8t31 -21.5t20.5 -31.5t7.5 -37q0 -20 -8 -37t-21.5 -30t-31 -20t-36.5 -7zM711 934q-41 0 -68 27t-27 67t26.5 69t68.5 29q20 0 37.5 -8t30.5 -21.5t20.5 -31.5t7.5 -37
q0 -20 -8 -37t-21 -30t-30.5 -20t-36.5 -7z" />
    <glyph glyph-name="uni1EBE" unicode="&#x1ebe;" horiz-adv-x="1251" 
d="M61 0v47h181v1274h-181v47h1039v-334h-45q-13 91 -43 147.5t-74.5 87.5t-102.5 41.5t-128 10.5h-267v-590q78 0 130.5 3.5t87 24.5t53.5 65.5t30 125.5h45v-518h-45q-5 82 -24 131t-55 74.5t-91 33.5t-131 9v-633h248q101 0 171 10t117.5 44.5t76.5 101t49 180.5h53
l-27 -383h-1067zM686 1774l248 -340h-66l-239 215l-240 -215h-70l252 340h115zM1193 1906l31.5 31t39.5 16q31 0 51.5 -19.5t20.5 -50.5q0 -17 -8 -31t-22 -26.5t-33 -25l-41 -26.5l-273 -165h-72z" />
    <glyph glyph-name="Ecircumflex" unicode="&#xca;" horiz-adv-x="1251" 
d="M61 0v47h181v1274h-181v47h1039v-334h-45q-13 91 -43 147.5t-74.5 87.5t-102.5 41.5t-128 10.5h-267v-590q78 0 130.5 3.5t87 24.5t53.5 65.5t30 125.5h45v-518h-45q-5 82 -24 131t-55 74.5t-91 33.5t-131 9v-633h248q101 0 171 10t117.5 44.5t76.5 101t49 180.5h53
l-27 -383h-1067zM686 1774l248 -340h-66l-239 215l-240 -215h-70l252 340h115z" />
    <glyph glyph-name="hookabovecombHOA" unicode="&#x2bc;" horiz-adv-x="0" 
d="M-29 1431q-24 47 -20.5 76.5t22.5 49t48.5 32l59 25t53.5 28t32 40.5q8 27 4.5 59t-20 59t-46.5 45.5t-75 18.5q-25 0 -49 -8t-42.5 -19t-29.5 -24.5t-11 -23.5q1 -18 7 -25t15 -8.5t20.5 -0.5t23.5 -1.5t23 -10.5t20 -28q3 -28 -6 -45.5t-23 -26.5t-32 -10.5t-33 2.5
q-35 8 -58 37t-23 70q0 40 18.5 70t46.5 50.5t61 31t63 10.5q45 0 85 -16.5t66.5 -46t36.5 -69.5t-3 -87q-7 -24 -17 -40t-26 -28t-40 -22.5t-60 -23.5q-29 -11 -44 -28.5t-16 -37.5t12 -39.5t40 -34.5h-83z" />
    <glyph glyph-name="hyphen" unicode="-" horiz-adv-x="682" 
d="M90 375v137h502v-137h-502z" />
    <glyph glyph-name="Lslash" unicode="&#x141;" horiz-adv-x="1139" 
d="M440 1321v-555l314 295v-105l-314 -294v-615h367q63 0 110 34t80 85t53 109.5t29 107.5h39l-22 -383h-1022v47h168v430l-197 -184v104l197 185v739h-168v47h555v-47h-189z" />
    <glyph glyph-name="lslash" unicode="&#x142;" horiz-adv-x="569" 
d="M41 0v47h158v506l-189 -199v97l189 198v715h-158v47h88q57 0 115.5 4t113.5 15v-615l185 195v-97l-185 -194v-672h158v-47h-475z" />
    <glyph glyph-name="mu" unicode="&#xb5;" horiz-adv-x="1024" 
d="M963 0h-43q-56 0 -112 -4t-112 -10v166h-4q-40 -85 -118.5 -133t-178.5 -48q-42 0 -74 8.5t-57 28.5q-8 -21 -10 -48t0 -58q1 -28 13 -57.5l25.5 -60t24.5 -62.5t11 -64q0 -24 -6 -46t-19 -39.5t-33.5 -27.5t-48.5 -10q-25 0 -43.5 12t-30.5 33.5t-18 51.5t-6 65
q0 48 5 99l10.5 106t10.5 115t5 128v619h-111v47h41q57 0 115.5 3t113.5 17v-643q0 -47 11 -76.5t28.5 -46t40 -22.5t45.5 -6q55 0 100.5 21t78.5 57.5t51 85.5t18 104v459h-117v47h47q57 0 115.5 3t114.5 17v-782h117v-49z" />
    <glyph glyph-name="minus" unicode="&#x2212;" horiz-adv-x="1126" 
d="M88 438v119h950v-119h-950z" />
    <glyph glyph-name="Scaron" unicode="&#x160;" horiz-adv-x="1024" 
d="M109 -6h-29v352h39q21 -70 57 -130t86.5 -104.5t113.5 -70t138 -25.5q66 0 128 21t110 60t77 93.5t29 122.5q0 45 -7 79.5t-27 62t-56.5 51t-95.5 47.5l-55.5 20l-81 28.5l-92 31.5l-88.5 31l-70 26.5t-37 16.5q-45 27 -76.5 63.5t-51.5 77.5t-29 85t-9 87q0 63 19.5 119
t64.5 114q23 30 53.5 56.5t69.5 46.5t87.5 31.5t106.5 11.5q36 0 76.5 -10t78 -24t68.5 -29.5t46 -26.5l77 59h29v-319h-41q-17 64 -48 119t-75 96t-100.5 64.5t-124.5 23.5q-52 0 -104 -17.5t-93.5 -50t-67.5 -79t-26 -103.5q0 -64 33.5 -104t88 -67t124 -46l142.5 -40.5
t142.5 -51t124 -76.5t88 -118t33.5 -175q0 -105 -31.5 -189.5t-90 -143.5t-140.5 -90.5t-182 -31.5q-87 0 -168.5 26t-144.5 89zM453 1434l-248 340h65l240 -215l240 215h69l-252 -340h-114z" />
    <glyph glyph-name="Zcaron" unicode="&#x17d;" horiz-adv-x="1139" 
d="M256 47h379q88 0 149.5 16t103 55t67 104t42.5 163h56l-23 -385h-997v84l790 1237h-379q-75 0 -122 -13t-78.5 -45.5t-54 -87.5t-48.5 -139h-47l21 332h934v-65zM510 1434l-248 340h66l239 -215l240 215h70l-252 -340h-115z" />
    <glyph glyph-name="scaron" unicode="&#x161;" horiz-adv-x="797" 
d="M627 811v-229h-45q-12 44 -31 81.5t-46.5 65t-64 43.5t-82.5 19q-63 1 -101 -18.5t-58 -45.5t-26.5 -51.5t-6.5 -34.5q0 -22 7.5 -40t40 -35t98.5 -36t184 -43q59 -12 99.5 -32t66 -48.5t36.5 -66.5t11 -86q0 -66 -23.5 -118t-63.5 -88.5t-94 -55.5t-114 -19
q-65 0 -128 25.5t-108 75.5l-45 -74h-45v270h47q15 -55 40.5 -102t62.5 -81t84 -53.5t104 -19.5q34 0 69.5 12.5t64.5 35.5t47 55.5t18 72.5q0 30 -20.5 52.5t-57.5 41t-89 34.5t-116 32q-51 12 -97 24.5t-81 35.5t-55.5 63t-20.5 107q0 32 12 75.5t42.5 82.5t84.5 66
t138 27q97 0 190 -75l37 55h35zM340 897l-248 340h66l239 -215l240 215h70l-252 -340h-115z" />
    <glyph glyph-name="zcaron" unicode="&#x17e;" horiz-adv-x="797" 
d="M102 545v266h615v-51l-475 -713h258q38 0 65.5 18.5t48 51.5t34.5 79t26 101h39v-297h-662v45l479 719h-182q-40 0 -71.5 -5.5t-56 -27.5t-42 -66t-28.5 -120h-48zM340 897l-248 340h66l239 -215l240 215h70l-252 -340h-115z" />
    <glyph glyph-name="f_i" horiz-adv-x="1024" 
d="M12 0v47h158v717h-158v47h158v100q0 124 29.5 218.5t82 158t123.5 95.5t154 32q36 0 80 -7.5t82 -26.5t64 -50t26 -78q0 -16 -7.5 -31.5t-19.5 -27.5t-27 -19.5t-30 -7.5q-42 0 -68 28.5t-26 70.5q0 13 6 24t13.5 19.5t13.5 14t6 7.5q0 11 -13.5 19.5t-32 14t-38.5 8.5
t-33 3q-68 0 -112 -36t-69 -94.5t-34.5 -134t-9.5 -153.5v-147h301q57 0 115 3t114 17v-784h121v-47h-403v47h122v717h-370v-717h125v-47h-443z" />
    <glyph glyph-name="Euro" unicode="&#x20ac;" horiz-adv-x="1024" 
d="M862 768h-497q-2 -29 -2.5 -55.5t-0.5 -50.5q0 -31 0.5 -60.5t2.5 -58.5h430l-17 -49h-413q4 -102 18.5 -189t45 -150.5t82 -99t130.5 -35.5q58 0 106.5 29t86.5 77t65.5 110.5t42.5 130.5h37v-367h-43l-43 88q-57 -62 -121.5 -88.5t-130.5 -26.5q-95 0 -174.5 38
t-141 107t-102.5 164.5t-59 211.5h-133l16 49h111q-6 58 -6 116q0 56 6 109h-119l16 49h109q19 128 66.5 227t112.5 166.5t142.5 102.5t155.5 35q71 0 128 -28t114 -81l53 61h25v-348h-37q-12 73 -34.5 136.5t-57 110.5t-82 74t-109.5 27q-52 0 -92 -20t-69.5 -55t-49.5 -82
t-33 -100.5t-20 -111.5t-10 -114h512z" />
    <glyph glyph-name="estimated" unicode="&#x212e;" horiz-adv-x="1655" 
d="M354 641q-10 0 -10 -8v-375q0 -24 16 -43q45 -46 98 -83.5t112 -64t124 -41t133 -14.5q74 0 143 16t131.5 46t117.5 72t100 94h108q-51 -60 -116.5 -109t-143 -83.5t-164 -53.5t-178.5 -19q-105 0 -202 24.5t-181.5 69t-154.5 107t-119.5 138.5t-77 163t-27.5 182
t27.5 182.5t77 164t119.5 139t154.5 107.5t181.5 69.5t202 24.5t203 -24.5t183 -69.5t154.5 -107.5t119 -139t77 -164t27.5 -182.5v-18h-1235zM1309 1065q0 12 -4.5 24t-14.5 21q-91 88 -208.5 141.5t-254.5 53.5q-136 0 -255.5 -55t-209.5 -146q-18 -18 -18 -47v-369
q0 -3 2.5 -7.5t7.5 -4.5h946q5 0 7 4.5t2 7.5v377z" />
    <glyph glyph-name="uni2219" unicode="&#x2219;" horiz-adv-x="512" 
d="M252 381q-51 0 -84 33t-33 84q0 23 10 43.5t26.5 35.5t37.5 24t43 9t44.5 -8.5t40.5 -23.5t29 -35.5t11 -44.5q0 -26 -10.5 -47.5t-27.5 -37t-40 -24t-47 -8.5z" />
    <glyph glyph-name="uni02C9" unicode="&#x2c9;" horiz-adv-x="569" 
d="M12 1081h545v-102h-545v102z" />
    <glyph glyph-name="uni00AD" unicode="&#xad;" horiz-adv-x="682" 
d="M90 375v137h502v-137h-502z" />
    <glyph glyph-name="uni03A9" unicode="&#x3a9;" horiz-adv-x="1339" 
d="M1231 0h-445l-12 37l68 144t74 170t59 187t24 197q-1 151 -29 255.5t-73.5 169.5t-105 93.5t-123.5 28.5q-69 0 -129 -28t-104.5 -93.5t-69.5 -171.5t-25 -262q0 -97 21.5 -190t54 -180t71.5 -167.5l74 -152.5l-16 -37h-441l-43 285l52 2q15 -45 28.5 -73t30 -43.5
t36.5 -20.5t48 -5h186q-45 40 -100 95.5t-102.5 128.5t-80 165.5t-32.5 206.5q0 138 42.5 249.5t116 190t173 120.5t213.5 42q117 0 215.5 -40.5t170 -116t112 -185t40.5 -247.5q0 -103 -31 -191.5t-78.5 -163.5t-104.5 -138.5t-109 -115.5h198q28 0 48 4.5t35 19.5t27.5 43
t27.5 75l55 -2z" />
    <glyph glyph-name="uni00A0" unicode="&#xa0;" horiz-adv-x="512" 
 />
    <glyph glyph-name="afii61289" unicode="&#x2113;" horiz-adv-x="784" 
d="M752 199q-56 -107 -135 -164.5t-185 -57.5q-71 0 -119 19.5t-77 54.5q-16 22 -28 45.5t-20 55.5t-12 75t-4 105v151l-109 -80l-24 52l131 104v254q0 112 4.5 190t15.5 134.5t30 97t48 76.5q38 51 83 75.5t93 24.5q45 0 78.5 -20t56 -55t33.5 -81.5t11 -99.5
q0 -85 -20.5 -160t-57 -143t-86.5 -131.5t-109 -124.5v-174q0 -95 9.5 -158t29.5 -100.5t50 -53.5t71 -16q32 0 60.5 11t53.5 30t47 44t40 52zM350 690q36 44 66.5 97.5t52.5 113t34.5 123t12.5 127.5q0 45 -5 81.5t-15.5 62.5t-25.5 40.5t-36 14.5q-24 0 -40.5 -21
t-26 -70.5t-13.5 -131.5t-4 -205v-232z" />
    <glyph glyph-name="uni03BC" unicode="&#x3bc;" horiz-adv-x="1024" 
d="M963 0h-43q-56 0 -112 -4t-112 -10v166h-4q-40 -85 -118.5 -133t-178.5 -48q-42 0 -74 8.5t-57 28.5q-8 -21 -10 -48t0 -58q1 -28 13 -57.5l25.5 -60t24.5 -62.5t11 -64q0 -24 -6 -46t-19 -39.5t-33.5 -27.5t-48.5 -10q-25 0 -43.5 12t-30.5 33.5t-18 51.5t-6 65
q0 48 5 99l10.5 106t10.5 115t5 128v619h-111v47h41q57 0 115.5 3t113.5 17v-643q0 -47 11 -76.5t28.5 -46t40 -22.5t45.5 -6q55 0 100.5 21t78.5 57.5t51 85.5t18 104v459h-117v47h47q57 0 115.5 3t114.5 17v-782h117v-49z" />
    <glyph glyph-name="uni2215" unicode="&#x2215;" horiz-adv-x="342" 
d="M582 1348h102l-924 -1375h-102z" />
    <glyph glyph-name="f_l" horiz-adv-x="1024" 
d="M700 811v385q-11 2 -21.5 12t-19.5 22.5t-14.5 26.5t-5.5 25q0 18 4.5 30.5t10 21t10 13.5t4.5 9q0 7 -12 12t-29 8t-37 4.5t-35 1.5q-26 0 -64.5 -14.5t-74 -53.5t-61 -108.5t-25.5 -179.5v-215h370zM860 47h121v-47h-403v47h122v717h-370v-717h125v-47h-443v47h158v717
h-158v47h158v107q0 124 29.5 218t82 157.5t123.5 95.5t154 32q32 0 60 -5t51 -13q24 -6 42.5 -12.5t30.5 -6.5q31 0 59.5 10.5t57.5 18.5v-1366z" />
    <glyph glyph-name="a.superior" horiz-adv-x="573" 
d="M485 934q0 -26 3.5 -39.5t25.5 -13.5q10 0 18 5.5t13.5 13.5t9.5 17t6 17h23q-2 -21 -11.5 -40t-26.5 -34t-41 -24t-54 -9q-38 0 -59.5 25t-29.5 57q-17 -22 -40.5 -37.5t-50 -25.5t-52.5 -14.5t-47 -4.5q-34 0 -63.5 7.5t-52 23t-35.5 39t-13 55.5q1 42 28 75.5t73 57.5
t108 37t135 13v100q0 41 -25.5 56.5t-60.5 15.5q-11 0 -30 -2t-37.5 -6.5t-32.5 -12.5t-14 -20q0 -4 6.5 -8t14 -9.5t14 -14.5t6.5 -24q0 -21 -20 -35t-46 -14q-34 0 -55 16.5t-21 39.5q0 16 13 37.5t40 41.5t69 34.5t101 17.5q79 -3 122 -17.5t62.5 -34t23 -41t3.5 -38.5
v-283zM352 1100q-29 -1 -66.5 -5.5t-70.5 -17t-55.5 -36.5t-22.5 -64q0 -45 23 -69.5t69 -24.5q32 0 56 8t47 27q9 6 14.5 20t5.5 51v111z" />
    </font>
</defs>
</svg>
